<svg width="161" height="148" viewBox="0 0 161 148" fill="none" xmlns="http://www.w3.org/2000/svg">
<g filter="url(#filter0_f_97_199)">
<path d="M89.8123 107.04V118.254L80.0347 124L70.5352 118.254V107.04L80.0347 112.786L89.8123 107.04ZM37.4953 68.2539L46.9948 74V93.2308L63.3526 103.008V114.222L37.4953 98.9768V68.2539ZM122.528 68.2539V99.0232L96.3924 114.269V103.055L112.75 93.2771V74.0463L122.528 68.2539ZM96.3924 53.0083L106.17 58.7544V69.9685L89.8123 79.7461V99.3012L80.3127 105.047L70.8132 99.3012V79.7461L53.853 69.9685V58.7544L63.6306 53.0083L79.9883 62.7859L96.3924 53.0083ZM53.853 78.0315L63.3526 83.7776V94.9917L53.853 89.2456V78.0315ZM106.17 78.0315V89.2456L96.6705 94.9917V83.7776L106.17 78.0315ZM46.9948 43.2308L56.7724 48.9768L46.9948 54.7692V65.9833L37.4953 60.1909V48.9768L46.9948 43.2308ZM113.075 43.2308L122.852 48.9768V60.1909L113.075 65.937V54.7692L103.575 49.0232L113.075 43.2308ZM80.0347 43.2308L89.8123 48.9768L80.0347 54.7692L70.5352 48.9768L80.0347 43.2308ZM80.0347 24L106.17 39.2456L96.6705 44.9917L80.3127 35.2141L63.6306 44.9917L54.1774 39.2456L80.0347 24Z" fill="#F3BA2F"/>
</g>
<path d="M89.8123 107.04V118.254L80.0347 124L70.5352 118.254V107.04L80.0347 112.786L89.8123 107.04ZM37.4953 68.2539L46.9948 74V93.2308L63.3526 103.008V114.222L37.4953 98.9768V68.2539ZM122.528 68.2539V99.0232L96.3924 114.269V103.055L112.75 93.2771V74.0463L122.528 68.2539ZM96.3924 53.0083L106.17 58.7544V69.9685L89.8123 79.7461V99.3012L80.3127 105.047L70.8132 99.3012V79.7461L53.853 69.9685V58.7544L63.6306 53.0083L79.9883 62.7859L96.3924 53.0083ZM53.853 78.0315L63.3526 83.7776V94.9917L53.853 89.2456V78.0315ZM106.17 78.0315V89.2456L96.6705 94.9917V83.7776L106.17 78.0315ZM46.9948 43.2308L56.7724 48.9768L46.9948 54.7692V65.9833L37.4953 60.1909V48.9768L46.9948 43.2308ZM113.075 43.2308L122.852 48.9768V60.1909L113.075 65.937V54.7692L103.575 49.0232L113.075 43.2308ZM80.0347 43.2308L89.8123 48.9768L80.0347 54.7692L70.5352 48.9768L80.0347 43.2308ZM80.0347 24L106.17 39.2456L96.6705 44.9917L80.3127 35.2141L63.6306 44.9917L54.1774 39.2456L80.0347 24Z" fill="#F3BA2F"/>
<defs>
<filter id="filter0_f_97_199" x="13.4953" y="0" width="133.357" height="148" filterUnits="userSpaceOnUse" color-interpolation-filters="sRGB">
<feFlood flood-opacity="0" result="BackgroundImageFix"/>
<feBlend mode="normal" in="SourceGraphic" in2="BackgroundImageFix" result="shape"/>
<feGaussianBlur stdDeviation="12" result="effect1_foregroundBlur_97_199"/>
</filter>
</defs>
</svg>
