<svg width="161" height="148" viewBox="0 0 161 148" fill="none" xmlns="http://www.w3.org/2000/svg">
<g filter="url(#filter0_f_97_326)">
<path d="M108.574 85.3608C111.32 80.6167 115.752 80.6167 118.499 85.3608L135.603 115.386C138.349 120.13 136.102 124 130.609 124H96.1518C90.7211 124 88.4739 120.13 91.1581 115.386L108.574 85.3608ZM75.4902 27.5581C78.2367 22.814 82.6063 22.814 85.3528 27.5581L89.1606 34.4245L98.1493 50.2172C100.334 54.7116 100.334 60.0175 98.1493 64.5119L67.9995 116.759C65.253 121.004 60.6962 123.688 55.64 124H30.6088C25.1156 124 22.8684 120.192 25.615 115.386L75.4902 27.5581Z" fill="#E84142"/>
</g>
<path d="M108.574 85.3608C111.32 80.6167 115.752 80.6167 118.499 85.3608L135.603 115.386C138.349 120.13 136.102 124 130.609 124H96.1518C90.7211 124 88.4739 120.13 91.1581 115.386L108.574 85.3608ZM75.4902 27.5581C78.2367 22.814 82.6063 22.814 85.3528 27.5581L89.1606 34.4245L98.1493 50.2172C100.334 54.7116 100.334 60.0175 98.1493 64.5119L67.9995 116.759C65.253 121.004 60.6962 123.688 55.64 124H30.6088C25.1156 124 22.8684 120.192 25.615 115.386L75.4902 27.5581Z" fill="#E84142"/>
<defs>
<filter id="filter0_f_97_326" x="0.442795" y="0" width="160.332" height="148" filterUnits="userSpaceOnUse" color-interpolation-filters="sRGB">
<feFlood flood-opacity="0" result="BackgroundImageFix"/>
<feBlend mode="normal" in="SourceGraphic" in2="BackgroundImageFix" result="shape"/>
<feGaussianBlur stdDeviation="12" result="effect1_foregroundBlur_97_326"/>
</filter>
</defs>
</svg>
