<svg width="161" height="146" viewBox="0 0 161 146" fill="none" xmlns="http://www.w3.org/2000/svg">
<g filter="url(#filter0_f_97_346)">
<path fill-rule="evenodd" clip-rule="evenodd" d="M86.0767 57.3123L104.175 46.5109V68.1137L86.0767 57.3123ZM104.175 103.604L80.0438 118.006L55.9123 103.604V78.4007L80.0438 92.8026L104.175 78.4007V103.604ZM55.9123 46.5109L74.0109 57.3123L55.9123 68.1137V46.5109ZM83.0602 62.4558L101.159 73.2572L83.0602 84.0586V62.4558ZM77.0274 84.0586L58.9288 73.2572L77.0274 62.4558V84.0586ZM101.159 41.3674L80.0438 53.7118L58.9288 41.3674L80.0438 28.5086L101.159 41.3674ZM49.8795 39.31V106.69L80.0438 124.178L110.208 106.69V39.31L80.0438 21.822L49.8795 39.31Z" fill="#13B5EC"/>
</g>
<path fill-rule="evenodd" clip-rule="evenodd" d="M86.0767 57.3123L104.175 46.5109V68.1137L86.0767 57.3123ZM104.175 103.604L80.0438 118.006L55.9123 103.604V78.4007L80.0438 92.8026L104.175 78.4007V103.604ZM55.9123 46.5109L74.0109 57.3123L55.9123 68.1137V46.5109ZM83.0602 62.4558L101.159 73.2572L83.0602 84.0586V62.4558ZM77.0274 84.0586L58.9288 73.2572L77.0274 62.4558V84.0586ZM101.159 41.3674L80.0438 53.7118L58.9288 41.3674L80.0438 28.5086L101.159 41.3674ZM49.8795 39.31V106.69L80.0438 124.178L110.208 106.69V39.31L80.0438 21.822L49.8795 39.31Z" fill="#13B5EC"/>
<defs>
<filter id="filter0_f_97_346" x="29.8795" y="1.82202" width="100.329" height="142.356" filterUnits="userSpaceOnUse" color-interpolation-filters="sRGB">
<feFlood flood-opacity="0" result="BackgroundImageFix"/>
<feBlend mode="normal" in="SourceGraphic" in2="BackgroundImageFix" result="shape"/>
<feGaussianBlur stdDeviation="10" result="effect1_foregroundBlur_97_346"/>
</filter>
</defs>
</svg>
