<svg width="162" height="148" viewBox="0 0 162 148" fill="none" xmlns="http://www.w3.org/2000/svg">
<g filter="url(#filter0_f_97_336)">
<path d="M110.055 54.5638C107.978 53.3769 105.307 53.3769 102.933 54.5638L86.3159 64.3561L75.04 70.5875L58.7195 80.3798C56.6423 81.5668 53.9717 81.5668 51.5978 80.3798L38.8382 72.6647C36.761 71.4777 35.2773 69.1039 35.2773 66.4332V51.5964C35.2773 49.2226 36.4643 46.8487 38.8382 45.365L51.5978 37.9466C53.675 36.7596 56.3456 36.7596 58.7195 37.9466L71.4791 45.6617C73.5563 46.8487 75.04 49.2226 75.04 51.8932V61.6855L86.3159 55.1573V45.0682C86.3159 42.6944 85.129 40.3205 82.7551 38.8368L59.0162 24.8902C56.9391 23.7033 54.2684 23.7033 51.8945 24.8902L27.5622 39.1335C25.1883 40.3205 24.0014 42.6944 24.0014 45.0682V72.9614C24.0014 75.3353 25.1883 77.7092 27.5622 79.1929L51.5978 93.1395C53.675 94.3264 56.3456 94.3264 58.7195 93.1395L75.04 83.6439L86.3159 77.1157L102.636 67.6202C104.714 66.4332 107.384 66.4332 109.758 67.6202L122.518 75.0386C124.595 76.2255 126.079 78.5994 126.079 81.27V96.1068C126.079 98.4807 124.892 100.855 122.518 102.338L110.055 109.757C107.978 110.944 105.307 110.944 102.933 109.757L90.1735 102.338C88.0963 101.151 86.6127 98.7775 86.6127 96.1068V86.6113L75.3367 93.1395V102.932C75.3367 105.306 76.5236 107.68 78.8975 109.163L102.933 123.11C105.01 124.297 107.681 124.297 110.055 123.11L134.09 109.163C136.168 107.976 137.651 105.602 137.651 102.932V74.7418C137.651 72.368 136.464 69.9941 134.09 68.5104L110.055 54.5638Z" fill="url(#paint0_linear_97_336)"/>
</g>
<path d="M110.055 54.5638C107.978 53.3769 105.307 53.3769 102.933 54.5638L86.3159 64.3561L75.04 70.5875L58.7195 80.3798C56.6423 81.5668 53.9717 81.5668 51.5978 80.3798L38.8382 72.6647C36.761 71.4777 35.2773 69.1039 35.2773 66.4332V51.5964C35.2773 49.2226 36.4643 46.8487 38.8382 45.365L51.5978 37.9466C53.675 36.7596 56.3456 36.7596 58.7195 37.9466L71.4791 45.6617C73.5563 46.8487 75.04 49.2226 75.04 51.8932V61.6855L86.3159 55.1573V45.0682C86.3159 42.6944 85.129 40.3205 82.7551 38.8368L59.0162 24.8902C56.9391 23.7033 54.2684 23.7033 51.8945 24.8902L27.5622 39.1335C25.1883 40.3205 24.0014 42.6944 24.0014 45.0682V72.9614C24.0014 75.3353 25.1883 77.7092 27.5622 79.1929L51.5978 93.1395C53.675 94.3264 56.3456 94.3264 58.7195 93.1395L75.04 83.6439L86.3159 77.1157L102.636 67.6202C104.714 66.4332 107.384 66.4332 109.758 67.6202L122.518 75.0386C124.595 76.2255 126.079 78.5994 126.079 81.27V96.1068C126.079 98.4807 124.892 100.855 122.518 102.338L110.055 109.757C107.978 110.944 105.307 110.944 102.933 109.757L90.1735 102.338C88.0963 101.151 86.6127 98.7775 86.6127 96.1068V86.6113L75.3367 93.1395V102.932C75.3367 105.306 76.5236 107.68 78.8975 109.163L102.933 123.11C105.01 124.297 107.681 124.297 110.055 123.11L134.09 109.163C136.168 107.976 137.651 105.602 137.651 102.932V74.7418C137.651 72.368 136.464 69.9941 134.09 68.5104L110.055 54.5638Z" fill="url(#paint1_linear_97_336)"/>
<defs>
<filter id="filter0_f_97_336" x="0.00137329" y="0" width="161.65" height="148" filterUnits="userSpaceOnUse" color-interpolation-filters="sRGB">
<feFlood flood-opacity="0" result="BackgroundImageFix"/>
<feBlend mode="normal" in="SourceGraphic" in2="BackgroundImageFix" result="shape"/>
<feGaussianBlur stdDeviation="12" result="effect1_foregroundBlur_97_336"/>
</filter>
<linearGradient id="paint0_linear_97_336" x1="18.2521" y1="94.052" x2="147.632" y2="100.812" gradientUnits="userSpaceOnUse">
<stop stop-color="#3F81EF"/>
<stop offset="0.0001" stop-color="#5A13DA"/>
<stop offset="1" stop-color="#9B69FF"/>
</linearGradient>
<linearGradient id="paint1_linear_97_336" x1="18.2521" y1="94.052" x2="147.632" y2="100.812" gradientUnits="userSpaceOnUse">
<stop stop-color="#3F81EF"/>
<stop offset="0.0001" stop-color="#5A13DA"/>
<stop offset="1" stop-color="#9B69FF"/>
</linearGradient>
</defs>
</svg>
