<svg width="24" height="24" viewBox="0 0 24 24" fill="none" xmlns="http://www.w3.org/2000/svg">
<path d="M12.0788 23.9503C18.519 23.9503 23.7399 18.7294 23.7399 12.2891C23.7399 5.84881 18.519 0.62793 12.0788 0.62793C5.63848 0.62793 0.417603 5.84881 0.417603 12.2891C0.417603 18.7294 5.63848 23.9503 12.0788 23.9503Z" fill="url(#paint0_linear_336_478)"/>
<mask id="mask0_336_478" style="mask-type:alpha" maskUnits="userSpaceOnUse" x="0" y="0" width="24" height="24">
<path d="M12.0788 23.9503C18.519 23.9503 23.7399 18.7294 23.7399 12.2891C23.7399 5.84881 18.519 0.62793 12.0788 0.62793C5.63848 0.62793 0.417603 5.84881 0.417603 12.2891C0.417603 18.7294 5.63848 23.9503 12.0788 23.9503Z" fill="url(#paint1_linear_336_478)"/>
</mask>
<g mask="url(#mask0_336_478)">
<path d="M4.7251 26.9658C4.7251 26.9658 7.90721 17.4611 14.8967 13.223C20.8163 9.92968 19.788 6.51135 19.788 6.51135C19.788 6.51135 16.4253 10.3882 13.2848 10.1381C12.2982 10.0547 11.2283 10.7773 10.1583 12.0557C7.80994 14.8626 6.03129 21.3658 4.7251 26.9658Z" fill="white"/>
<path d="M9.9499 12.2087C11.0199 10.9303 12.2427 10.3605 13.2293 10.43C16.3697 10.6801 19.5796 6.65039 19.5796 6.65039C19.5796 6.65039 16.1057 11.4861 9.38017 9.79081C8.81045 9.8186 7.11518 9.99925 6.33702 12.2781C6.00353 12.6811 9.9499 12.2087 9.9499 12.2087Z" fill="white"/>
<path d="M9.57511 25.6736L4.68384 27.0909C4.68384 27.0909 7.54635 18.3089 14.1468 13.6399C14.1051 13.4454 20.4137 10.8886 19.7884 6.49757C19.9135 5.96953 21.5532 12.1114 13.5632 16.9193C9.6168 19.3094 9.57511 25.6736 9.57511 25.6736Z" fill="white"/>
<path d="M9.57496 25.6736C9.57496 25.6736 9.21367 19.5317 13.563 16.9332C13.563 16.9332 13.0489 19.9069 13.2017 21.3104C13.3963 23.1724 14.369 23.7421 14.369 23.7421L9.57496 25.6736Z" fill="white"/>
</g>
<defs>
<linearGradient id="paint0_linear_336_478" x1="0.417602" y1="12.2891" x2="23.7399" y2="12.2891" gradientUnits="userSpaceOnUse">
<stop stop-color="#DA4A52"/>
<stop offset="1" stop-color="#DF775A"/>
</linearGradient>
<linearGradient id="paint1_linear_336_478" x1="0.417602" y1="12.2891" x2="23.7399" y2="12.2891" gradientUnits="userSpaceOnUse">
<stop stop-color="#DA4A52"/>
<stop offset="1" stop-color="#DF775A"/>
</linearGradient>
</defs>
</svg>
