<svg width="53" height="51" viewBox="0 0 53 51" fill="none" xmlns="http://www.w3.org/2000/svg">
<path d="M52.467 25.3803C52.467 39.11 41.0617 50.2606 26.967 50.2606C12.8723 50.2606 1.46704 39.11 1.46704 25.3803C1.46704 11.6506 12.8723 0.5 26.967 0.5C41.0617 0.5 52.467 11.6506 52.467 25.3803Z" fill="black" stroke="#FF0000"/>
<g clip-path="url(#clip0_962_3571)">
<path fill-rule="evenodd" clip-rule="evenodd" d="M48.5067 24.0379C48.3983 17.9141 45.6111 12.1318 40.8454 8.18438C45.2067 12.8501 46.4415 19.5713 44.037 25.4532C45.5822 15.9155 39.5167 6.5272 30.2163 3.44043C34.5055 5.65949 37.6032 9.61397 38.7008 14.2655C39.7983 18.917 38.7802 23.8103 35.928 27.6723C37.9137 27.6296 39.7406 26.6197 40.8165 24.9625C38.0653 29.9198 37.4371 35.7591 39.0835 41.1645C39.004 37.0749 41.0259 33.2128 44.463 30.9155C44.3114 34.2157 43.2427 37.3949 41.3797 40.1545C46.0082 36.0436 48.6005 30.1759 48.5067 24.0379Z" fill="url(#paint0_linear_962_3571)"/>
<path fill-rule="evenodd" clip-rule="evenodd" d="M17.9263 37.9284C22.9881 43.7321 30.0934 47.4305 37.8197 48.2627C32.4402 45.56 28.3243 40.9369 26.3314 35.3253C28.5193 38.6965 31.7614 41.2499 35.5812 42.6226C33.1478 40.1475 31.4798 37.0322 30.7361 33.6681C33.3283 33.8317 35.5668 35.4889 36.4261 37.8928C36.0289 35.5244 35.2058 33.2556 33.9927 31.2072C33.1478 29.7776 32.1152 28.4405 30.9383 27.267C32.0936 27.523 33.155 28.0706 34.036 28.8601C33.4006 26.385 32.0503 24.1588 30.1656 22.4163C31.6026 22.4732 32.989 21.9469 34.036 20.9867C35.083 20.0123 35.6823 18.6752 35.7184 17.2741C35.3502 17.8786 34.9964 18.4761 34.4548 18.8815C33.7905 19.3651 32.8373 19.5642 31.9997 19.4291H31.9708C33.9638 18.1204 34.6859 15.5529 33.6388 13.4263C33.8266 14.7776 33.3428 16.129 32.3247 17.0465C31.3065 17.9711 29.8912 18.3409 28.5337 18.0351C27.9633 17.8502 27.3495 17.7008 26.743 17.6368C25.8476 17.5443 24.9233 17.6226 24.0568 17.8786C23.5152 18.0422 22.9953 18.2769 22.1 18.8815C20.237 18.6965 18.4751 19.7492 17.7819 21.4633C18.5112 20.9938 19.3633 20.7876 20.2009 20.8374C23.1398 20.5529 27.0751 21.6411 28.0499 26.0365C28.6204 28.6325 28.0499 31.0365 26.8946 33.1489C23.2842 39.7705 11.9042 38.1631 7.37671 33.0991C8.18544 34.8772 9.23246 36.513 10.4672 37.9711C14.0632 42.2243 19.2838 44.9981 25.0894 45.5102C21.71 44.0877 19.1033 41.3352 17.9263 37.9284Z" fill="url(#paint1_linear_962_3571)"/>
<path fill-rule="evenodd" clip-rule="evenodd" d="M28.0356 26.0221C27.068 21.6195 23.1327 20.5384 20.1866 20.8229C21.1036 20.8798 21.999 21.2355 22.6994 21.8756C24.1653 23.803 24.5046 26.2212 23.8259 28.3549C23.4287 29.5854 22.6994 30.7234 21.6524 31.6195C22.4684 32.032 23.3782 32.2739 24.288 32.3379C21.9268 33.5399 19.0313 33.0491 17.2405 31.1074C16.995 30.8514 16.7928 30.574 16.6123 30.2895C15.4064 28.419 15.3775 25.9865 16.6267 24.0591C13.4784 25.1828 11.4494 28.2056 11.6444 31.5057C11.1172 29.5996 11.0378 27.6508 11.3483 25.766C11.3916 25.51 11.4422 25.2611 11.4927 25.005C12.0776 22.3877 13.464 19.941 15.5364 18.042C18.4825 15.6238 20.6126 12.3592 21.6308 8.71056C19.5151 11.8613 16.3379 14.1586 12.6553 15.2326C14.3522 9.20132 19.2984 4.5925 25.4867 3.25537C14.8432 3.97372 6.28651 12.3308 5.52832 22.8998C6.43814 20.9723 8.10615 19.5214 10.1569 18.8599C8.47442 20.5811 7.31908 22.6793 6.74864 24.9268C6.44536 26.1217 6.31539 27.3521 6.35149 28.5897C6.3876 29.7063 6.5609 30.8301 6.87861 31.9254C7.03025 32.3094 7.18911 32.6935 7.36241 33.0705C12.6047 39.877 23.2627 39.7419 26.8803 33.1202C28.0356 31.0221 28.6061 28.6181 28.0356 26.0221Z" fill="url(#paint2_linear_962_3571)"/>
<path fill-rule="evenodd" clip-rule="evenodd" d="M24.1436 18.9095C24.1436 18.9095 25.0389 18.4685 26.5264 18.6108C26.5264 18.6108 26.3098 20.524 24.1436 18.9095Z" fill="black"/>
</g>
<defs>
<linearGradient id="paint0_linear_962_3571" x1="39.3607" y1="14.8993" x2="39.3607" y2="42.2135" gradientUnits="userSpaceOnUse">
<stop stop-color="#FEC52B"/>
<stop offset="0.5818" stop-color="#D92D38"/>
<stop offset="0.9939" stop-color="#A3222A"/>
</linearGradient>
<linearGradient id="paint1_linear_962_3571" x1="20.2977" y1="23.261" x2="34.0199" y2="43.5118" gradientUnits="userSpaceOnUse">
<stop stop-color="#FEC52B"/>
<stop offset="0.5818" stop-color="#D92D38"/>
<stop offset="0.9939" stop-color="#A3222A"/>
</linearGradient>
<linearGradient id="paint2_linear_962_3571" x1="12.0553" y1="39.773" x2="22.7346" y2="6.676" gradientUnits="userSpaceOnUse">
<stop stop-color="#FEC52B"/>
<stop offset="0.5818" stop-color="#D92D38"/>
<stop offset="0.9939" stop-color="#A3222A"/>
</linearGradient>
<clipPath id="clip0_962_3571">
<rect width="43" height="45" fill="white" transform="translate(5.50659 3.25537)"/>
</clipPath>
</defs>
</svg>
