<svg width="22" height="19" viewBox="0 0 22 19" fill="none" xmlns="http://www.w3.org/2000/svg">
<path d="M12.3591 8.56162C14.4941 8.56162 16.1621 10.2142 16.151 12.3373C16.1398 14.4496 14.4719 16.0693 12.3035 16.0583C10.1462 16.0474 8.45605 14.4058 8.45605 12.3154C8.45605 10.2251 10.3353 8.38651 12.3591 8.56162Z" fill="url(#paint0_linear_507_319)"/>
<path d="M0.983398 7.48169C1.97306 4.13155 5.98732 0.683164 11.4583 0.791233C16.7846 0.899302 21.2437 4.41646 21.9109 9.06343C22.6337 14.1623 18.8752 17.8072 15.6727 18.9174C20.81 16.5398 22.1778 11.6866 21.0769 8.19887C19.8982 4.43611 16.2064 1.69509 11.8363 1.36106C7.16601 1.00738 2.68473 3.41437 0.983398 7.48169Z" fill="url(#paint1_linear_507_319)"/>
<path d="M18.4422 4.93719C14.2278 2.94282 10.1802 2.76599 6.46617 5.51683C3.05239 8.04172 2.22953 11.3329 3.45271 15.0858C1.99601 12.3841 2.24064 7.70769 6.59961 4.80947C10.4693 2.23547 15.5622 2.80528 18.4422 4.93719Z" fill="url(#paint2_linear_507_319)"/>
<defs>
<linearGradient id="paint0_linear_507_319" x1="8.45304" y1="12.3027" x2="16.1503" y2="12.3027" gradientUnits="userSpaceOnUse">
<stop stop-color="#F0A321"/>
<stop offset="1" stop-color="#F0582E"/>
</linearGradient>
<linearGradient id="paint1_linear_507_319" x1="0.982431" y1="9.85249" x2="21.9924" y2="9.85249" gradientUnits="userSpaceOnUse">
<stop stop-color="#FBB040"/>
<stop offset="0.9985" stop-color="#F9ED32"/>
</linearGradient>
<linearGradient id="paint2_linear_507_319" x1="2.66242" y1="9.08682" x2="18.4464" y2="9.08682" gradientUnits="userSpaceOnUse">
<stop stop-color="#FBB040"/>
<stop offset="0.9985" stop-color="#F9ED32"/>
</linearGradient>
</defs>
</svg>
