<svg width="25" height="25" viewBox="0 0 25 25" fill="none" xmlns="http://www.w3.org/2000/svg">
<path d="M12.5646 22.2883C18.0706 22.2883 22.5341 17.7584 22.5341 12.1706C22.5341 6.5828 18.0706 2.05298 12.5646 2.05298C7.05851 2.05298 2.59497 6.5828 2.59497 12.1706C2.59497 17.7584 7.05851 22.2883 12.5646 22.2883Z" fill="white"/>
<path fill-rule="evenodd" clip-rule="evenodd" d="M12.5646 0.170654C19.0951 0.170654 24.389 5.54322 24.389 12.1707C24.389 18.7981 19.0951 24.1707 12.5646 24.1707C6.03417 24.1707 0.740234 18.7981 0.740234 12.1707C0.740234 5.54322 6.03417 0.170654 12.5646 0.170654ZM15.2664 3.72096C14.9997 3.63451 14.7817 3.79512 14.7817 4.07922V4.7779C14.7817 4.9684 14.9232 5.1852 15.0994 5.25075C17.9296 6.30275 19.9549 9.0635 19.9549 12.2957C19.9549 15.5278 17.9296 18.2885 15.0994 19.3406C14.9061 19.4124 14.7817 19.6045 14.7817 19.8135V20.5121C14.7817 20.7962 14.9997 20.9568 15.2664 20.8704C18.843 19.7107 21.4329 16.3101 21.4329 12.2957C21.4329 8.28119 18.843 4.88068 15.2664 3.72096ZM10.3476 4.07922C10.3476 3.79512 10.1295 3.63451 9.86291 3.72096C6.28624 4.88068 3.69633 8.28119 3.69633 12.2957C3.69633 16.3101 6.28624 19.7107 9.86291 20.8704C10.1295 20.9568 10.3476 20.7962 10.3476 20.5121V19.8135C10.3476 19.6229 10.2061 19.4061 10.0298 19.3406C7.19969 18.2885 5.17438 15.5278 5.17438 12.2957C5.17438 9.0635 7.19969 6.30275 10.0298 5.25075C10.2061 5.1852 10.3476 4.9684 10.3476 4.7779V4.07922ZM12.9341 6.29569H12.1951C11.9911 6.29569 11.8256 6.46355 11.8256 6.67065V7.83244C10.3606 8.04383 9.41344 9.03329 9.41344 10.3027C9.41344 11.9457 10.3922 12.5833 12.458 12.8654C13.8595 13.0984 14.2584 13.4047 14.2584 14.2141C14.2584 15.0233 13.5815 15.5628 12.6274 15.5628C11.3372 15.5628 10.9126 14.9899 10.756 14.2483C10.7189 14.0726 10.5707 13.9442 10.3936 13.9442H9.5507C9.33837 13.9442 9.17237 14.1383 9.20886 14.3506C9.42351 15.5988 10.2134 16.5147 11.8256 16.7366V17.9207C11.8256 18.1278 11.9911 18.2957 12.1951 18.2957H12.9341C13.1382 18.2957 13.3037 18.1278 13.3037 17.9207V16.736C14.8298 16.49 15.8049 15.4118 15.8049 14.0792C15.8049 12.3259 14.7537 11.7372 12.7238 11.4553C11.2256 11.2346 10.9359 10.8789 10.9359 10.1677C10.9359 9.49348 11.4432 9.01508 12.4219 9.01508C13.3071 9.01508 13.8162 9.32863 14.0266 10.0516C14.0735 10.213 14.2158 10.3271 14.3816 10.3271H15.1589C15.3757 10.3271 15.5444 10.1249 15.4981 9.90995C15.252 8.76736 14.4932 8.08171 13.3037 7.86543V6.67065C13.3037 6.46355 13.1382 6.29569 12.9341 6.29569Z" fill="#2775CA"/>
</svg>
