<svg width="46" height="44" viewBox="0 0 46 44" fill="none" xmlns="http://www.w3.org/2000/svg">
<path d="M21.5394 27.4464C21.8602 27.7671 22.3803 27.767 22.7009 27.4464C23.0218 27.1256 23.0218 26.6056 22.7008 26.2847L19.5446 23.1286L28.6843 23.1278C29.1379 23.1277 29.5055 22.76 29.5055 22.3062C29.5054 21.8526 29.1378 21.4851 28.6842 21.4851L19.5442 21.4859L22.7011 18.3292C23.0219 18.0084 23.0219 17.4883 22.7011 17.1676C22.5407 17.0073 22.3305 16.927 22.1203 16.927C21.9101 16.927 21.7 17.0073 21.5395 17.1675L16.9806 21.7263C16.8265 21.8803 16.74 22.0891 16.74 22.3071C16.7401 22.525 16.8266 22.7337 16.9807 22.888L21.5394 27.4464Z" fill="white"/>
</svg>
