<svg width="46" height="43" viewBox="0 0 46 43" fill="none" xmlns="http://www.w3.org/2000/svg">
<path d="M21.2994 26.5194C21.6202 26.8401 22.1403 26.84 22.4609 26.5194C22.7818 26.1986 22.7818 25.6786 22.4608 25.3577L19.3046 22.2016L28.4443 22.2008C28.8979 22.2007 29.2656 21.833 29.2656 21.3792C29.2654 20.9256 28.8978 20.5581 28.4442 20.5581L19.3042 20.5589L22.4612 17.4022C22.7819 17.0814 22.7819 16.5613 22.4612 16.2406C22.3007 16.0803 22.0906 16 21.8803 16C21.6701 16 21.46 16.0803 21.2995 16.2405L16.7406 20.7993C16.5865 20.9533 16.5 21.1621 16.5 21.3801C16.5001 21.598 16.5866 21.8067 16.7407 21.961L21.2994 26.5194Z" fill="white"/>
</svg>
