<svg width="24" height="25" viewBox="0 0 24 25" fill="none" xmlns="http://www.w3.org/2000/svg">
<g clip-path="url(#clip0_379_8557)">
<path d="M14.5781 24.5833H5.625C3.55719 24.5833 1.875 22.9011 1.875 20.8333V8.13019C1.875 6.06238 3.55719 4.38019 5.625 4.38019H14.5781C16.6459 4.38019 18.3281 6.06238 18.3281 8.13019V20.8333C18.3281 22.9011 16.6459 24.5833 14.5781 24.5833ZM5.625 6.25519C4.59119 6.25519 3.75 7.09637 3.75 8.13019V20.8333C3.75 21.8671 4.59119 22.7083 5.625 22.7083H14.5781C15.6119 22.7083 16.4531 21.8671 16.4531 20.8333V8.13019C16.4531 7.09637 15.6119 6.25519 14.5781 6.25519H5.625ZM22.0781 18.4896V4.33331C22.0781 2.2655 20.3959 0.583313 18.3281 0.583313H7.92188C7.40405 0.583313 6.98438 1.00299 6.98438 1.52081C6.98438 2.03864 7.40405 2.45831 7.92188 2.45831H18.3281C19.3619 2.45831 20.2031 3.2995 20.2031 4.33331V18.4896C20.2031 19.0074 20.6228 19.4271 21.1406 19.4271C21.6584 19.4271 22.0781 19.0074 22.0781 18.4896Z" fill="url(#paint0_linear_379_8557)"/>
</g>
<defs>
<linearGradient id="paint0_linear_379_8557" x1="1.875" y1="12.5834" x2="22.0781" y2="12.5834" gradientUnits="userSpaceOnUse">
<stop stop-color="#DA4A52"/>
<stop offset="1" stop-color="#DF775A"/>
</linearGradient>
<clipPath id="clip0_379_8557">
<rect width="24" height="24" fill="white" transform="translate(0 0.583313)"/>
</clipPath>
</defs>
</svg>
