<svg width="54" height="52" viewBox="0 0 54 52" fill="none" xmlns="http://www.w3.org/2000/svg">
<path d="M52.9638 12.0104C52.9601 11.9884 52.9609 11.9653 52.9551 11.9438C52.9391 11.8845 52.9153 11.8276 52.8843 11.7744C52.874 11.7561 52.8583 11.7414 52.8459 11.7244C52.8236 11.6901 52.7985 11.6577 52.7706 11.6277C52.7536 11.6106 52.7321 11.5989 52.7135 11.5834C52.6858 11.5584 52.6562 11.5356 52.6249 11.5152L52.6195 11.5131L52.615 11.5099L46.5652 8.10673C46.4556 8.04512 46.3315 8.01271 46.2052 8.01271C46.0789 8.01271 45.9548 8.04512 45.8452 8.10673L39.7922 11.5095L39.7876 11.5127L39.7822 11.5148C39.7508 11.5353 39.721 11.5583 39.6933 11.5834C39.6746 11.5984 39.6519 11.6106 39.6366 11.6273C39.6083 11.6577 39.5829 11.6904 39.5604 11.7252C39.5484 11.7423 39.5331 11.7565 39.5228 11.7744C39.4919 11.8276 39.4681 11.8845 39.452 11.9438C39.4462 11.9645 39.4471 11.9868 39.4433 12.0079C39.4347 12.0468 39.4294 12.0864 39.4276 12.1262V13.5744L34.044 10.2643C34.0518 10.2287 34.0568 10.1926 34.0589 10.1563V4.21445C34.057 4.17535 34.0517 4.13649 34.0432 4.09826C34.0395 4.07632 34.0403 4.05316 34.0345 4.03163C34.0184 3.97255 33.9946 3.91574 33.9637 3.86263C33.9493 3.84152 33.9337 3.82118 33.917 3.8017C33.897 3.77149 33.8748 3.74284 33.8504 3.71598C33.8286 3.69706 33.8056 3.67943 33.7817 3.66317C33.7572 3.64151 33.7312 3.62156 33.7039 3.60345H33.6998L33.6969 3.59735L27.6434 0.194603C27.5338 0.132996 27.4097 0.100586 27.2834 0.100586C27.1571 0.100586 27.033 0.132996 26.9234 0.194603L20.8699 3.59735L20.8649 3.60101H20.8608C20.8333 3.61924 20.8072 3.63933 20.7826 3.66113C20.7588 3.67727 20.736 3.69477 20.7143 3.71354C20.6896 3.74076 20.667 3.76983 20.6469 3.80048C20.6305 3.81959 20.6152 3.83952 20.6009 3.8602C20.57 3.91343 20.5462 3.97037 20.5302 4.0296C20.5244 4.05032 20.5252 4.07266 20.5215 4.09379C20.5128 4.13268 20.5076 4.17223 20.5058 4.21201V10.1563C20.5078 10.1927 20.5128 10.229 20.5207 10.2647L15.1383 13.5744V12.1266C15.1364 12.0875 15.1311 12.0486 15.1226 12.0104C15.1189 11.9884 15.1197 11.9653 15.1139 11.9438C15.0978 11.8845 15.0741 11.8276 15.0431 11.7744C15.0328 11.7561 15.0171 11.7414 15.0047 11.7244C14.9824 11.6901 14.9572 11.6577 14.9294 11.6277C14.9124 11.6106 14.8909 11.5989 14.8723 11.5834C14.8446 11.5584 14.815 11.5356 14.7837 11.5152L14.7783 11.5131L14.7738 11.5099L8.72317 8.10673C8.61357 8.04512 8.48947 8.01271 8.36319 8.01271C8.2369 8.01271 8.1128 8.04512 8.0032 8.10673L1.95136 11.5095L1.94681 11.5127L1.94143 11.5148C1.90997 11.5353 1.88022 11.5583 1.85246 11.5834C1.83385 11.5984 1.81109 11.6106 1.79578 11.6273C1.76754 11.6577 1.74206 11.6904 1.71964 11.7252C1.70764 11.7423 1.69233 11.7565 1.68199 11.7744C1.65108 11.8276 1.6273 11.8845 1.61124 11.9438C1.60544 11.9645 1.60627 11.9868 1.60255 12.0079C1.59388 12.0468 1.58862 12.0864 1.58682 12.1262V18.068C1.58681 18.1956 1.6218 18.3209 1.68812 18.4307C1.75445 18.5405 1.84967 18.6308 1.96377 18.692L7.63867 21.7344V29.8748L1.95136 33.0728L1.94681 33.0761L1.94143 33.0781C1.90997 33.0986 1.88022 33.1216 1.85246 33.1468C1.83385 33.1618 1.81109 33.174 1.79578 33.1906C1.76754 33.221 1.74206 33.2538 1.71964 33.2885C1.70764 33.3056 1.69233 33.3198 1.68199 33.3377C1.65108 33.3909 1.6273 33.4479 1.61124 33.5071C1.60544 33.5278 1.60627 33.5502 1.60255 33.5713C1.59388 33.6102 1.58862 33.6497 1.58682 33.6895V39.6313C1.58689 39.7591 1.622 39.8844 1.68848 39.9942C1.75496 40.104 1.85034 40.1942 1.9646 40.2553L8.01603 43.4984C8.05005 43.5147 8.08533 43.5283 8.12154 43.539C8.14099 43.5459 8.1592 43.5561 8.17906 43.561C8.29948 43.5932 8.42648 43.5932 8.5469 43.561C8.56676 43.5557 8.58497 43.5455 8.60442 43.539C8.64063 43.5283 8.67591 43.5147 8.70993 43.4984L13.8482 40.7444L20.5099 45.099V48.0456C20.5099 48.1732 20.5449 48.2985 20.6112 48.4083C20.6775 48.5181 20.7728 48.6084 20.8869 48.6696L26.9383 51.9127C26.9723 51.9289 27.0076 51.9425 27.0438 51.9533C27.0632 51.9602 27.0815 51.9703 27.1013 51.9752C27.2217 52.0074 27.3487 52.0074 27.4692 51.9752C27.489 51.9699 27.5072 51.9598 27.5267 51.9533C27.5629 51.9425 27.5982 51.9289 27.6322 51.9127L33.682 48.6688C33.7961 48.6076 33.8913 48.5173 33.9576 48.4075C34.0239 48.2977 34.0589 48.1724 34.0589 48.0448V45.0982L40.7207 40.7436L45.8589 43.4976C45.8929 43.5139 45.9282 43.5274 45.9644 43.5382C45.9839 43.5451 46.0021 43.5553 46.0219 43.5602C46.1423 43.5924 46.2693 43.5924 46.3898 43.5602C46.4096 43.5549 46.4278 43.5447 46.4473 43.5382C46.4835 43.5274 46.5188 43.5139 46.5528 43.4976L52.6022 40.2553C52.7163 40.1941 52.8115 40.1039 52.8778 39.9941C52.9441 39.8843 52.9791 39.759 52.9791 39.6313V33.6899C52.9772 33.6508 52.9719 33.6119 52.9634 33.5737C52.9597 33.5518 52.9605 33.5286 52.9547 33.5071C52.9386 33.4479 52.9149 33.3909 52.8839 33.3377C52.8736 33.3194 52.8579 33.3048 52.8455 33.2877C52.8232 33.2534 52.798 33.2211 52.7701 33.191C52.7532 33.174 52.7317 33.1622 52.713 33.1468C52.6854 33.1217 52.6558 33.0989 52.6245 33.0785L52.6191 33.0765L52.6146 33.0732L46.9273 29.8752V21.7344L52.6017 18.6932C52.7158 18.632 52.8111 18.5418 52.8774 18.432C52.9437 18.3222 52.9787 18.1969 52.9787 18.0692V12.1266C52.977 12.0875 52.9721 12.0486 52.9638 12.0104ZM31.6661 42.1887L27.2834 44.5376L22.9007 42.1887L22.7153 42.0891L27.2834 39.5208L31.8514 42.0875L31.6661 42.1887ZM13.6901 17.6463L9.08687 20.113V15.7918L13.6901 13.325V17.6463ZM8.36277 31.1062L12.9308 33.6745L12.7455 33.774L8.36277 36.1229L3.98009 33.774L3.79472 33.6745L8.36277 31.1062ZM14.3534 32.836L9.08687 29.8744V21.7344L13.8842 19.1632L20.5078 23.3947V28.5817L14.3534 32.836ZM21.956 9.73417V5.41288L26.5593 7.88126V12.2013L21.956 9.73417ZM32.6107 9.73417L28.0075 12.2013V7.88126L32.6107 5.4137V9.73417ZM27.2834 20.4254L31.8514 22.9938L31.6661 23.0933L27.2834 25.4422L22.9007 23.0933L22.7153 22.9938L27.2834 20.4254ZM21.956 24.2072L26.5593 26.6744V30.9969L21.956 28.5289V24.2072ZM28.0075 26.6744L32.6107 24.2072V28.5289L28.0075 30.9969V26.6744ZM34.0589 23.3947L40.6826 19.162L45.4799 21.7344V29.8748L40.2134 32.8364L34.0589 28.5817V23.3947ZM45.479 15.7918V20.113L40.8766 17.6463V13.325L45.479 15.7918ZM40.8766 39.2096V34.8879L45.4799 37.3551V41.6764L40.8766 39.2096ZM50.5867 33.774L46.204 36.1229L41.8209 33.774L41.6355 33.6745L46.2036 31.1062L50.7716 33.6745L50.5867 33.774ZM46.204 9.54282L50.772 12.1111L50.5867 12.2107L46.204 14.5596L41.8209 12.2107L41.6355 12.1111L46.204 9.54282ZM39.4537 18.2504L33.3108 22.176L28.0075 19.1941V13.8214L32.8652 11.2174L39.428 15.2523V18.0676C39.4284 18.1293 39.4371 18.1908 39.4537 18.2504ZM27.2834 1.6311L31.851 4.19982L27.4836 6.54063L27.2834 6.64788L27.0831 6.54063L22.7157 4.19942L27.2834 1.6311ZM21.7016 11.2186L26.5593 13.8227V19.1941L21.2559 22.176L15.1131 18.2504C15.1296 18.1908 15.138 18.1293 15.1383 18.0676V15.2523L21.7016 11.2186ZM8.36277 9.54282L12.9308 12.1111L12.7455 12.2107L8.36277 14.5596L3.98009 12.2107L3.79472 12.1111L8.36277 9.54282ZM3.03627 13.325L7.6395 15.7922V20.113L3.03627 17.6463V13.325ZM3.03627 34.8883L7.6395 37.3555V41.6768L3.03627 39.2096V34.8883ZM9.0877 37.3555L13.6909 34.8883V39.2096L9.0877 41.6764V37.3555ZM15.0982 39.8531C15.1241 39.7817 15.138 39.7067 15.1395 39.6309V34.0328L21.2804 29.7867L26.5593 32.6158V38.2895L20.8699 41.4875L20.8653 41.4907L20.86 41.4928C20.8285 41.5133 20.7988 41.5362 20.771 41.5614C20.7524 41.5764 20.7296 41.5886 20.7143 41.6053C20.6861 41.6357 20.6606 41.6684 20.6382 41.7032C20.6262 41.7203 20.6109 41.7345 20.6005 41.7523C20.5696 41.8056 20.5458 41.8625 20.5298 41.9218C20.524 41.9425 20.5248 41.9648 20.5211 41.9859C20.5124 42.0248 20.5072 42.0644 20.5054 42.1042V43.3903L15.0982 39.8531ZM21.956 44.7147V43.3022L26.5593 45.7693V50.0906L21.956 47.6239V44.7147ZM28.0075 50.0906V45.7698L32.6107 43.3026V47.6243L28.0075 50.0906ZM34.0589 42.1042C34.057 42.0651 34.0517 42.0262 34.0432 41.988C34.0395 41.966 34.0403 41.9429 34.0345 41.9213C34.0185 41.8621 33.9947 41.8052 33.9637 41.7519C33.9534 41.7337 33.9377 41.719 33.9253 41.702C33.903 41.6677 33.8778 41.6353 33.85 41.6053C33.833 41.5882 33.8115 41.5764 33.7929 41.561C33.7652 41.536 33.7356 41.5132 33.7043 41.4928L33.6989 41.4907L33.6944 41.4875L28.0075 38.2895V32.6158L33.2864 29.7867L39.4284 34.0328V39.6313C39.43 39.7071 39.4439 39.7821 39.4698 39.8535L34.0602 43.3908L34.0589 42.1042ZM46.9273 41.676V37.3551L51.5305 34.8879V39.2096L46.9273 41.676ZM46.9273 20.1126V15.7918L51.5305 13.325V17.6463L46.9273 20.1126Z" fill="url(#paint0_linear_64_3)"/>
<defs>
<linearGradient id="paint0_linear_64_3" x1="55.1429" y1="47.2251" x2="42.739" y2="-3.54697" gradientUnits="userSpaceOnUse">
<stop stop-color="#FBB040"/>
<stop offset="0.9985" stop-color="#F9ED32"/>
</linearGradient>
</defs>
</svg>
