<svg width="43" height="43" viewBox="0 0 43 43" fill="none" xmlns="http://www.w3.org/2000/svg">
<g clip-path="url(#clip0_78_5686)">
<path d="M29.7576 13.4659C28.2279 12.7641 26.5875 12.2469 24.8724 11.9507C24.8412 11.945 24.81 11.9593 24.7939 11.9879C24.5829 12.3631 24.3493 12.8526 24.1856 13.2373C22.3409 12.9611 20.5057 12.9611 18.6989 13.2373C18.5352 12.844 18.293 12.3631 18.0811 11.9879C18.065 11.9603 18.0338 11.946 18.0026 11.9507C16.2884 12.246 14.6481 12.7631 13.1174 13.4659C13.1042 13.4716 13.0928 13.4812 13.0853 13.4935C9.97392 18.1419 9.12154 22.676 9.53967 27.1539C9.54154 27.1758 9.55387 27.1967 9.57089 27.2101C11.6237 28.7176 13.6122 29.6328 15.5638 30.2395C15.595 30.249 15.6281 30.2376 15.6479 30.2119C16.1096 29.5815 16.5211 28.9167 16.8739 28.2177C16.8947 28.1768 16.8749 28.1281 16.8323 28.112C16.1796 27.8644 15.558 27.5625 14.9602 27.2197C14.9129 27.192 14.9091 27.1244 14.9526 27.092C15.0784 26.9978 15.2043 26.8996 15.3244 26.8006C15.3462 26.7825 15.3764 26.7787 15.402 26.7901C19.3297 28.5834 23.582 28.5834 27.4634 26.7901C27.4889 26.7777 27.5192 26.7816 27.5419 26.7996C27.6621 26.8987 27.7879 26.9977 27.9147 27.092C27.9582 27.1244 27.9553 27.192 27.9081 27.2196C27.3102 27.5691 26.6887 27.8643 26.035 28.111C25.9924 28.1272 25.9735 28.1767 25.9943 28.2176C26.3548 28.9157 26.7663 29.5804 27.2194 30.2109C27.2383 30.2376 27.2723 30.249 27.3036 30.2394C29.2646 29.6328 31.2531 28.7176 33.3059 27.21C33.3239 27.1967 33.3352 27.1767 33.3371 27.1548C33.8376 21.9779 32.4989 17.481 29.7887 13.4945C29.7821 13.4812 29.7708 13.4716 29.7576 13.4659ZM17.4606 24.4273C16.278 24.4273 15.3037 23.3417 15.3037 22.0084C15.3037 20.6751 16.2591 19.5894 17.4606 19.5894C18.6714 19.5894 19.6364 20.6846 19.6174 22.0084C19.6174 23.3417 18.6619 24.4273 17.4606 24.4273ZM25.4353 24.4273C24.2528 24.4273 23.2784 23.3417 23.2784 22.0084C23.2784 20.6751 24.2339 19.5894 25.4353 19.5894C26.6461 19.5894 27.6111 20.6846 27.5922 22.0084C27.5922 23.3417 26.6462 24.4273 25.4353 24.4273Z" fill="url(#paint0_linear_78_5686)"/>
</g>
<defs>
<linearGradient id="paint0_linear_78_5686" x1="34.451" y1="28.56" x2="31.069" y2="10.2193" gradientUnits="userSpaceOnUse">
<stop stop-color="#FBB040"/>
<stop offset="0.9985" stop-color="#F9ED32"/>
</linearGradient>
<clipPath id="clip0_78_5686">
<rect width="24" height="24" fill="white" transform="translate(9.44055 9.09613)"/>
</clipPath>
</defs>
</svg>
