<svg width="27" height="27" viewBox="0 0 27 27" fill="none" xmlns="http://www.w3.org/2000/svg">
<g clip-path="url(#clip0_379_8615)">
<path d="M19.9017 19.9588H6.43196C6.01934 19.9588 5.68447 19.624 5.68447 19.2114V7.22744C5.68447 6.81481 6.01937 6.47995 6.43196 6.47995H10.1596C10.5729 6.47995 10.9071 6.14582 10.9071 5.73246C10.9071 5.31909 10.5729 4.98489 10.1596 4.98489H6.43196C5.19559 4.98489 4.18945 5.99107 4.18945 7.22744V19.2113C4.18945 20.4477 5.19559 21.4538 6.43196 21.4538H19.9017C20.3151 21.4538 20.6492 21.1197 20.6492 20.7063C20.6492 20.293 20.3151 19.9588 19.9017 19.9588Z" fill="url(#paint0_linear_379_8615)"/>
<path d="M19.8952 5.11493L13.5101 5.15722C13.0978 5.15933 12.7654 5.49709 12.768 5.9099C12.7706 6.32271 13.1073 6.65518 13.5207 6.652L18.0838 6.62187L7.51141 17.2096C7.21911 17.5019 7.21911 17.9745 7.51141 18.2668C7.8037 18.5591 8.27625 18.5591 8.56855 18.2668L19.1409 7.67901L19.1108 12.2421C19.1076 12.6555 19.4406 12.9916 19.8529 12.9948C20.0611 12.9959 20.2504 12.9123 20.3867 12.776C20.521 12.6417 20.6045 12.4567 20.6056 12.2527L20.6478 5.86757C20.6489 5.66778 20.5707 5.47537 20.429 5.33372C20.2874 5.19212 20.0961 5.11389 19.8952 5.11493Z" fill="url(#paint1_linear_379_8615)"/>
</g>
<defs>
<linearGradient id="paint0_linear_379_8615" x1="4.18945" y1="13.2194" x2="20.6492" y2="13.2194" gradientUnits="userSpaceOnUse">
<stop stop-color="#DA4A52"/>
<stop offset="1" stop-color="#DF775A"/>
</linearGradient>
<linearGradient id="paint1_linear_379_8615" x1="7.50366" y1="18.2592" x2="20.4291" y2="5.33379" gradientUnits="userSpaceOnUse">
<stop stop-color="#DA4A52"/>
<stop offset="1" stop-color="#DF775A"/>
</linearGradient>
<clipPath id="clip0_379_8615">
<rect width="18" height="18" fill="white" transform="translate(4.18945 4.95502)"/>
</clipPath>
</defs>
</svg>
