<svg width="53" height="53" viewBox="0 0 53 53" fill="none" xmlns="http://www.w3.org/2000/svg">
<g clip-path="url(#clip0_64_27)">
<path d="M11.9077 23.2883L11.5917 23.1303L11.3373 23.3754C10.6028 24.0829 9.61271 24.5205 8.52063 24.5205C6.27675 24.5205 4.45032 22.6941 4.45032 20.4502C4.45032 18.2063 6.27675 16.3799 8.52063 16.3799C10.7645 16.3799 12.5909 18.2063 12.5909 20.4502C12.5909 20.5568 12.5782 20.6495 12.5609 20.7753C12.5541 20.825 12.5465 20.8799 12.5387 20.9429L12.4956 21.2934L12.8114 21.4513L17.321 23.7059L17.637 23.8639L17.8915 23.6187C18.626 22.9112 19.6161 22.4736 20.7081 22.4736C21.3279 22.4736 21.913 22.6258 22.4501 22.8828L22.7693 23.0356L23.0195 22.7854L29.1371 16.6679L29.3873 16.4176L29.2345 16.0984C28.9774 15.5614 28.8253 14.9762 28.8253 14.3564C28.8253 12.1126 30.6518 10.2861 32.8956 10.2861C33.7281 10.2861 34.5013 10.5389 35.1479 10.9708L35.4423 11.1674L35.7255 10.955L41.0409 6.96949L41.3238 6.75737L41.2181 6.41994C41.093 6.02078 41.0128 5.62434 41.0128 5.21582C41.0128 2.97194 42.8393 1.14551 45.0831 1.14551C47.327 1.14551 49.1534 2.97194 49.1534 5.21582C49.1534 7.4597 47.327 9.28613 45.0831 9.28613C44.2507 9.28613 43.4775 9.03335 42.8309 8.60149L42.5365 8.40484L42.2532 8.61724L36.9379 12.6028L36.655 12.8149L36.7607 13.1523C36.8858 13.5515 36.9659 13.9479 36.9659 14.3564C36.9659 16.6003 35.1395 18.4268 32.8956 18.4268C32.2759 18.4268 31.6907 18.2746 31.1537 18.0175L30.8345 17.8647L30.5842 18.115L24.4667 24.2325L24.2164 24.4828L24.3692 24.802C24.6263 25.339 24.7784 25.9242 24.7784 26.5439C24.7784 28.7878 22.952 30.6143 20.7081 30.6143C18.4643 30.6143 16.6378 28.7878 16.6378 26.5439C16.6378 26.4373 16.6506 26.3446 16.6679 26.2189C16.6747 26.1691 16.6823 26.1142 16.69 26.0512L16.7332 25.7008L16.4173 25.5429L11.9077 23.2883Z" stroke="url(#paint0_linear_64_27)"/>
<path d="M49.1534 49.5986V50.0986H49.6534H51.2784C51.8442 50.0986 52.3019 50.5564 52.3019 51.1221C52.3019 51.6878 51.8442 52.1455 51.2784 52.1455H2.32532C1.7596 52.1455 1.30188 51.6878 1.30188 51.1221C1.30188 50.5564 1.7596 50.0986 2.32532 50.0986H3.95032H4.45032V49.5986V32.6377C4.45032 32.072 4.90804 31.6143 5.47375 31.6143H11.5675C12.1332 31.6143 12.5909 32.072 12.5909 32.6377V49.5986V50.0986H13.0909H16.1378H16.6378V49.5986V38.7314C16.6378 38.1657 17.0955 37.708 17.6613 37.708H23.755C24.3207 37.708 24.7784 38.1657 24.7784 38.7314V49.5986V50.0986H25.2784H28.3253H28.8253V49.5986V26.5439C28.8253 25.9782 29.283 25.5205 29.8488 25.5205H35.9425C36.5082 25.5205 36.9659 25.9782 36.9659 26.5439V49.5986V50.0986H37.4659H40.5128H41.0128V49.5986V17.4033C41.0128 16.8376 41.4705 16.3799 42.0363 16.3799H48.13C48.6957 16.3799 49.1534 16.8376 49.1534 17.4033V49.5986Z" stroke="url(#paint1_linear_64_27)"/>
</g>
<defs>
<linearGradient id="paint0_linear_64_27" x1="51.5777" y1="28.3114" x2="46.6126" y2="-2.47417" gradientUnits="userSpaceOnUse">
<stop stop-color="#FBB040"/>
<stop offset="0.9985" stop-color="#F9ED32"/>
</linearGradient>
<linearGradient id="paint1_linear_64_27" x1="54.9913" y1="49.2634" x2="48.6573" y2="12.2326" gradientUnits="userSpaceOnUse">
<stop stop-color="#FBB040"/>
<stop offset="0.9985" stop-color="#F9ED32"/>
</linearGradient>
<clipPath id="clip0_64_27">
<rect width="52" height="52" fill="white" transform="translate(0.80188 0.645508)"/>
</clipPath>
</defs>
</svg>
