<svg width="53" height="53" viewBox="0 0 53 53" fill="none" xmlns="http://www.w3.org/2000/svg">
<g clip-path="url(#clip0_64_22)">
<path d="M50.6352 26.4073C50.6354 26.0046 50.5234 25.6099 50.3117 25.2674C50.1001 24.9248 49.7972 24.6481 49.437 24.4681L42.4799 20.9906L49.437 17.5239C49.7976 17.3442 50.1009 17.0676 50.3129 16.725C50.5249 16.3825 50.6372 15.9876 50.6372 15.5848C50.6372 15.1819 50.5249 14.787 50.3129 14.4445C50.1009 14.1019 49.7976 13.8253 49.437 13.6456L27.7704 2.81225C27.4696 2.66197 27.1381 2.58374 26.8019 2.58374C26.4657 2.58374 26.1341 2.66197 25.8334 2.81225L4.16671 13.6456C3.80616 13.8253 3.50285 14.1019 3.29084 14.4445C3.07883 14.787 2.96652 15.1819 2.96652 15.5848C2.96652 15.9876 3.07883 16.3825 3.29084 16.725C3.50285 17.0676 3.80616 17.3442 4.16671 17.5239L11.1239 20.9906L4.16671 24.4681C3.80616 24.6478 3.50285 24.9244 3.29084 25.267C3.07883 25.6095 2.96652 26.0044 2.96652 26.4073C2.96652 26.8101 3.07883 27.205 3.29084 27.5475C3.50285 27.8901 3.80616 28.1667 4.16671 28.3464L11.1239 31.8239L4.16671 35.3014C3.80616 35.4811 3.50285 35.7578 3.29084 36.1003C3.07883 36.4429 2.96652 36.8377 2.96652 37.2406C2.96652 37.6434 3.07883 38.0383 3.29084 38.3808C3.50285 38.7234 3.80616 39.0001 4.16671 39.1798L25.8334 50.0131C26.1341 50.1634 26.4657 50.2416 26.8019 50.2416C27.1381 50.2416 27.4696 50.1634 27.7704 50.0131L49.437 39.1798C49.7976 39.0001 50.1009 38.7234 50.3129 38.3808C50.5249 38.0383 50.6372 37.6434 50.6372 37.2406C50.6372 36.8377 50.5249 36.4429 50.3129 36.1003C50.1009 35.7578 49.7976 35.4811 49.437 35.3014L42.4799 31.8239L49.437 28.3573C49.7989 28.1765 50.1029 27.898 50.3146 27.5534C50.5264 27.2087 50.6374 26.8117 50.6352 26.4073ZM43.6239 37.2406L26.8019 45.6516L9.97988 37.2406L15.9685 34.2463L25.8334 39.1906C26.1341 39.3409 26.4657 39.4191 26.8019 39.4191C27.1381 39.4191 27.4696 39.3409 27.7704 39.1906L37.6352 34.2463L43.6239 37.2406ZM26.8019 34.8183L9.97988 26.4073L15.9685 23.4129L25.8334 28.3573C26.1341 28.5075 26.4657 28.5858 26.8019 28.5858C27.1381 28.5858 27.4696 28.5075 27.7704 28.3573L37.6352 23.4129L43.6239 26.4073L26.8019 34.8183Z" fill="url(#paint0_linear_64_22)"/>
<path d="M26.8965 24.2707L48.6983 35.394C50.162 36.1408 50.1506 38.236 48.6789 38.9669L26.8769 49.7937C26.3095 50.0754 25.6422 50.0718 25.078 49.7837L3.86946 38.957C2.42424 38.2193 2.41287 36.1582 3.84987 35.4045L25.0587 24.2811C25.6333 23.9797 26.3185 23.9758 26.8965 24.2707Z" fill="black" stroke="url(#paint1_linear_64_22)" stroke-width="2"/>
<path d="M26.8965 13.6623L48.6983 24.7856C50.162 25.5324 50.1506 27.6276 48.6789 28.3585L26.8769 39.1853C26.3095 39.4671 25.6422 39.4634 25.078 39.1753L3.86946 28.3486C2.42424 27.6109 2.41287 25.5498 3.84987 24.7961L25.0587 13.6727C25.6333 13.3713 26.3185 13.3674 26.8965 13.6623Z" fill="black" stroke="url(#paint2_linear_64_22)" stroke-width="2"/>
<path d="M26.8965 2.49877L48.6983 13.6221C50.162 14.3688 50.1506 16.4641 48.6789 17.1949L26.8769 28.0217C26.3095 28.3035 25.6422 28.2998 25.078 28.0118L3.86946 17.1851C2.42424 16.4473 2.41287 14.3862 3.84987 13.6326L25.0587 2.50912C25.6333 2.20772 26.3185 2.20386 26.8965 2.49877Z" fill="black" stroke="url(#paint3_linear_64_22)" stroke-width="2"/>
</g>
<defs>
<linearGradient id="paint0_linear_64_22" x1="52.6444" y1="45.8575" x2="41.3556" y2="-0.818204" gradientUnits="userSpaceOnUse">
<stop stop-color="#FBB040"/>
<stop offset="0.9985" stop-color="#F9ED32"/>
</linearGradient>
<linearGradient id="paint1_linear_64_22" x1="54.4189" y1="47.8093" x2="51.0855" y2="20.8099" gradientUnits="userSpaceOnUse">
<stop stop-color="#FBB040"/>
<stop offset="0.9985" stop-color="#F9ED32"/>
</linearGradient>
<linearGradient id="paint2_linear_64_22" x1="54.4189" y1="37.2009" x2="51.0855" y2="10.2015" gradientUnits="userSpaceOnUse">
<stop stop-color="#FBB040"/>
<stop offset="0.9985" stop-color="#F9ED32"/>
</linearGradient>
<linearGradient id="paint3_linear_64_22" x1="54.4189" y1="26.0373" x2="51.0855" y2="-0.96209" gradientUnits="userSpaceOnUse">
<stop stop-color="#FBB040"/>
<stop offset="0.9985" stop-color="#F9ED32"/>
</linearGradient>
<clipPath id="clip0_64_22">
<rect width="52" height="52" fill="white" transform="translate(0.80188 0.407227)"/>
</clipPath>
</defs>
</svg>
