<svg width="42" height="43" viewBox="0 0 42 43" fill="none" xmlns="http://www.w3.org/2000/svg">
<path d="M23.0416 21.4246C23.0416 26.4231 19.0171 30.4752 14.0526 30.4752C9.08812 30.4752 5.06354 26.4231 5.06354 21.4246C5.06354 16.426 9.08804 12.3739 14.0526 12.3739C19.0171 12.3739 23.0416 16.426 23.0416 21.4246Z" fill="url(#paint0_linear_78_5676)"/>
<path d="M32.9028 21.4246C32.9028 26.1299 30.8906 29.9442 28.4083 29.9442C25.9261 29.9442 23.9138 26.1299 23.9138 21.4246C23.9138 16.7193 25.9261 12.9049 28.4083 12.9049C30.8906 12.9049 32.9028 16.7194 32.9028 21.4246Z" fill="url(#paint1_linear_78_5676)"/>
<path d="M36.9364 21.4246C36.9364 25.6403 36.2287 29.0578 35.3556 29.0578C34.4826 29.0578 33.7749 25.6403 33.7749 21.4246C33.7749 17.2088 34.4826 13.7913 35.3556 13.7913C36.2287 13.7913 36.9364 17.2088 36.9364 21.4246Z" fill="url(#paint2_linear_78_5676)"/>
<defs>
<linearGradient id="paint0_linear_78_5676" x1="23.7986" y1="28.8101" x2="19.4838" y2="11.0958" gradientUnits="userSpaceOnUse">
<stop stop-color="#FBB040"/>
<stop offset="0.9985" stop-color="#F9ED32"/>
</linearGradient>
<linearGradient id="paint1_linear_78_5676" x1="33.2813" y1="28.3768" x2="26.5883" y2="13.7817" gradientUnits="userSpaceOnUse">
<stop stop-color="#FBB040"/>
<stop offset="0.9985" stop-color="#F9ED32"/>
</linearGradient>
<linearGradient id="paint2_linear_78_5676" x1="37.0695" y1="27.6534" x2="29.251" y2="20.9607" gradientUnits="userSpaceOnUse">
<stop stop-color="#FBB040"/>
<stop offset="0.9985" stop-color="#F9ED32"/>
</linearGradient>
</defs>
</svg>
