<svg width="53" height="53" viewBox="0 0 53 53" fill="none" xmlns="http://www.w3.org/2000/svg">
<path d="M51.0589 1.69574L51.0697 1.69553L51.0804 1.6951C51.2233 1.68934 51.4503 1.76802 51.5915 1.90918C51.7328 2.0505 51.8108 2.24352 51.8084 2.44044C51.6299 11.9095 46.0747 23.0735 37.9355 30.1987L37.6102 30.4834L37.5948 30.9153C37.3196 38.613 35.006 44.8866 31.1531 48.741C31.0091 48.8826 30.8228 48.9563 30.6308 48.9563C30.5607 48.9563 30.4984 48.9475 30.4369 48.9297L30.4369 48.9297L30.429 48.9275C30.1731 48.8559 29.9768 48.6511 29.9152 48.3929L29.915 48.3921L28.1469 41.0112L27.7481 39.3467L26.4939 40.5114L26.451 40.5512C26.3154 40.6723 26.147 40.733 25.9679 40.733C25.7692 40.733 25.5872 40.6606 25.4514 40.5233L25.4478 40.5197L12.9775 28.0495C12.7025 27.7744 12.6912 27.3324 12.9464 27.0458L12.9859 27.0033L14.1505 25.7491L12.486 25.3503L5.10512 23.5823L5.10428 23.5821C4.84607 23.5204 4.64136 23.3241 4.56973 23.0683L4.56932 23.0668C4.49779 22.8128 4.56901 22.5383 4.75763 22.3497C8.60839 18.4989 14.8863 16.1811 22.5814 15.9094L23.0143 15.8941L23.2992 15.5679C30.4002 7.4394 41.5788 1.87347 51.0589 1.69574Z" stroke="url(#paint0_linear_64_19)" stroke-width="2"/>
<path d="M7.45829 37.2705L7.45873 37.2701C9.87242 34.8534 13.8048 34.849 16.2297 37.2671C18.6477 39.6886 18.6469 43.6212 16.2297 46.0384C15.7744 46.4937 14.8666 47.0562 13.6128 47.6672C12.3892 48.2634 10.9359 48.859 9.47808 49.4067C6.56814 50.4998 3.7038 51.3781 2.75205 51.6626C2.67385 51.6852 2.6025 51.6946 2.5355 51.6946C2.34038 51.6946 2.15363 51.6189 2.01671 51.4827C1.82543 51.289 1.75606 51.0073 1.83241 50.7538L1.833 50.7519C2.11631 49.804 2.99626 46.9351 4.0913 44.0209C4.63917 42.5628 5.23497 41.1093 5.83105 39.8859C6.4419 38.6321 7.00396 37.7248 7.45829 37.2705Z" stroke="url(#paint1_linear_64_19)" stroke-width="2"/>
<defs>
<linearGradient id="paint0_linear_64_19" x1="54.8827" y1="45.4247" x2="43.2123" y2="-2.82069" gradientUnits="userSpaceOnUse">
<stop stop-color="#FBB040"/>
<stop offset="0.9985" stop-color="#F9ED32"/>
</linearGradient>
<linearGradient id="paint1_linear_64_19" x1="19.8109" y1="51.0168" x2="15.49" y2="33.1539" gradientUnits="userSpaceOnUse">
<stop stop-color="#FBB040"/>
<stop offset="0.9985" stop-color="#F9ED32"/>
</linearGradient>
</defs>
</svg>
