<svg width="42" height="43" viewBox="0 0 42 43" fill="none" xmlns="http://www.w3.org/2000/svg">
<g clip-path="url(#clip0_78_5692)">
<g clip-path="url(#clip1_78_5692)">
<path d="M31.2499 14.6032C30.469 14.9621 29.6368 15.2 28.7693 15.3155C29.6618 14.7572 30.343 13.88 30.6632 12.8226C29.8311 13.3424 28.9123 13.7095 27.9332 13.9144C27.1431 13.033 26.017 12.4871 24.7885 12.4871C22.405 12.4871 20.4861 14.5139 20.4861 16.9985C20.4861 17.356 20.515 17.6997 20.5858 18.027C17.0067 17.8441 13.8396 16.047 11.712 13.3094C11.3406 13.9845 11.1227 14.7572 11.1227 15.5891C11.1227 17.1511 11.8905 18.5357 13.035 19.3374C12.3433 19.3236 11.6648 19.1132 11.0899 18.7819C11.0899 18.7956 11.0899 18.8135 11.0899 18.8314C11.0899 21.0231 12.5822 22.8436 14.5392 23.263C14.1887 23.3634 13.8068 23.4115 13.4104 23.4115C13.1348 23.4115 12.8565 23.395 12.5953 23.3345C13.1532 25.1206 14.736 26.4337 16.6182 26.4764C15.1534 27.6767 13.2936 28.4 11.2802 28.4C10.9272 28.4 10.5885 28.3835 10.2499 28.3381C12.157 29.6265 14.4171 30.3621 16.8544 30.3621C24.7767 30.3621 29.1079 23.4871 29.1079 17.5279C29.1079 17.3285 29.1013 17.136 29.0922 16.9449C29.9466 16.3096 30.6645 15.5162 31.2499 14.6032Z" fill="url(#paint0_linear_78_5692)"/>
</g>
</g>
<defs>
<linearGradient id="paint0_linear_78_5692" x1="32.1341" y1="28.7178" x2="28.4735" y2="10.9409" gradientUnits="userSpaceOnUse">
<stop stop-color="#FBB040"/>
<stop offset="0.9985" stop-color="#F9ED32"/>
</linearGradient>
<clipPath id="clip0_78_5692">
<rect y="0.424622" width="42" height="42" rx="21" fill="white"/>
</clipPath>
<clipPath id="clip1_78_5692">
<rect width="21" height="22" fill="white" transform="translate(10.2499 10.4246)"/>
</clipPath>
</defs>
</svg>
