<svg width="26" height="22" viewBox="0 0 26 22" fill="none" xmlns="http://www.w3.org/2000/svg">
<path d="M3.99918 5.5C4.19954 4.25219 4.85168 3.78125 6.2149 3.78125H18.4995C18.7017 3.78922 18.8926 3.86516 19.0324 3.99323C19.1722 4.12131 19.2501 4.29165 19.2499 4.46875V5.5H3.99918ZM20.8213 5.53094V4.46875C20.8214 3.92706 20.5779 3.40709 20.1435 3.02117C19.7091 2.63526 19.1186 2.41438 18.4995 2.40625H6.2149C2.79704 2.40625 2.40811 4.84344 2.35704 6.10844C2.35527 6.12099 2.35527 6.13369 2.35704 6.14625V6.1875V17.1875C2.35704 17.7345 2.60538 18.2591 3.04743 18.6459C3.48948 19.0327 4.08903 19.25 4.71418 19.25H20.4285C21.0536 19.25 21.6532 19.0327 22.0952 18.6459C22.5373 18.2591 22.7856 17.7345 22.7856 17.1875V7.5625C22.7851 7.07545 22.5875 6.60429 22.228 6.23245C21.8685 5.86062 21.3702 5.61211 20.8213 5.53094ZM18.2678 14.0938C17.9181 14.0938 17.5763 14.003 17.2856 13.8331C16.9949 13.6631 16.7683 13.4215 16.6345 13.1388C16.5007 12.8562 16.4657 12.5452 16.5339 12.2451C16.6021 11.945 16.7705 11.6694 17.0177 11.4531C17.2649 11.2367 17.5799 11.0894 17.9229 11.0297C18.2658 10.97 18.6213 11.0007 18.9443 11.1177C19.2673 11.2348 19.5434 11.4331 19.7377 11.6875C19.9319 11.9419 20.0356 12.2409 20.0356 12.5469C20.0361 12.7501 19.9908 12.9515 19.9021 13.1394C19.8134 13.3273 19.6832 13.498 19.519 13.6417C19.3547 13.7854 19.1596 13.8993 18.9449 13.9769C18.7302 14.0545 18.5001 14.0942 18.2678 14.0938Z" fill="white"/>
</svg>
