<svg width="30" height="30" viewBox="0 0 30 30" fill="none" xmlns="http://www.w3.org/2000/svg">
<path d="M13.8413 6.09629L5.39908 20.7175C5.24659 20.9815 5.16629 21.2811 5.16626 21.586C5.16623 21.8909 5.24647 22.1904 5.39892 22.4545C5.55137 22.7186 5.77065 22.9379 6.03471 23.0903C6.29877 23.2428 6.59832 23.323 6.90323 23.323H23.7862C24.0911 23.323 24.3907 23.2428 24.6547 23.0903C24.9188 22.9379 25.1381 22.7186 25.2905 22.4545C25.443 22.1904 25.5232 21.8909 25.5232 21.586C25.5232 21.2811 25.4429 20.9815 25.2904 20.7175L16.8491 6.09629C16.6967 5.83231 16.4775 5.61309 16.2135 5.46068C15.9495 5.30827 15.65 5.22803 15.3452 5.22803C15.0403 5.22803 14.7409 5.30827 14.4769 5.46068C14.2129 5.61309 13.9937 5.83231 13.8413 6.09629Z" fill="#EE404C"/>
<path d="M15.4553 10.6058H15.2351C14.6929 10.6058 14.2534 11.0453 14.2534 11.5875V16.2798C14.2534 16.822 14.6929 17.2615 15.2351 17.2615H15.4553C15.9975 17.2615 16.437 16.822 16.437 16.2798V11.5875C16.437 11.0453 15.9975 10.6058 15.4553 10.6058Z" fill="#FFF7ED"/>
<path d="M15.3452 20.983C15.9482 20.983 16.437 20.4942 16.437 19.8912C16.437 19.2883 15.9482 18.7994 15.3452 18.7994C14.7422 18.7994 14.2534 19.2883 14.2534 19.8912C14.2534 20.4942 14.7422 20.983 15.3452 20.983Z" fill="#FFF7ED"/>
</svg>
