<svg width="33" height="32" viewBox="0 0 33 32" fill="none" xmlns="http://www.w3.org/2000/svg">
<g clip-path="url(#clip0_379_5556)">
<g filter="url(#filter0_i_379_5556)">
<path d="M16.5 0.375C7.87056 0.375 0.875 7.37056 0.875 16C0.875 24.6294 7.87056 31.625 16.5 31.625C25.1294 31.625 32.125 24.6294 32.125 16C32.125 7.37056 25.1294 0.375 16.5 0.375ZM22.2809 24.2444C22.2809 24.2444 21.4937 23.3688 20.9274 22.5966C23.6552 21.8241 24.6837 20.2793 24.6837 20.2793C21.8475 22.0329 19.1987 22.7076 16.5 22.6199C13.8013 22.7074 11.1525 22.0329 8.31663 20.2793C8.31663 20.2793 9.34475 21.8241 12.0729 22.5966C11.5064 23.369 10.7195 24.2444 10.7195 24.2444C6.03994 24.1414 4.225 21.2783 4.12 21.4019C4.12 15.0269 7.215 9.836 7.215 9.836C9.98475 7.8485 12.5657 7.76587 13.0588 7.75556L13.3736 8.05425C9.83788 9.04294 8.12775 10.5878 8.12775 10.5878C11.1623 9.12212 14.0224 8.60656 16.5 8.57569C18.9776 8.60694 21.8375 9.12212 24.8722 10.5878C24.8722 10.5878 23.1621 9.04294 19.6265 8.05425L19.9412 7.75556C20.4344 7.76587 23.0152 7.84825 25.785 9.836C25.785 9.836 28.8799 15.0267 28.8799 21.4019C28.775 21.2783 26.9601 24.1414 22.2809 24.2444Z" fill="#DB4311"/>
</g>
<path d="M12.6915 15.0064V14.9961C11.4955 14.9961 10.5303 15.9848 10.5303 17.2001C10.5303 18.4153 11.4955 19.4042 12.6915 19.4042C13.8876 19.4042 14.8528 18.4154 14.8528 17.2104C14.8528 15.995 13.8771 15.0064 12.6915 15.0064Z" fill="#DB4311"/>
<path d="M20.3084 14.9956V15.0059C19.1228 15.0059 18.1471 15.9947 18.1471 17.2099C18.1471 18.4149 19.1124 19.4037 20.3084 19.4037C21.5044 19.4037 22.4697 18.4149 22.4697 17.1996C22.4697 15.9843 21.5045 14.9956 20.3084 14.9956Z" fill="#DB4311"/>
</g>
<defs>
<filter id="filter0_i_379_5556" x="0.875" y="0.375" width="31.25" height="35.25" filterUnits="userSpaceOnUse" color-interpolation-filters="sRGB">
<feFlood flood-opacity="0" result="BackgroundImageFix"/>
<feBlend mode="normal" in="SourceGraphic" in2="BackgroundImageFix" result="shape"/>
<feColorMatrix in="SourceAlpha" type="matrix" values="0 0 0 0 0 0 0 0 0 0 0 0 0 0 0 0 0 0 127 0" result="hardAlpha"/>
<feOffset dy="4"/>
<feGaussianBlur stdDeviation="2"/>
<feComposite in2="hardAlpha" operator="arithmetic" k2="-1" k3="1"/>
<feColorMatrix type="matrix" values="0 0 0 0 0 0 0 0 0 0 0 0 0 0 0 0 0 0 0.25 0"/>
<feBlend mode="normal" in2="shape" result="effect1_innerShadow_379_5556"/>
</filter>
<clipPath id="clip0_379_5556">
<rect width="32" height="32" fill="white" transform="translate(0.5)"/>
</clipPath>
</defs>
</svg>
