<svg width="33" height="32" viewBox="0 0 33 32" fill="none" xmlns="http://www.w3.org/2000/svg">
<g filter="url(#filter0_i_379_5644)">
<path fill-rule="evenodd" clip-rule="evenodd" d="M32.5 16C32.5 24.8387 25.3387 32 16.5 32C7.66133 32 0.5 24.8387 0.5 16C0.5 7.16133 7.66133 0 16.5 0C25.3387 0 32.5 7.16133 32.5 16ZM11.4046 22.6382C15.0457 22.6382 17.9974 19.6663 17.9974 16.0003C17.9974 12.3342 15.0457 9.3623 11.4046 9.3623C7.76352 9.3623 4.81186 12.3342 4.81186 16.0003C4.81186 19.6663 7.76358 22.6382 11.4046 22.6382ZM25.2298 16.0005C25.2298 19.4514 23.754 22.2489 21.9335 22.2489C20.1129 22.2489 18.6371 19.4514 18.6371 16.0005C18.6371 12.5495 20.1129 9.75195 21.9335 9.75195C23.754 9.75195 25.2298 12.5495 25.2298 16.0005ZM27.0287 21.5987C27.669 21.5987 28.1881 19.0922 28.1881 16.0003C28.1881 12.9083 27.6691 10.4019 27.0287 10.4019C26.3884 10.4019 25.8694 12.9083 25.8694 16.0003C25.8694 19.0922 26.3884 21.5987 27.0287 21.5987Z" fill="#DB4311"/>
</g>
<defs>
<filter id="filter0_i_379_5644" x="0.5" y="0" width="32" height="36" filterUnits="userSpaceOnUse" color-interpolation-filters="sRGB">
<feFlood flood-opacity="0" result="BackgroundImageFix"/>
<feBlend mode="normal" in="SourceGraphic" in2="BackgroundImageFix" result="shape"/>
<feColorMatrix in="SourceAlpha" type="matrix" values="0 0 0 0 0 0 0 0 0 0 0 0 0 0 0 0 0 0 127 0" result="hardAlpha"/>
<feOffset dy="4"/>
<feGaussianBlur stdDeviation="2"/>
<feComposite in2="hardAlpha" operator="arithmetic" k2="-1" k3="1"/>
<feColorMatrix type="matrix" values="0 0 0 0 0 0 0 0 0 0 0 0 0 0 0 0 0 0 0.25 0"/>
<feBlend mode="normal" in2="shape" result="effect1_innerShadow_379_5644"/>
</filter>
</defs>
</svg>
