<svg width="369" height="361" viewBox="0 0 369 361" fill="none" xmlns="http://www.w3.org/2000/svg">
<path d="M281.673 164.148L282.902 167.627L294.289 161.046L281.673 164.148Z" fill="url(#paint0_linear_327_1393)"/>
<path d="M284.265 171.618L283.17 168.077L294.29 161.045L297.916 159.476L284.265 171.618Z" fill="url(#paint1_linear_327_1393)"/>
<path d="M289.252 180.548L284.872 172.214L290.067 166.253L297.915 159.476L289.252 180.548Z" fill="url(#paint2_linear_327_1393)"/>
<path d="M329.399 132.101C327.476 134.912 325.651 136.214 324.082 136.737C322.293 140.411 319.544 144.608 315.359 148.647C318.376 148.112 323.753 146.956 324.581 145.521C326.491 144.985 330.201 130.933 329.399 132.101Z" fill="url(#paint3_linear_327_1393)"/>
<path d="M312.928 140.958C315.921 136.919 318.488 132.284 320.264 127.004C320.179 123.329 319.096 110.701 319.096 110.701C319.096 110.701 308.402 102.464 298.584 100.299C305.324 108.049 314.899 125.033 312.928 140.958Z" fill="url(#paint4_linear_327_1393)"/>
<path d="M286.528 161.846C286.528 161.846 288.195 149.863 295.555 143.269C301.845 138.049 299.874 134.217 299.874 134.217C299.874 134.217 296.735 139.57 292.964 139.972C291.784 140.093 290.664 141.188 289.679 142.952C287.513 146.785 286.844 154.9 286.528 161.846Z" fill="url(#paint5_linear_327_1393)"/>
<path d="M289.457 143.16C290.443 141.408 291.769 140.447 292.949 140.325C296.732 139.924 299.652 134.425 299.652 134.425C299.652 134.425 296.611 140.934 288.24 140.411C287.559 140.569 285.6 141.153 285.187 144.036C284.87 144.596 289.457 143.16 289.457 143.16Z" fill="url(#paint6_linear_327_1393)"/>
<path d="M292.001 159.22L286.514 161.993C286.514 161.993 287.962 150.934 294.763 143.927C294.665 143.708 301.6 139.267 299.873 134.206C299.897 133.561 303.218 140.484 294.799 147.966C290.638 151.664 292.001 159.22 292.001 159.22Z" fill="url(#paint7_linear_327_1393)"/>
<path d="M292.002 159.22C292.002 159.22 290.201 152.018 294.788 147.954C294.788 147.954 294.836 151.592 295.323 153.234C295.968 155.4 297.245 155.874 297.245 155.874L292.002 159.22Z" fill="url(#paint8_linear_327_1393)"/>
<path d="M298.511 194.125L290.567 183.224L291.577 174.197L297.915 159.476L298.511 194.125Z" fill="url(#paint9_linear_327_1393)"/>
<path d="M323.176 148.33C323.162 148.344 323.162 148.359 323.148 148.373C323.162 148.359 323.176 148.344 323.176 148.33Z" fill="url(#paint10_linear_327_1393)"/>
<path d="M314.254 149.696C312.806 151.009 311.2 152.287 309.412 153.528C309.801 155.158 309.157 158.443 300.604 162.434C300.604 162.434 315.373 160.499 323.148 148.382C322.758 148.734 317.843 150.207 314.254 149.696Z" fill="url(#paint11_linear_327_1393)"/>
<path opacity="0.13" d="M319.096 110.712L329.401 132.1C329.401 132.1 325.848 156.676 281.722 164.085C281.43 164.085 318.196 148.658 319.096 110.712Z" fill="#141413"/>
<path d="M322.819 112.258L327.442 125.836C327.442 125.836 325.276 156.604 281.722 164.074C281.43 164.086 321.919 150.217 322.819 112.258Z" fill="url(#paint12_linear_327_1393)"/>
<g clip-path="url(#clip0_327_1393)">
<path d="M265.544 201.266C265.807 201.413 266.068 201.557 266.333 201.698C267.429 200.965 268.579 200.298 269.622 199.492C276.593 194.113 283.581 188.75 290.465 183.27C291.573 182.391 292.513 181.051 293.024 179.729C295.72 172.788 298.171 165.75 300.874 158.81C303.249 152.704 305.8 146.672 308.344 140.642C310.133 136.399 311.159 132.076 310.806 127.423C310.637 125.183 310.996 122.91 311.007 120.651C311.026 114.985 311.013 109.324 310.952 103.657C310.931 101.521 310.82 99.3798 310.607 97.2579C310.484 95.9939 310.095 94.8304 308.635 94.3032C307.354 93.8358 306.175 93.1067 304.375 92.2039C298.695 97.475 293.244 102.627 287.684 107.668C283.392 111.556 279.045 115.387 274.572 119.066C272.682 120.624 271.803 122.241 271.71 124.765C271.395 133.163 270.807 141.557 270.254 149.944C269.611 159.738 268.91 169.528 268.194 179.323C268.093 180.698 267.755 182.058 267.593 183.437C266.898 189.378 266.227 195.323 265.548 201.269L265.544 201.266Z" fill="#FFC24F" fill-opacity="0.7"/>
<path opacity="0.7" d="M272.13 200.428C271.57 200.877 271.159 201.506 270.218 202.58C274.853 202.451 278.59 202.218 282.328 202.278C287.721 202.365 293.116 202.704 298.512 202.855C304.84 203.031 310.887 201.962 316.858 198.405C310.198 192.909 303.736 187.58 296.941 181.976C295.615 183.171 294.563 184.137 293.493 185.073C293.048 185.461 292.496 186.157 292.088 186.098C290.005 185.787 288.813 187.297 287.488 188.309C282.306 192.268 277.227 196.357 272.132 200.429L272.13 200.428Z" fill="#F54F00"/>
<path opacity="0.7" d="M315.97 193.748C317.354 194.98 318.49 196.98 320.668 196.371C323.051 195.703 325.298 194.571 327.591 193.594C327.901 193.459 328.179 193.087 328.321 192.759C331.186 186.09 334.047 179.42 336.884 172.735C339.338 166.95 341.558 161.045 344.256 155.376C347.512 148.54 348.755 141.315 349.726 133.554C346.165 136.512 342.958 139.077 339.868 141.779C338.376 143.088 337.185 144.566 336.415 146.583C334.802 150.806 332.762 154.88 330.737 158.931C327.761 164.888 324.639 170.759 321.608 176.683C319.032 181.7 316.497 186.735 313.89 191.881C314.711 192.614 315.338 193.187 315.968 193.747L315.97 193.748Z" fill="#F54F00"/>
<path opacity="0.7" d="M310.968 190.154C312.012 188.639 313.12 187.328 313.899 185.854C317.782 178.502 321.545 171.088 325.411 163.727C327.167 160.394 329.141 157.169 330.891 153.835C331.76 152.189 332.342 150.392 333.196 148.33C326.601 144.746 320.557 141.457 314.158 137.976C308.655 151.935 303.324 165.462 297.905 179.208C302.334 182.921 306.453 186.372 310.97 190.154L310.968 190.154Z" fill="#FF820F"/>
<path opacity="0.8" d="M331.141 143.699C332.564 144.398 333.698 144.327 334.787 142.986C335.73 141.835 336.942 140.903 338.27 139.65C336.741 137.274 335.353 134.933 333.756 132.735C333.345 132.158 332.196 131.608 331.586 131.776C327.023 133.013 322.512 134.427 317.295 135.992C318.666 137.095 319.402 137.925 320.325 138.392C323.899 140.224 327.539 141.927 331.141 143.701L331.141 143.699Z" fill="#FF820F"/>
<path opacity="0.7" d="M314.285 134.104C316.097 133.679 317.431 133.431 318.728 133.05C321.979 132.099 325.182 130.986 328.452 130.137C331.175 129.433 333.162 128.155 334.311 125.428C336.351 120.566 338.67 115.814 340.784 110.984C345.184 100.957 349.529 90.9104 353.888 80.872C354.079 80.4383 354.179 79.9765 354.492 78.9615C347.37 79.537 340.87 81.0754 334.31 82.475C327.702 83.8819 320.942 84.5687 313.748 85.6418C313.451 90.0168 312.872 94.24 312.937 98.4539C313.094 108.376 313.546 118.301 313.892 128.221C313.955 129.964 314.123 131.71 314.285 134.104Z" fill="#FFA02D"/>
<path opacity="0.7" d="M339.183 136.199C340.327 137.217 341.247 137.365 342.411 136.193C344.776 133.8 347.21 131.471 349.68 129.183C351.626 127.384 352.742 125.185 352.904 122.587C353.131 119.087 353.161 115.574 353.305 112.073C353.355 110.946 353.507 109.831 353.596 108.707C354.149 101.231 354.695 93.7535 355.242 86.2738C354.983 86.1871 354.725 86.1072 354.466 86.0205C352.938 89.2554 351.382 92.4768 349.89 95.7213C347.736 100.398 345.523 105.046 343.522 109.782C341.519 114.53 339.742 119.377 337.868 124.183C337.644 124.771 337.484 125.388 337.22 125.957C335.283 130.169 335.901 133.274 339.186 136.197L339.183 136.199Z" fill="#E84200"/>
<path opacity="0.9" d="M352.84 135.429C353.582 128.453 355.387 121.652 355.58 114.557C355.853 104.63 356.867 94.7173 357.639 84.8074C357.882 81.7032 358.379 78.6186 358.795 75.2714C357.742 75.1287 356.856 74.7764 356.09 74.9429C349.353 76.4396 342.691 78.2607 335.913 79.5183C330.484 80.5254 324.943 81.0267 319.427 81.4643C315.012 81.8221 311.118 82.3653 307.529 85.8031C302.838 90.2865 297.083 93.6339 292 97.7351C287.414 101.431 282.961 105.337 278.727 109.436C276.416 111.673 274.674 114.502 272.668 117.058C272.435 117.355 272.222 117.77 271.914 117.886C268.647 119.101 269.182 121.592 269.254 124.336C269.384 129.226 268.956 134.133 268.653 139.027C268.176 146.817 267.643 154.597 267.071 162.376C266.73 167.025 266.305 171.661 265.855 176.295C265.122 183.817 264.364 191.332 263.573 198.843C263.471 199.84 263.117 200.811 262.938 201.802C262.48 204.35 264.079 206.158 266.692 206.059C272.227 205.854 277.757 205.44 283.284 205.462C289.454 205.495 295.618 206.007 301.793 206.12C303.875 206.162 306.058 205.907 308.044 205.286C310.667 204.471 313.044 202.76 315.69 202.16C319.207 201.367 321.977 198.923 325.331 198.175C329.433 197.261 330.926 194.538 332.237 191.084C335.752 181.8 339.369 172.554 343.126 163.357C344.977 158.824 347.233 154.459 349.251 149.989C349.865 148.624 350.428 147.204 350.758 145.751C351.55 142.333 352.463 138.905 352.837 135.424L352.84 135.429ZM352.903 122.586C352.738 125.184 351.622 127.385 349.679 129.182C347.209 131.469 344.775 133.8 342.41 136.192C341.245 137.365 340.326 137.217 339.182 136.198C335.897 133.275 335.279 130.17 337.217 125.958C337.481 125.387 337.64 124.77 337.864 124.184C339.741 119.377 341.515 114.531 343.519 109.783C345.519 105.047 347.732 100.399 349.886 95.7226C351.378 92.478 352.934 89.2567 354.463 86.0217C354.721 86.1084 354.98 86.1884 355.238 86.2751C354.692 93.7527 354.145 101.23 353.592 108.708C353.503 109.832 353.351 110.948 353.301 112.075C353.157 115.576 353.129 119.089 352.9 122.588L352.903 122.586ZM266.331 201.698C266.067 201.557 265.806 201.412 265.543 201.265C266.22 195.32 266.893 189.375 267.589 183.434C267.75 182.054 268.089 180.695 268.19 179.319C268.905 169.525 269.606 159.735 270.249 149.941C270.803 141.551 271.39 133.16 271.705 124.761C271.798 122.238 272.678 120.62 274.568 119.062C279.04 115.383 283.387 111.555 287.679 107.664C293.239 102.624 298.69 97.4717 304.37 92.2005C306.17 93.1033 307.35 93.8324 308.63 94.2998C310.09 94.827 310.481 95.9911 310.602 97.2546C310.815 99.3764 310.927 101.516 310.947 103.654C311.006 109.32 311.021 114.982 311.003 120.648C310.991 122.907 310.632 125.179 310.801 127.42C311.155 132.073 310.128 136.397 308.339 140.639C305.795 146.669 303.243 152.703 300.869 158.807C298.167 165.747 295.716 172.784 293.019 179.725C292.508 181.047 291.568 182.388 290.46 183.267C283.574 188.746 276.588 194.108 269.618 199.489C268.574 200.295 267.425 200.962 266.328 201.695L266.331 201.698ZM270.217 202.58C271.16 201.508 271.569 200.876 272.129 200.428C277.223 196.356 282.303 192.268 287.484 188.309C288.809 187.296 290.002 185.786 292.085 186.097C292.493 186.156 293.045 185.458 293.49 185.072C294.56 184.137 295.611 183.17 296.937 181.976C303.732 187.579 310.195 192.908 316.855 198.404C310.883 201.963 304.839 203.033 298.509 202.854C293.112 202.703 287.718 202.364 282.324 202.277C278.586 202.217 274.85 202.45 270.215 202.58L270.217 202.58ZM320.668 196.373C318.49 196.983 317.352 194.981 315.971 193.75C315.34 193.189 314.713 192.616 313.893 191.884C316.502 186.738 319.037 181.704 321.611 176.686C324.643 170.763 327.766 164.889 330.739 158.933C332.764 154.883 334.802 150.808 336.418 146.586C337.188 144.569 338.378 143.091 339.87 141.782C342.961 139.08 346.168 136.514 349.729 133.557C348.758 141.316 347.514 148.543 344.259 155.379C341.56 161.048 339.343 166.953 336.886 172.737C334.048 179.42 331.189 186.091 328.323 192.762C328.179 193.089 327.901 193.461 327.594 193.597C325.3 194.574 323.052 195.707 320.67 196.374L320.668 196.373ZM313.9 185.854C313.121 187.329 312.013 188.639 310.969 190.154C306.452 186.372 302.333 182.921 297.904 179.208C303.325 165.462 308.656 151.935 314.156 137.975C320.556 141.456 326.601 144.747 333.194 148.33C332.343 150.392 331.759 152.189 330.89 153.835C329.14 157.169 327.165 160.394 325.41 163.726C321.543 171.089 317.78 178.504 313.898 185.854L313.9 185.854ZM334.786 142.985C333.697 144.327 332.562 144.398 331.14 143.698C327.538 141.925 323.898 140.221 320.324 138.39C319.402 137.923 318.665 137.093 317.295 135.989C322.51 134.424 327.022 133.011 331.585 131.773C332.195 131.606 333.344 132.156 333.755 132.732C335.35 134.93 336.739 137.271 338.27 139.648C336.942 140.901 335.73 141.833 334.786 142.983L334.786 142.985ZM318.727 133.05C317.43 133.43 316.094 133.678 314.284 134.103C314.121 131.709 313.954 129.964 313.891 128.221C313.542 118.302 313.093 108.375 312.936 98.4536C312.873 94.2402 313.45 90.0165 313.747 85.6415C320.94 84.5705 327.701 83.8816 334.309 82.4746C340.869 81.075 347.368 79.5367 354.491 78.9612C354.175 79.9756 354.076 80.4374 353.886 80.8716C349.53 90.9106 345.183 100.956 340.783 110.984C338.666 115.813 336.349 120.566 334.31 125.428C333.161 128.155 331.174 129.433 328.451 130.136C325.18 130.986 321.98 132.099 318.727 133.05ZM310.245 92.4204C308.629 91.1875 307.832 90.5837 306.847 89.8325C307.843 88.8778 308.521 88.2253 309.936 86.8651C310.062 89.0543 310.128 90.2575 310.245 92.4204Z" fill="#DB3500"/>
<path d="M306.848 89.8329C307.833 90.5841 308.628 91.1873 310.246 92.4207C310.127 90.2594 310.061 89.0541 309.937 86.8654C308.523 88.2256 307.846 88.8787 306.848 89.8329Z" fill="#FF820F"/>
<path d="M273.662 131.905C273.539 132.38 272.8 132.189 272.923 131.714C273.046 131.238 273.785 131.429 273.662 131.905Z" fill="#FFD865"/>
</g>
<path d="M171.696 126.161L175.362 125.745L171.505 113.171L171.696 126.161Z" fill="url(#paint13_linear_327_1393)"/>
<path d="M179.556 125.316L175.86 125.588L171.504 113.173L170.789 109.288L179.556 125.316Z" fill="url(#paint14_linear_327_1393)"/>
<path d="M189.378 122.459L180.274 124.856L175.631 118.456L170.789 109.287L189.378 122.459Z" fill="url(#paint15_linear_327_1393)"/>
<path d="M151.185 72.4591C153.492 74.9632 154.351 77.0338 154.508 78.6806C157.687 81.2482 161.16 84.8699 164.157 89.855C164.312 86.7946 164.393 81.2949 163.18 80.1665C163.087 78.185 150.227 71.4144 151.185 72.4591Z" fill="url(#paint16_linear_327_1393)"/>
<path d="M156.114 90.4998C152.85 86.6765 148.909 83.1344 144.163 80.2181C140.563 79.4763 128.014 77.6964 128.014 77.6964C128.014 77.6964 117.587 86.2684 113.273 95.3497C122.338 90.5215 141.038 85.004 156.114 90.4998Z" fill="url(#paint17_linear_327_1393)"/>
<path d="M170.548 120.916C170.548 120.916 159.244 116.602 154.471 107.949C150.797 100.648 146.62 101.708 146.62 101.708C146.62 101.708 151.132 105.969 150.676 109.734C150.53 110.911 151.346 112.248 152.843 113.604C156.092 116.575 163.849 119.049 170.548 120.916Z" fill="url(#paint18_linear_327_1393)"/>
<path d="M152.996 113.864C151.51 112.51 150.871 111.002 151.017 109.825C151.475 106.048 146.772 101.968 146.772 101.968C146.772 101.968 152.432 106.393 150.043 114.432C150.044 115.132 150.174 117.172 152.891 118.222C153.365 118.656 152.996 113.864 152.996 113.864Z" fill="url(#paint19_linear_327_1393)"/>
<path d="M169.215 114.991L170.687 120.961C170.687 120.961 160.235 117.068 154.933 108.867C154.698 108.913 151.927 101.158 146.607 101.705C145.984 101.537 153.476 99.8544 158.877 109.738C161.547 114.623 169.215 114.991 169.215 114.991Z" fill="url(#paint20_linear_327_1393)"/>
<path d="M169.212 114.991C169.212 114.991 161.79 115.129 158.86 109.747C158.86 109.747 162.415 110.516 164.125 110.411C166.38 110.269 167.129 109.13 167.129 109.13L169.212 114.991Z" fill="url(#paint21_linear_327_1393)"/>
<path d="M204.687 116.486L192.281 121.78L183.711 118.77L170.789 109.288L204.687 116.486Z" fill="url(#paint22_linear_327_1393)"/>
<path d="M165.601 82.1688C165.612 82.1859 165.626 82.1891 165.636 82.2061C165.626 82.1891 165.615 82.172 165.601 82.1688Z" fill="url(#paint23_linear_327_1393)"/>
<path d="M164.926 91.1673C165.882 92.8731 166.766 94.7248 167.574 96.7462C169.25 96.7328 172.306 98.0986 174.275 107.329C174.275 107.329 175.705 92.5019 165.642 82.2058C165.899 82.6644 166.23 87.7846 164.926 91.1673Z" fill="url(#paint24_linear_327_1393)"/>
<path opacity="0.13" d="M128.03 77.7L151.185 72.4598C151.185 72.4598 174.336 81.4388 171.65 126.103C171.584 126.387 164.805 87.0961 128.03 77.7Z" fill="#141413"/>
<path d="M130.371 74.4192L144.64 72.9621C144.64 72.9621 174.137 81.9797 171.638 126.1C171.585 126.387 167.159 83.818 130.371 74.4192Z" fill="url(#paint25_linear_327_1393)"/>
<g clip-path="url(#clip1_327_1393)">
<path d="M204.243 150.214C204.445 149.991 204.645 149.769 204.842 149.543C204.373 148.31 203.982 147.04 203.43 145.842C199.754 137.842 196.096 129.829 192.302 121.89C191.694 120.612 190.598 119.396 189.425 118.601C183.266 114.415 176.959 110.447 170.803 106.255C165.386 102.57 160.08 98.7301 154.776 94.8975C151.042 92.2008 147.06 90.2305 142.446 89.5302C140.225 89.1924 138.092 88.3319 135.893 87.8138C130.375 86.5237 124.856 85.2659 119.32 84.0526C117.234 83.5933 115.122 83.2211 113.007 82.9524C111.747 82.7888 110.526 82.9062 109.685 84.211C108.942 85.3537 107.966 86.3395 106.682 87.8911C110.544 94.6089 114.341 101.078 118.005 107.628C120.83 112.683 123.587 117.779 126.168 122.963C127.262 125.154 128.641 126.375 131.079 127.032C139.193 129.224 147.24 131.681 155.289 134.103C164.689 136.928 174.071 139.809 183.455 142.706C184.773 143.113 186.022 143.748 187.33 144.215C192.963 146.227 198.606 148.215 204.247 150.212L204.243 150.214Z" fill="#FFC24F" fill-opacity="0.7"/>
<path opacity="0.7" d="M204.906 143.609C205.217 144.255 205.738 144.796 206.574 145.955C207.488 141.409 208.1 137.716 208.998 134.087C210.293 128.85 211.834 123.67 213.193 118.444C214.786 112.318 215.101 106.186 212.976 99.5677C206.124 104.824 199.481 109.925 192.495 115.289C193.361 116.849 194.067 118.091 194.738 119.344C195.016 119.865 195.571 120.558 195.421 120.943C194.651 122.903 195.855 124.404 196.544 125.922C199.239 131.861 202.083 137.728 204.907 143.607L204.906 143.609Z" fill="#F54F00"/>
<path opacity="0.7" d="M208.238 99.3876C209.749 98.3161 211.953 97.6579 211.848 95.3985C211.732 92.9268 211.134 90.4827 210.696 88.0287C210.634 87.6967 210.334 87.342 210.047 87.1301C204.191 82.8408 198.334 78.5553 192.456 74.2903C187.37 70.6001 182.114 67.1116 177.195 63.2091C171.265 58.5021 164.503 55.6686 157.159 52.98C159.241 57.114 161.021 60.8153 162.96 64.4334C163.901 66.1812 165.074 67.6731 166.866 68.8762C170.62 71.3963 174.131 74.2987 177.624 77.1818C182.762 81.4188 187.782 85.7794 192.874 90.0622C197.185 93.6992 201.522 97.2995 205.951 100.995C206.85 100.36 207.549 99.8778 208.237 99.3895L208.238 99.3876Z" fill="#F54F00"/>
<path opacity="0.7" d="M203.612 103.456C202.37 102.098 201.342 100.724 200.08 99.6342C193.788 94.1995 187.407 88.8681 181.102 83.4485C178.249 80.9893 175.549 78.3414 172.694 75.8878C171.285 74.6709 169.663 73.7007 167.847 72.4059C162.873 78.028 158.311 83.1783 153.482 88.6335C165.85 97.1294 177.835 105.361 190.014 113.728C194.626 110.245 198.914 107.006 203.613 103.454L203.612 103.456Z" fill="#FF820F"/>
<path opacity="0.8" d="M162.872 73.3679C163.873 72.139 164.058 71.0178 162.995 69.6552C162.086 68.4776 161.45 67.0875 160.527 65.5121C157.868 66.4683 155.276 67.2962 152.775 68.3586C152.121 68.6297 151.327 69.6261 151.353 70.258C151.534 74.9827 151.9 79.6952 152.253 85.1303C153.636 84.0425 154.61 83.5111 155.272 82.7171C157.859 79.6457 160.337 76.4811 162.874 73.3689L162.872 73.3679Z" fill="#FF820F"/>
<path opacity="0.7" d="M149.738 87.6398C149.73 85.7785 149.788 84.4233 149.709 83.0734C149.512 79.6922 149.146 76.3217 149.052 72.944C148.978 70.1325 148.179 67.9096 145.779 66.1776C141.499 63.0984 137.389 59.7718 133.157 56.6268C124.373 50.0882 115.559 43.5986 106.755 37.0978C106.375 36.814 105.948 36.6132 105.029 36.0802C103.991 43.1498 104.031 49.8286 103.922 56.5354C103.81 63.2907 102.961 70.0323 102.392 77.2834C106.589 78.5553 110.574 80.0672 114.695 80.9499C124.399 83.0247 134.173 84.8125 143.917 86.7025C145.629 87.0322 147.368 87.2606 149.738 87.6398Z" fill="#FFA02D"/>
<path opacity="0.7" d="M157.369 63.8478C158.618 62.9614 158.969 62.0987 158.087 60.7009C156.287 57.8591 154.564 54.9643 152.888 52.0436C151.572 49.7439 149.679 48.1626 147.184 47.421C143.825 46.4145 140.409 45.5963 137.029 44.6704C135.942 44.3687 134.889 43.9696 133.814 43.631C126.653 41.4141 119.489 39.2029 112.323 36.9907C112.181 37.2233 112.045 37.457 111.902 37.6896C114.711 39.9056 117.501 42.1451 120.328 44.3271C124.402 47.4762 128.434 50.6761 132.6 53.6888C136.778 56.7073 141.102 59.5267 145.364 62.4315C145.887 62.7822 146.453 63.0766 146.948 63.4611C150.617 66.2947 153.782 66.3898 157.368 63.845L157.369 63.8478Z" fill="#E84200"/>
<path opacity="0.9" d="M159.685 50.367C153.053 48.0777 146.831 44.7916 139.961 43.0112C130.348 40.5165 120.916 37.3028 111.432 34.3261C108.462 33.3924 105.568 32.2155 102.399 31.0589C102.024 32.0525 101.482 32.837 101.472 33.6205C101.418 40.5213 101.697 47.4226 101.401 54.31C101.164 59.826 100.408 65.3385 99.5961 70.812C98.9537 75.1946 98.6088 79.1111 101.153 83.38C104.469 88.9583 106.439 95.3179 109.294 101.191C111.866 106.491 114.673 111.706 117.717 116.752C119.378 119.507 121.743 121.84 123.784 124.368C124.022 124.662 124.378 124.962 124.422 125.289C124.872 128.745 127.42 128.782 130.11 129.328C134.904 130.3 139.59 131.819 144.292 133.212C151.775 135.427 159.237 137.692 166.689 139.995C171.142 141.372 175.565 142.826 179.98 144.305C187.145 146.709 194.298 149.135 201.44 151.591C202.389 151.914 203.255 152.478 204.18 152.875C206.561 153.892 208.682 152.74 209.172 150.171C210.215 144.732 211.053 139.25 212.315 133.87C213.732 127.865 215.614 121.972 217.111 115.98C217.62 113.961 217.862 111.776 217.702 109.701C217.496 106.963 216.363 104.262 216.372 101.549C216.389 97.9438 214.629 94.6965 214.653 91.2598C214.684 87.0577 212.365 84.9912 209.293 82.9385C201.036 77.4287 192.838 71.8277 184.719 66.1024C180.717 63.2806 176.97 60.1025 173.067 57.133C171.875 56.2276 170.617 55.3602 169.276 54.713C166.122 53.1734 162.987 51.5143 159.679 50.3688L159.685 50.367ZM147.184 47.4221C149.678 48.1656 151.573 49.7479 152.888 52.0447C154.561 54.9644 156.286 57.8602 158.087 60.7021C158.968 62.0999 158.618 62.9626 157.368 63.849C153.782 66.3938 150.618 66.2987 146.948 63.4651C146.451 63.0796 145.885 62.7853 145.365 62.4355C141.101 59.5278 136.778 56.7114 132.601 53.6928C128.435 50.6801 124.402 47.4802 120.328 44.3311C117.502 42.1491 114.712 39.9096 111.903 37.6936C112.045 37.461 112.181 37.2273 112.324 36.9947C119.488 39.2059 126.652 41.4171 133.815 43.635C134.89 43.9736 135.943 44.3727 137.03 44.6744C140.409 45.6003 143.827 46.4166 147.185 47.425L147.184 47.4221ZM204.841 149.544C204.644 149.77 204.445 149.992 204.243 150.216C198.601 148.221 192.958 146.231 187.325 144.219C186.017 143.752 184.768 143.117 183.451 142.71C174.067 139.813 164.684 136.932 155.285 134.107C147.234 131.684 139.188 129.228 131.075 127.036C128.636 126.379 127.258 125.158 126.164 122.967C123.583 117.783 120.828 112.688 118 107.632C114.337 101.081 110.54 94.6129 106.678 87.8951C107.962 86.3435 108.937 85.3576 109.68 84.2149C110.522 82.9102 111.744 82.7908 113.002 82.9564C115.118 83.225 117.228 83.5963 119.316 84.0566C124.85 85.2718 130.371 86.5277 135.888 87.8177C138.087 88.3359 140.221 89.1964 142.442 89.5342C147.056 90.2345 151.04 92.2058 154.771 94.9015C160.076 98.7341 165.383 102.575 170.799 106.259C176.954 110.451 183.262 114.419 189.421 118.605C190.594 119.4 191.689 120.616 192.297 121.894C196.091 129.834 199.747 137.845 203.426 145.846C203.977 147.043 204.369 148.314 204.837 149.547L204.841 149.544ZM206.573 145.956C205.74 144.797 205.216 144.256 204.905 143.61C202.081 137.731 199.237 131.864 196.542 125.925C195.853 124.407 194.649 122.906 195.42 120.946C195.569 120.561 195.013 119.867 194.737 119.347C194.065 118.094 193.359 116.852 192.493 115.292C199.479 109.928 206.123 104.827 212.974 99.5707C215.101 106.19 214.787 112.32 213.191 118.447C211.833 123.673 210.291 128.853 208.996 134.09C208.099 137.719 207.486 141.412 206.572 145.958L206.573 145.956ZM211.851 95.3987C211.955 97.6581 209.75 98.3182 208.24 99.3878C207.552 99.8761 206.853 100.359 205.955 100.994C201.527 97.296 197.189 93.6956 192.877 90.0605C187.786 85.7758 182.764 81.4142 177.627 77.1801C174.135 74.297 170.622 71.3965 166.87 68.8745C165.077 67.6714 163.904 66.1795 162.963 64.4318C161.025 60.8136 159.244 57.1123 157.162 52.9783C164.505 55.666 171.268 58.5004 177.199 63.2074C182.117 67.1099 187.374 70.5965 192.459 74.2886C198.334 78.5545 204.193 82.8381 210.05 87.1284C210.337 87.3422 210.636 87.6969 210.7 88.027C211.137 90.481 211.737 92.9261 211.852 95.3968L211.851 95.3987ZM200.081 99.6334C201.343 100.723 202.371 102.097 203.613 103.455C198.913 107.007 194.626 110.246 190.013 113.729C177.835 105.361 165.85 97.1285 153.482 88.6346C158.31 83.1794 162.874 78.0272 167.846 72.407C169.664 73.6999 171.284 74.672 172.693 75.8889C175.549 78.3425 178.248 80.9904 181.101 83.4496C187.409 88.8702 193.789 94.2016 200.08 99.6353L200.081 99.6334ZM162.995 69.6563C164.057 71.0189 163.872 72.1401 162.871 73.369C160.334 76.4812 157.857 79.6458 155.27 82.7172C154.608 83.5113 153.634 84.0426 152.251 85.1304C151.896 79.6972 151.532 74.9828 151.35 70.2581C151.324 69.6262 152.118 68.6298 152.772 68.3587C155.272 67.2982 157.865 66.4703 160.525 65.5122C161.448 67.0876 162.084 68.4777 162.993 69.6553L162.995 69.6563ZM149.708 83.0746C149.787 84.4244 149.729 85.7816 149.737 87.641C147.367 87.2618 145.629 87.0334 143.917 86.7037C134.173 84.8165 124.398 83.0259 114.695 80.951C110.575 80.0665 106.588 78.5564 102.392 77.2846C102.963 70.0345 103.809 63.2919 103.922 56.5366C104.03 49.8298 103.99 43.151 105.029 36.0814C105.946 36.6163 106.374 36.8171 106.755 37.0989C115.559 43.5979 124.373 50.0894 133.157 56.6279C137.387 59.7748 141.499 63.0995 145.779 66.1787C148.178 67.9108 148.978 70.1337 149.052 72.9452C149.145 76.3228 149.512 79.6915 149.708 83.0746ZM108.211 82.2191C106.647 83.517 105.88 84.1581 104.927 84.9494C104.22 83.7646 103.736 82.957 102.728 81.2729C104.89 81.6421 106.077 81.8474 108.211 82.2191Z" fill="#DB3500"/>
<path d="M104.927 84.9483C105.88 84.1571 106.647 83.5178 108.212 82.218C106.079 81.8492 104.89 81.6429 102.729 81.2718C103.737 82.956 104.221 83.7616 104.927 84.9483Z" fill="#FF820F"/>
<path d="M138.475 126.732C138.911 126.959 138.559 127.636 138.123 127.409C137.687 127.183 138.04 126.505 138.475 126.732Z" fill="#FFD865"/>
<g clip-path="url(#clip2_327_1393)">
<path d="M262.326 104.648C263.585 102.6 263.502 102.179 262.421 99.9905C261.857 98.8521 261.282 97.72 260.765 96.5604C260.101 95.0718 259.495 93.5582 258.857 92.0567C258.498 91.2117 258.162 90.3466 257.364 89.7247C257.206 89.7827 257.126 89.791 257.076 89.8343C255.363 91.3213 253.652 92.8119 251.944 94.303C251.862 94.372 251.799 94.4619 251.731 94.5426C250.633 95.7995 249.581 97.1 248.421 98.2961C247.798 98.9392 247.554 99.6364 247.49 100.483C247.429 101.295 247.283 102.1 247.194 102.908C247.167 103.143 247.17 103.396 247.23 103.621C247.655 105.2 248.292 106.666 249.14 108.091C250.049 109.619 250.977 111.116 252.084 112.505C252.415 112.919 252.728 113.35 253.006 113.803C253.858 115.192 254.683 116.599 255.533 117.989C255.672 118.215 255.888 118.394 256.161 118.7C256.325 118.29 256.449 118.004 256.554 117.71C256.974 116.539 257.325 115.338 257.816 114.197C258.604 112.367 259.467 110.571 260.326 108.774C260.983 107.394 261.515 105.968 262.327 104.647L262.326 104.648ZM247.562 115.296C249.83 116.776 252.322 117.508 254.917 118.406C254.822 118.116 254.806 117.979 254.739 117.873C253.077 115.234 251.363 112.63 249.549 110.089C248.565 108.715 247.29 107.93 245.595 107.294C246.279 110.079 246.926 112.714 247.562 115.296ZM257.897 118.335C259.346 117.377 260.788 116.407 262.222 115.423C262.478 115.249 262.903 114.964 262.872 114.795C262.749 114.061 263.355 113.584 263.386 112.896C263.458 111.242 263.652 109.593 263.493 107.934C263.466 107.655 263.494 107.369 263.509 107.086C263.56 106.006 263.616 104.924 263.671 103.843C263.585 103.826 263.497 103.808 263.412 103.791C261 108.585 258.493 113.336 256.913 118.741C257.4 118.544 257.676 118.482 257.898 118.334L257.897 118.335ZM261.322 116.806C259.748 117.823 258.135 118.787 256.539 119.774C256.391 119.866 256.244 119.962 255.995 120.118C254.776 118.599 253.038 118.256 251.382 117.751C251.113 117.669 250.852 117.561 250.589 117.46C249.795 117.156 249.015 116.814 248.206 116.553C247.347 116.277 246.797 115.61 246.631 114.733C246.377 113.375 246.064 112.027 245.731 110.683C245.416 109.414 245.073 108.15 244.687 106.901C244.321 105.71 244.62 104.511 244.549 103.32C244.482 102.191 244.341 101.064 244.203 99.9393C244.076 98.9069 244.125 97.982 244.682 96.9947C245.569 95.4226 246.231 93.7196 246.929 92.0476C247.378 90.9705 247.633 89.8069 248.145 88.7646C248.461 88.1177 249.075 87.609 249.587 87.0691C251.272 85.2941 252.96 83.5207 254.673 81.7717C255.908 80.5138 255.975 80.5846 256.974 81.7621C258.179 83.1788 259.632 84.3135 261.066 85.4801C262.19 86.3967 263.242 87.4074 264.286 88.4165C265.561 89.6508 265.907 91.3018 266.118 92.9627C266.56 96.4534 267.322 99.8727 268.321 103.242C268.452 103.684 268.531 104.143 268.666 104.585C268.756 104.88 268.865 105.183 269.036 105.436C269.479 106.089 269.47 106.232 269.017 106.781C268.728 107.129 268.472 107.522 268.275 107.933C267.708 109.118 267.153 110.312 266.645 111.523C266.319 112.295 266.115 113.115 265.8 113.89C265.678 114.19 265.436 114.617 265.186 114.667C263.655 114.967 262.561 116.006 261.321 116.807L261.322 116.806ZM245.963 106.55C246.485 106.914 247.096 107.152 247.737 107.477C247.687 106.425 246.244 103.054 245.137 101.719C245.164 102.559 245.189 103.401 245.224 104.242C245.243 104.7 245.207 105.178 245.33 105.61C245.431 105.961 245.669 106.345 245.963 106.551L245.963 106.55ZM264.002 114.212C265.102 113.836 264.978 113.56 264.88 112.704C264.823 112.217 264.673 111.737 264.648 111.249C264.578 109.979 264.56 108.707 264.506 107.437C264.493 107.143 264.425 106.851 264.383 106.558C264.336 106.562 264.287 106.565 264.239 106.569C264.16 109.091 264.082 111.613 264.002 114.212ZM265.423 112.199C265.478 112.216 265.531 112.233 265.585 112.251C265.714 112.022 265.864 111.801 265.967 111.563C266.165 111.106 266.321 110.632 266.518 110.173C267.006 109.035 267.494 107.895 268.012 106.77C268.216 106.327 268.24 105.95 267.843 105.629C266.94 104.896 266.081 104.099 264.818 103.514C265.027 106.513 265.226 109.356 265.423 112.199L265.423 112.199ZM246.449 101.692C246.935 100.902 247.71 93.1984 247.644 92.2353C246.83 94.0354 245.974 95.9133 245.127 97.7959C245.056 97.9555 244.938 98.1707 244.99 98.2977C245.457 99.4257 245.617 100.692 246.449 101.692ZM265.343 103.048C266.17 103.481 266.897 104.1 267.884 104.785C267.734 103.962 267.663 103.375 267.52 102.808C266.964 100.61 266.372 98.4219 265.818 96.224C265.498 94.9509 265.191 93.674 264.934 92.3861C264.749 91.4547 264.209 90.9633 263.305 90.8117C263.06 90.7698 262.812 90.7438 262.567 90.6938C261.701 90.5131 260.838 90.3223 259.969 90.1441C259.685 90.0846 259.395 90.0533 258.905 89.9787C259.375 91.0105 259.772 91.8286 260.125 92.6637C261.184 95.1712 262.202 97.6965 263.284 100.194C263.755 101.282 264.15 102.425 265.342 103.049L265.343 103.048ZM248.113 95.0549C248.05 95.7686 248.087 96.4907 248.077 97.1908C250.764 94.6692 253.399 92.1936 256.206 89.5581C255.572 89.5718 255.161 89.5748 254.752 89.5918C253.618 89.6419 252.484 89.6898 251.351 89.7552C250.752 89.7902 250.151 89.8325 249.558 89.9236C248.792 90.04 248.651 90.1905 248.561 90.9354C248.398 92.3069 248.231 93.6791 248.112 95.0546L248.113 95.0549ZM249.671 89.15C252.001 89.0611 254.118 88.98 256.233 88.8993C256.36 88.5816 256.598 88.2682 256.585 87.9638C256.547 87.0645 256.451 86.1607 256.301 85.2725C256.173 84.5117 255.952 83.7637 255.746 83.0176C255.675 82.759 255.519 82.5226 255.327 82.1116C254.812 82.685 254.366 83.1299 253.979 83.6198C253.3 84.4845 252.67 85.3853 251.995 86.2513C251.269 87.1852 250.516 88.0987 249.672 89.1491L249.671 89.15ZM257.646 87.8909C257.76 88.4851 258.231 88.9107 258.861 89.0894C259.337 89.2236 259.8 89.4102 260.281 89.5254C261.416 89.8001 262.556 90.0574 263.7 90.2914C263.882 90.33 264.093 90.2185 264.345 90.165C264.287 89.9363 264.293 89.7321 264.195 89.6161C263.583 88.8807 263.001 88.1094 262.308 87.4573C261.255 86.4676 260.114 85.5689 259.022 84.6191C258.145 83.855 257.284 83.0736 256.23 82.1334C256.346 82.7801 256.374 83.2094 256.501 83.6073C256.951 85.018 257.366 86.4323 257.646 87.8907L257.646 87.8909Z" fill="#DB3500"/>
</g>
</g>
<g clip-path="url(#clip3_327_1393)">
<path d="M107.35 271.876L109.096 276.819L125.274 267.468L107.35 271.876Z" fill="url(#paint26_linear_327_1393)"/>
<path d="M111.032 282.488L109.476 277.458L125.274 267.468L130.424 265.239L111.032 282.488Z" fill="url(#paint27_linear_327_1393)"/>
<path d="M118.118 295.174L111.896 283.335L119.276 274.866L130.424 265.239L118.118 295.174Z" fill="url(#paint28_linear_327_1393)"/>
<path d="M175.155 226.35C172.424 230.342 169.831 232.192 167.602 232.935C165.061 238.155 161.155 244.118 155.209 249.856C159.496 249.095 167.135 247.453 168.31 245.414C171.024 244.653 176.296 224.691 175.155 226.35Z" fill="url(#paint29_linear_327_1393)"/>
<path d="M151.753 238.933C156.004 233.194 159.651 226.609 162.175 219.108C162.054 213.888 160.515 195.948 160.515 195.948C160.515 195.948 145.323 184.247 131.375 181.17C140.95 192.18 154.553 216.308 151.753 238.933Z" fill="url(#paint30_linear_327_1393)"/>
<path d="M114.247 268.609C114.247 268.609 116.615 251.584 127.071 242.216C136.007 234.802 133.207 229.357 133.207 229.357C133.207 229.357 128.748 236.962 123.39 237.533C121.713 237.705 120.123 239.261 118.723 241.767C115.647 247.211 114.696 258.74 114.247 268.609Z" fill="url(#paint31_linear_327_1393)"/>
<path d="M118.412 242.061C119.812 239.572 121.696 238.207 123.372 238.034C128.748 237.463 132.896 229.651 132.896 229.651C132.896 229.651 128.575 238.898 116.684 238.155C115.716 238.379 112.933 239.209 112.345 243.305C111.896 244.1 118.412 242.061 118.412 242.061Z" fill="url(#paint32_linear_327_1393)"/>
<path d="M122.024 264.876L114.229 268.816C114.229 268.816 116.286 253.105 125.948 243.15C125.81 242.839 135.661 236.53 133.207 229.34C133.242 228.424 137.96 238.259 126 248.888C120.089 254.142 122.024 264.876 122.024 264.876Z" fill="url(#paint33_linear_327_1393)"/>
<path d="M122.024 264.876C122.024 264.876 119.466 254.644 125.982 248.871C125.982 248.871 126.052 254.039 126.743 256.372C127.659 259.448 129.474 260.122 129.474 260.122L122.024 264.876Z" fill="url(#paint34_linear_327_1393)"/>
<path d="M131.271 314.463L119.985 298.977L121.419 286.152L130.424 265.239L131.271 314.463Z" fill="url(#paint35_linear_327_1393)"/>
<path d="M166.312 249.406C166.292 249.427 166.292 249.448 166.271 249.469C166.292 249.448 166.312 249.427 166.312 249.406Z" fill="url(#paint36_linear_327_1393)"/>
<path d="M153.636 251.343C151.58 253.21 149.298 255.025 146.758 256.787C147.311 259.104 146.395 263.77 134.244 269.439C134.244 269.439 155.227 266.691 166.271 249.476C165.718 249.978 158.735 252.069 153.636 251.343Z" fill="url(#paint37_linear_327_1393)"/>
<path opacity="0.13" d="M160.515 195.965L175.155 226.35C175.155 226.35 170.108 261.263 107.42 271.789C107.005 271.789 159.236 249.873 160.515 195.965Z" fill="#141413"/>
<path d="M165.804 198.16L172.372 217.449C172.372 217.449 169.296 261.16 107.42 271.772C107.005 271.789 164.525 252.086 165.804 198.16Z" fill="url(#paint38_linear_327_1393)"/>
<path opacity="0.8" d="M230.245 234.831C230.021 240.543 228.608 242.951 223.107 244.312C213.727 246.643 204.237 248.547 194.735 250.313C188.299 251.506 181.761 252.174 175.266 253.045C174.633 253.13 173.982 252.961 172.547 252.845C170.92 248.604 168.755 244.234 167.558 239.605C165.855 232.996 164.874 226.181 163.537 219.464C162.948 216.514 163.549 214.674 166.636 213.136C173.537 209.702 180.087 205.559 186.9 201.923C188.307 201.179 190.286 200.961 191.876 201.231C194.239 201.641 196.676 202.358 198.748 203.544C207.517 208.566 216.164 213.798 224.854 218.959C228.348 221.028 230.339 223.952 230.211 228.179C230.142 230.39 230.34 232.619 230.245 234.831Z" fill="#FF820F"/>
<path opacity="0.8" d="M224.644 247.754C224.304 250.045 224.494 251.518 223.859 252.403C222.603 254.165 221.036 255.775 219.363 257.158C205.965 268.276 192.44 279.239 179.108 290.418C173.39 295.2 168.052 300.436 162.44 305.333C161.187 306.434 159.526 307.674 158.014 307.731C154.1 307.869 150.148 307.471 146.235 307.085C145.536 307.02 144.941 306.006 143.654 304.864C146.751 298.397 149.376 291.581 153.117 285.44C158.149 277.16 164.094 269.432 169.543 261.4C171.126 259.079 172.843 257.702 175.835 257.341C182.138 256.57 188.38 255.342 194.622 254.113C202.341 252.593 210.026 250.879 217.739 249.241C219.643 248.833 221.559 248.419 224.645 247.75L224.644 247.754Z" fill="#F54F00"/>
<path opacity="0.8" d="M206.577 198.884C210.019 201.909 213.417 204.978 216.344 208.818C210.122 205.416 203.908 202.031 197.604 198.586C197.138 195.822 196.643 192.906 196.035 189.416C201.273 191.026 203.152 195.866 206.573 198.883L206.577 198.884Z" fill="#E84200"/>
<path opacity="0.8" d="M185.191 185.196C188.967 186.271 191.607 188.964 191.745 194.394C183.462 198.941 175.223 203.559 166.888 207.989C165.623 208.664 163.823 209.028 162.485 208.693C147.852 204.979 132.761 202.892 118.906 196.389C114.665 194.404 111.525 190.036 109.096 181.936C115.082 178.623 121.014 175.027 127.234 172.054C129.418 171.006 132.524 170.777 134.882 171.394C151.71 175.785 168.47 180.41 185.192 185.188L185.191 185.196Z" fill="#FFC24F"/>
<path opacity="0.8" d="M165.583 249.252C165.754 250.047 165.37 250.969 165.181 252.27C158.443 251.84 152.087 250.175 146.114 247.702C132.87 242.247 119.512 237.291 105.534 233.966C99.892 232.623 94.6101 229.791 87.9005 227.14C98.0039 218.626 107.119 210.784 116.488 203.281C117.868 202.177 120.628 202.068 122.532 202.494C134.117 205.105 145.636 207.993 157.127 210.774C160.137 224.4 162.897 236.815 165.58 249.247L165.583 249.252Z" fill="#FFA02D"/>
<path opacity="0.8" d="M149.359 313.007C149.705 313.125 149.927 313.614 150.626 314.375C146.117 320.212 140.665 324.874 134.423 328.63C133.946 328.264 133.463 327.905 132.986 327.539C134.32 324.05 135.532 320.497 137.028 317.078C139.352 311.786 140.451 311.274 146.171 312.201C147.251 312.382 148.318 312.663 149.355 313.006L149.359 313.007Z" fill="#F54F00"/>
<path opacity="0.8" d="M165.175 258.158C158.236 270.007 151.467 280.855 145.413 292.096C139.47 303.148 134.237 314.598 128.007 327.265C124.589 318.229 121.66 310.366 118.659 302.516C115.656 294.676 112.877 286.745 109.489 279.086C106 271.233 101.762 263.722 98.108 255.933C94.5861 248.403 91.3879 240.72 88.0557 233.101C88.3146 232.695 88.5665 232.302 88.8254 231.895C114.063 240.584 139.304 249.258 165.171 258.157L165.175 258.158Z" fill="#FF6500"/>
<path opacity="0.8" d="M121.907 326.501C121.343 326.857 120.797 327.201 120.236 327.546C114.926 320.326 109.579 313.12 104.311 305.871C97.7092 296.819 90.3962 288.179 84.814 278.515C77.9967 266.753 72.641 254.132 66.7103 241.849C63.5551 235.331 60.4809 228.779 57.3931 222.219C56.9356 221.25 56.5985 220.211 55.8522 218.319C65.3477 222.49 74.331 226.203 81.0135 232.994C85.3403 237.387 88.0833 243.586 90.774 249.338C95.4556 259.295 99.6481 269.488 103.868 279.664C106.3 285.55 108.355 291.594 110.645 297.549C114.367 307.205 118.145 316.851 121.904 326.496L121.907 326.501Z" fill="#F54F00"/>
<path opacity="0.8" d="M118.314 169.407C118.46 169.877 118.62 170.339 118.77 170.806C114.005 173.296 109.227 175.79 104.059 178.49C101.97 176.238 100.189 174.322 97.5171 171.448C105.49 170.662 111.904 170.033 118.318 169.404L118.314 169.407Z" fill="#F54F00"/>
<path opacity="0.8" d="M91.4092 171.54C99.414 180.37 108.294 188.204 113.494 199.637C106.002 206.079 98.9219 211.99 92.0612 218.161C89.5956 220.372 87.7495 220.703 84.5245 219.307C74.6562 215.034 64.4882 211.446 54.4953 207.451C48.1343 204.907 43.2792 200.216 37.6484 195.303C55.6649 186.9 72.7124 177.92 91.4083 171.543L91.4092 171.54Z" fill="#FF820F"/>
<path opacity="0.8" d="M81.665 224.789C76.7816 224.622 70.2375 221.477 63.8626 216.495C71.0251 218.159 76.3335 221.498 81.665 224.789Z" fill="#FF820F"/>
<path opacity="0.8" d="M72.1424 265.544C66.5571 259.226 57.5216 255.966 55.8966 246.237C48.2374 234.336 46.0355 220.324 41.0664 207.386C40.9234 206.997 41.0061 206.513 40.9854 206.078C47.1559 209.456 47.7926 210.394 49.3914 216.251C50.0136 218.514 51.1842 220.659 52.2815 222.775C59.5338 236.689 67.8017 250.103 72.1415 265.547L72.1424 265.544Z" fill="#E84200"/>
<path d="M165.175 258.158C139.308 249.259 114.067 240.585 88.8292 231.896C88.5702 232.303 88.3184 232.696 88.0594 233.102C91.3871 240.724 94.5899 248.404 98.1118 255.934C101.762 263.722 106.004 271.234 109.493 279.087C112.881 286.746 115.659 294.677 118.663 302.517C121.664 310.367 124.592 318.234 128.01 327.266C134.242 314.595 139.475 303.145 145.417 292.097C151.474 280.857 158.241 270.004 165.179 258.159L165.175 258.158ZM53.0986 184.094C64.4319 179.313 75.5036 173.922 86.8615 169.181C90.4188 167.703 94.4752 167.212 98.3585 166.724C108.302 165.488 118.274 164.501 128.229 163.44C129.439 163.322 130.946 162.955 131.859 163.496C141.355 169.117 152.217 170.546 162.514 173.665C171.151 176.282 179.812 178.785 188.422 181.465C189.591 181.829 190.534 182.911 191.606 183.628C192.322 184.098 193.394 185.054 193.775 184.838C199.103 181.811 200.526 186.941 203.173 189.317C208.245 193.856 213.329 198.406 218.214 203.162C221.19 206.063 223.812 209.332 226.573 212.455C227.008 212.949 227.225 213.743 227.757 214.041C234.091 217.628 233.7 223.746 233.664 229.754C233.661 231.076 233.279 232.561 233.741 233.7C236.112 239.651 234.066 244.964 231.633 250.246C231.093 251.403 230.508 252.7 229.568 253.488C223.071 258.96 216.444 264.261 209.928 269.719C196.442 281.011 182.559 291.876 169.652 303.808C158.875 313.791 147.635 323.149 136.267 332.384C134.559 333.775 132.705 335.003 130.838 336.163C125.778 339.301 123.174 338.817 119.69 334.035C110.741 321.744 101.887 309.396 92.8795 297.158C88.8481 291.685 84.7349 286.236 80.2506 281.134C77.6789 278.208 74.0806 276.206 71.3169 273.426C64.3654 266.435 56.9893 259.73 51.0642 251.926C47.6374 247.431 45.6485 241.164 44.8781 235.439C43.1592 222.717 37.2307 211.531 33.5762 199.541C33.2136 198.323 32.435 197.038 31.471 196.235C29.1069 194.236 30.1704 192.416 31.3221 190.422C39.4374 191.197 46.1435 187.023 53.1023 184.095L53.0986 184.094ZM91.4058 171.539C72.7099 177.916 55.6624 186.896 37.6459 195.299C43.2766 200.212 48.1317 204.903 54.4927 207.446C64.4856 211.441 74.6536 215.029 84.522 219.302C87.747 220.698 89.5966 220.369 92.0586 218.157C98.9193 211.985 106 206.075 113.492 199.633C108.294 188.204 99.4105 180.369 91.4066 171.535L91.4058 171.539ZM118.906 196.389C132.761 202.892 147.855 204.983 162.486 208.693C163.823 209.028 165.623 208.664 166.888 207.989C175.22 203.555 183.462 198.941 191.746 194.394C191.608 188.96 188.972 186.268 185.191 185.196C168.468 180.418 151.708 175.792 134.881 171.401C132.522 170.784 129.416 171.013 127.232 172.062C121.013 175.03 115.08 178.63 109.095 181.943C111.523 190.044 114.667 194.413 118.904 196.396L118.906 196.389ZM230.242 234.826C230.335 232.61 230.136 230.385 230.208 228.175C230.337 223.948 228.342 221.022 224.851 218.954C216.161 213.793 207.515 208.562 198.745 203.539C196.674 202.353 194.236 201.636 191.874 201.226C190.284 200.957 188.301 201.173 186.897 201.918C180.084 205.555 173.534 209.701 166.633 213.132C163.55 214.671 162.945 216.509 163.534 219.46C164.872 226.176 165.853 232.988 167.556 239.601C168.749 244.228 170.914 248.599 172.544 252.84C173.979 252.96 174.63 253.13 175.263 253.04C181.758 252.17 188.296 251.502 194.732 250.309C204.234 248.546 213.725 246.639 223.104 244.308C228.606 242.947 230.019 240.534 230.242 234.826ZM157.127 210.774C145.64 207.994 134.118 205.101 122.532 202.494C120.628 202.068 117.868 202.177 116.489 203.281C107.119 210.784 98.0041 218.626 87.9006 227.14C94.6102 229.791 99.8921 232.623 105.535 233.966C119.512 237.291 132.867 242.246 146.115 247.702C152.084 250.174 158.443 251.84 165.182 252.27C165.37 250.969 165.754 250.047 165.583 249.252C162.896 236.819 160.139 224.408 157.13 210.778L157.127 210.774ZM223.856 252.402C224.49 251.517 224.3 250.044 224.64 247.753C221.551 248.421 219.638 248.839 217.735 249.244C210.022 250.882 202.336 252.595 194.617 254.116C188.376 255.344 182.134 256.573 175.831 257.344C172.839 257.704 171.121 259.081 169.539 261.403C164.09 269.435 158.148 277.164 153.113 285.443C149.369 291.58 146.744 298.399 143.649 304.867C144.939 306.014 145.532 307.023 146.231 307.088C150.143 307.477 154.096 307.872 158.009 307.734C159.522 307.677 161.183 306.436 162.435 305.336C168.044 300.438 173.386 295.199 179.103 290.421C192.44 279.242 205.961 268.278 219.359 257.161C221.033 255.774 222.602 254.169 223.855 252.406L223.856 252.402ZM216.342 208.813C213.413 204.977 210.017 201.905 206.574 198.879C203.154 195.859 201.274 191.023 196.036 189.413C196.643 192.906 197.138 195.822 197.605 198.582C203.909 202.027 210.123 205.412 216.345 208.814L216.342 208.813ZM150.623 314.371C149.924 313.609 149.699 313.12 149.356 313.003C148.316 312.658 147.249 312.377 146.172 312.197C140.452 311.271 139.354 311.778 137.029 317.074C135.533 320.49 134.322 324.043 132.987 327.536C133.465 327.901 133.947 328.261 134.425 328.626C140.665 324.874 146.113 320.211 150.627 314.372L150.623 314.371ZM120.233 327.542C120.794 327.197 121.34 326.852 121.904 326.496C118.144 316.854 114.367 307.205 110.645 297.549C108.355 291.594 106.301 285.55 103.868 279.664C99.6483 269.488 95.4557 259.295 90.7742 249.338C88.0844 243.583 85.3413 237.384 81.0137 232.994C74.3303 226.206 65.3479 222.49 55.8524 218.319C56.5986 220.211 56.9358 221.25 57.3933 222.219C60.4811 228.779 63.5553 235.331 66.7104 241.849C72.6456 254.129 77.9978 266.749 84.8142 278.515C90.3936 288.174 97.7094 296.819 104.311 305.871C109.58 313.116 114.927 320.323 120.236 327.546L120.233 327.542ZM118.766 170.809C118.62 170.339 118.46 169.877 118.309 169.41C111.896 170.039 105.482 170.668 97.5083 171.454C100.181 174.328 101.965 176.241 104.05 178.495C109.218 175.796 113.996 173.301 118.761 170.812L118.766 170.809ZM63.8627 216.495C70.2349 221.472 76.7817 224.622 81.6652 224.789C76.3327 221.502 71.0288 218.16 63.8627 216.495ZM55.894 246.232C57.5217 255.966 66.5573 259.226 72.1398 265.539C67.8 250.095 59.5329 236.677 52.2798 222.766C51.1825 220.651 50.0083 218.505 49.3897 216.243C47.7909 210.386 47.1542 209.447 40.9837 206.069C41.0035 206.509 40.9217 206.989 41.0647 207.378C46.0339 220.316 48.2348 234.331 55.8949 246.229L55.894 246.232Z" fill="#DB3500"/>
</g>
<path opacity="0.8" d="M296.105 32.0683C296.028 34.0252 295.544 34.8503 293.66 35.3166C290.446 36.1151 287.195 36.7674 283.94 37.3725C281.735 37.7811 279.495 38.01 277.27 38.3083C277.053 38.3376 276.83 38.2797 276.338 38.2397C275.781 36.787 275.039 35.2897 274.63 33.704C274.046 31.4398 273.71 29.105 273.252 26.804C273.05 25.7931 273.256 25.163 274.313 24.6361C276.678 23.4596 278.922 22.0403 281.256 20.7945C281.738 20.5395 282.416 20.4651 282.961 20.5574C283.77 20.6979 284.605 20.9435 285.315 21.3498C288.319 23.0705 291.281 24.8627 294.258 26.6308C295.455 27.3396 296.137 28.3415 296.093 29.7896C296.07 30.547 296.138 31.3106 296.105 32.0683Z" fill="#FF820F"/>
<path opacity="0.8" d="M294.185 36.4961C294.068 37.281 294.133 37.7857 293.916 38.0889C293.486 38.6924 292.949 39.2438 292.376 39.7179C287.786 43.5265 283.152 47.2824 278.585 51.1122C276.626 52.7506 274.797 54.5443 272.875 56.2218C272.445 56.599 271.876 57.024 271.358 57.0436C270.018 57.0907 268.664 56.9542 267.323 56.8222C267.084 56.7998 266.88 56.4526 266.439 56.0612C267.5 53.8458 268.399 51.5108 269.681 49.4068C271.405 46.5703 273.441 43.9228 275.308 41.171C275.85 40.3758 276.439 39.904 277.464 39.7805C279.623 39.5164 281.761 39.0955 283.9 38.6747C286.544 38.1537 289.177 37.5667 291.82 37.0056C292.472 36.8656 293.128 36.724 294.185 36.4949L294.185 36.4961Z" fill="#F54F00"/>
<path opacity="0.8" d="M287.997 19.755C289.176 20.7916 290.34 21.8428 291.343 23.1583C289.212 21.9927 287.083 20.8331 284.923 19.6529C284.764 18.7062 284.594 17.7072 284.386 16.5116C286.18 17.0631 286.824 18.7212 287.996 19.7547L287.997 19.755Z" fill="#E84200"/>
<path opacity="0.8" d="M280.668 15.0643C281.962 15.4327 282.866 16.3553 282.914 18.2156C280.076 19.7731 277.253 21.3553 274.398 22.8729C273.965 23.1042 273.348 23.229 272.89 23.1141C267.877 21.8417 262.706 21.1268 257.96 18.8988C256.507 18.2191 255.431 16.7226 254.599 13.9476C256.65 12.8124 258.682 11.5805 260.813 10.5623C261.561 10.2031 262.625 10.1245 263.433 10.3359C269.198 11.8404 274.94 13.4249 280.669 15.0618L280.668 15.0643Z" fill="#FFC24F"/>
<path opacity="0.8" d="M273.952 37.01C274.011 37.2825 273.879 37.5985 273.815 38.0441C271.506 37.8966 269.329 37.3262 267.283 36.4792C262.745 34.6102 258.169 32.9123 253.381 31.7732C251.448 31.3133 249.638 30.343 247.339 29.4349C250.801 26.5181 253.923 23.8317 257.133 21.2613C257.606 20.8828 258.551 20.8454 259.204 20.9914C263.173 21.886 267.119 22.8753 271.055 23.8279C272.087 28.4961 273.032 32.7495 273.952 37.0085L273.952 37.01Z" fill="#FFA02D"/>
<path opacity="0.8" d="M268.393 58.8506C268.511 58.8911 268.587 59.0585 268.827 59.3193C267.282 61.3189 265.414 62.9161 263.276 64.2027C263.112 64.0775 262.947 63.9544 262.784 63.8292C263.24 62.6338 263.656 61.4165 264.168 60.2451C264.965 58.4321 265.341 58.257 267.3 58.5744C267.671 58.6363 268.036 58.7327 268.391 58.8503L268.393 58.8506Z" fill="#F54F00"/>
<path opacity="0.8" d="M273.812 40.0607C271.435 44.1202 269.116 47.8366 267.042 51.6874C265.006 55.4736 263.213 59.3965 261.078 63.736C259.908 60.6405 258.904 57.9465 257.876 55.2572C256.847 52.5715 255.895 49.8544 254.735 47.2305C253.539 44.5401 252.087 41.967 250.836 39.2985C249.629 36.7188 248.533 34.0869 247.392 31.4768C247.48 31.3375 247.567 31.2029 247.655 31.0635C256.301 34.0402 264.949 37.0118 273.811 40.0604L273.812 40.0607Z" fill="#FF6500"/>
<path opacity="0.8" d="M258.989 63.4741C258.796 63.596 258.608 63.7141 258.416 63.8323C256.597 61.3588 254.765 58.89 252.961 56.4066C250.699 53.3054 248.194 50.3455 246.281 47.0349C243.946 43.0051 242.111 38.6815 240.079 34.4736C238.998 32.2405 237.945 29.9958 236.887 27.7485C236.73 27.4167 236.615 27.0606 236.359 26.4124C239.612 27.8414 242.69 29.1133 244.979 31.4398C246.461 32.945 247.401 35.0687 248.323 37.0392C249.927 40.4504 251.363 43.9423 252.809 47.4285C253.642 49.4449 254.346 51.5154 255.13 53.5555C256.406 56.8635 257.7 60.1681 258.988 63.4725L258.989 63.4741Z" fill="#F54F00"/>
<path opacity="0.8" d="M257.76 9.65593C257.81 9.81697 257.865 9.97516 257.917 10.1352C256.284 10.9881 254.647 11.8426 252.877 12.7675C252.161 11.996 251.551 11.3398 250.635 10.3552C253.367 10.0859 255.564 9.87043 257.762 9.65499L257.76 9.65593Z" fill="#F54F00"/>
<path opacity="0.8" d="M248.539 10.3869C251.281 13.412 254.324 16.096 256.105 20.0127C253.538 22.2196 251.113 24.2445 248.762 26.3588C247.918 27.1163 247.285 27.2295 246.181 26.7513C242.8 25.2874 239.316 24.0583 235.893 22.6895C233.714 21.8181 232.05 20.2111 230.121 18.528C236.294 15.6492 242.134 12.5728 248.539 10.3881L248.539 10.3869Z" fill="#FF820F"/>
<path opacity="0.8" d="M245.2 28.6291C243.527 28.5721 241.285 27.4946 239.102 25.7879C241.555 26.358 243.374 27.5018 245.2 28.6291Z" fill="#FF820F"/>
<path opacity="0.8" d="M241.94 42.5914C240.027 40.427 236.932 39.3103 236.375 35.9772C233.751 31.9001 232.997 27.0999 231.294 22.6673C231.245 22.5342 231.274 22.3684 231.266 22.2191C233.38 23.3764 233.598 23.698 234.146 25.7045C234.359 26.4796 234.76 27.2145 235.136 27.9393C237.621 32.7062 240.453 37.3016 241.94 42.5926L241.94 42.5914Z" fill="#E84200"/>
<path d="M273.814 40.061C264.952 37.0124 256.305 34.0407 247.658 31.0641C247.57 31.2034 247.483 31.338 247.395 31.4773C248.535 34.0884 249.632 36.7194 250.839 39.2991C252.089 41.9672 253.542 44.5407 254.738 47.231C255.898 49.8549 256.85 52.572 257.879 55.2577C258.907 57.9471 259.91 60.6423 261.081 63.7366C263.216 59.3958 265.009 55.4729 267.045 51.688C269.12 47.8374 271.438 44.1195 273.815 40.0613L273.814 40.061ZM235.418 14.6877C239.3 13.0497 243.093 11.2029 246.984 9.57875C248.203 9.07245 249.593 8.90404 250.923 8.73709C254.33 8.31355 257.746 7.97533 261.156 7.612C261.571 7.57131 262.087 7.44586 262.4 7.63092C265.653 9.55681 269.374 10.0462 272.902 11.1147C275.861 12.0113 278.828 12.869 281.778 13.7871C282.178 13.9118 282.501 14.2825 282.869 14.5282C283.114 14.689 283.481 15.0165 283.612 14.9426C285.437 13.9057 285.924 15.663 286.831 16.4769C288.569 18.032 290.31 19.5908 291.984 21.22C293.003 22.2139 293.902 23.334 294.848 24.4037C294.997 24.5729 295.071 24.8452 295.253 24.9473C297.423 26.1761 297.289 28.2719 297.277 30.3301C297.276 30.7832 297.145 31.2918 297.303 31.6819C298.116 33.7208 297.415 35.541 296.581 37.3503C296.396 37.747 296.196 38.1913 295.874 38.4613C293.648 40.3356 291.378 42.1517 289.145 44.0217C284.525 47.8902 279.769 51.6124 275.347 55.7003C271.655 59.12 267.805 62.326 263.91 65.4899C263.325 65.9663 262.69 66.3872 262.05 66.7845C260.317 67.8594 259.424 67.6936 258.231 66.0553C255.165 61.8449 252.132 57.6146 249.046 53.4218C247.665 51.5471 246.256 49.68 244.72 47.9324C243.839 46.9299 242.606 46.2441 241.659 45.2915C239.278 42.8966 236.751 40.5996 234.721 37.926C233.547 36.3861 232.865 34.2392 232.601 32.2776C232.013 27.9195 229.981 24.0873 228.73 19.9798C228.605 19.5623 228.339 19.1222 228.008 18.8472C227.198 18.1623 227.563 17.5388 227.957 16.8555C230.737 17.1211 233.035 15.6912 235.419 14.688L235.418 14.6877ZM248.541 10.3864C242.136 12.5711 236.296 15.6475 230.124 18.5263C232.053 20.2095 233.716 21.8165 235.895 22.6878C239.319 24.0566 242.802 25.2857 246.183 26.7496C247.288 27.2278 247.921 27.115 248.765 26.3571C251.115 24.2428 253.541 22.2179 256.107 20.011C254.327 16.0959 251.283 13.4116 248.541 10.3852L248.541 10.3864ZM257.962 18.8997C262.709 21.1276 267.88 21.844 272.892 23.115C273.35 23.2298 273.967 23.105 274.4 22.8737C277.255 21.3546 280.079 19.7739 282.916 18.2164C282.869 16.3548 281.966 15.4326 280.671 15.0651C274.942 13.4282 269.2 11.8437 263.435 10.3392C262.627 10.1278 261.563 10.2064 260.815 10.5656C258.684 11.5826 256.652 12.8157 254.601 13.9509C255.433 16.7259 256.51 18.2227 257.962 18.9021L257.962 18.8997ZM296.105 32.0679C296.136 31.3086 296.068 30.5462 296.093 29.7892C296.137 28.341 295.454 27.3388 294.258 26.6304C291.281 24.8622 288.319 23.0701 285.314 21.3494C284.605 20.9431 283.77 20.6975 282.96 20.557C282.415 20.4647 281.736 20.5388 281.255 20.794C278.921 22.0399 276.677 23.4603 274.313 24.6356C273.257 25.1628 273.05 25.7926 273.251 26.8035C273.71 29.1046 274.046 31.4381 274.629 33.7036C275.038 35.2889 275.779 36.7862 276.338 38.2392C276.83 38.2804 277.053 38.3384 277.27 38.3078C279.495 38.0095 281.735 37.7807 283.939 37.372C287.195 36.7682 290.446 36.1147 293.659 35.3162C295.544 34.8498 296.028 34.0235 296.105 32.0679ZM271.056 23.8278C267.121 22.8754 263.174 21.8846 259.205 20.9912C258.552 20.8452 257.607 20.8826 257.134 21.2611C253.924 23.8315 250.802 26.5179 247.34 29.4347C249.639 30.3428 251.448 31.3131 253.381 31.773C258.17 32.9121 262.745 34.6097 267.284 36.479C269.329 37.3257 271.507 37.8964 273.816 38.0439C273.88 37.5983 274.012 37.2823 273.953 37.0098C273.033 32.7506 272.088 28.4987 271.057 23.8293L271.056 23.8278ZM293.917 38.0892C294.134 37.786 294.069 37.2814 294.186 36.4965C293.127 36.7253 292.472 36.8684 291.82 37.0072C289.178 37.5683 286.545 38.1553 283.9 38.6763C281.762 39.0971 279.623 39.518 277.464 39.7821C276.439 39.9056 275.851 40.3774 275.309 41.1726C273.442 43.9244 271.406 46.5722 269.681 49.4084C268.398 51.5109 267.499 53.8471 266.439 56.0628C266.881 56.4557 267.084 56.8014 267.324 56.8238C268.664 56.957 270.018 57.0923 271.359 57.0452C271.877 57.0256 272.446 56.6006 272.875 56.2235C274.796 54.5456 276.627 52.751 278.585 51.1138C283.154 47.2843 287.786 43.5281 292.376 39.7195C292.95 39.2442 293.487 38.6943 293.916 38.0905L293.917 38.0892ZM291.343 23.1562C290.339 21.842 289.176 20.7895 287.996 19.7529C286.825 18.7182 286.18 17.0613 284.386 16.5098C284.594 17.7066 284.764 18.7057 284.924 19.6511C287.083 20.8313 289.212 21.9909 291.344 23.1565L291.343 23.1562ZM268.828 59.3188C268.589 59.0579 268.512 58.8903 268.394 58.8501C268.038 58.7321 267.672 58.6358 267.303 58.5742C265.344 58.2568 264.968 58.4306 264.171 60.2449C263.659 61.415 263.244 62.6323 262.786 63.829C262.95 63.9542 263.115 64.0772 263.279 64.2025C265.417 62.9171 267.283 61.3196 268.83 59.3191L268.828 59.3188ZM258.417 63.8311C258.609 63.7129 258.796 63.5947 258.99 63.4728C257.701 60.1696 256.407 56.8637 255.132 53.5558C254.348 51.5157 253.644 49.4451 252.81 47.4288C251.365 43.9426 249.929 40.4507 248.325 37.0395C247.403 35.0678 246.464 32.944 244.981 31.44C242.691 29.1148 239.614 27.8417 236.361 26.4126C236.617 27.0609 236.732 27.417 236.889 27.7488C237.947 29.996 239 32.2408 240.081 34.4738C242.114 38.6808 243.948 43.0042 246.283 47.0352C248.194 50.3442 250.701 53.3057 252.962 56.4069C254.767 58.889 256.599 61.3578 258.418 63.8326L258.417 63.8311ZM257.914 10.1365C257.864 9.97542 257.81 9.81723 257.758 9.65714C255.561 9.87258 253.363 10.088 250.632 10.3573C251.547 11.3419 252.159 11.9973 252.873 12.7697C254.643 11.8447 256.28 10.9903 257.913 10.1374L257.914 10.1365ZM239.105 25.7879C241.288 27.493 243.531 28.5722 245.204 28.6291C243.377 27.5031 241.56 26.3583 239.105 25.7879ZM236.375 35.9755C236.933 39.3101 240.028 40.4269 241.941 42.5897C240.454 37.2986 237.622 32.702 235.137 27.9363C234.761 27.2115 234.359 26.4763 234.147 25.7016C233.599 23.6951 233.381 23.3735 231.267 22.2162C231.274 22.3667 231.246 22.5312 231.295 22.6643C232.997 27.097 233.751 31.8984 236.376 35.9742L236.375 35.9755Z" fill="#DB3500"/>
<defs>
<linearGradient id="paint0_linear_327_1393" x1="281.667" y1="164.336" x2="294.287" y2="164.336" gradientUnits="userSpaceOnUse">
<stop stop-color="#FBB040"/>
<stop offset="0.9985" stop-color="#F9ED32"/>
</linearGradient>
<linearGradient id="paint1_linear_327_1393" x1="283.463" y1="164.845" x2="297.315" y2="166.111" gradientUnits="userSpaceOnUse">
<stop stop-color="#FBB040"/>
<stop offset="0.9985" stop-color="#F9ED32"/>
</linearGradient>
<linearGradient id="paint2_linear_327_1393" x1="285.146" y1="169.24" x2="296.93" y2="170.317" gradientUnits="userSpaceOnUse">
<stop stop-color="#FBB040"/>
<stop offset="0.9985" stop-color="#F9ED32"/>
</linearGradient>
<linearGradient id="paint3_linear_327_1393" x1="315.742" y1="140.341" x2="331.829" y2="140.341" gradientUnits="userSpaceOnUse">
<stop offset="0.192" stop-color="#FBB040"/>
<stop offset="0.9985" stop-color="#F9ED32"/>
</linearGradient>
<linearGradient id="paint4_linear_327_1393" x1="321.177" y1="137.218" x2="305.317" y2="102.263" gradientUnits="userSpaceOnUse">
<stop stop-color="#FBB040"/>
<stop offset="0.9985" stop-color="#F9ED32"/>
</linearGradient>
<linearGradient id="paint5_linear_327_1393" x1="296.532" y1="148.024" x2="310.173" y2="148.024" gradientUnits="userSpaceOnUse">
<stop stop-color="#F0A321"/>
<stop offset="1" stop-color="#F0582E"/>
</linearGradient>
<linearGradient id="paint6_linear_327_1393" x1="285.172" y1="139.292" x2="299.652" y2="139.292" gradientUnits="userSpaceOnUse">
<stop stop-color="#F0A321"/>
<stop offset="1" stop-color="#F0582E"/>
</linearGradient>
<linearGradient id="paint7_linear_327_1393" x1="288.223" y1="144.622" x2="300.917" y2="153.431" gradientUnits="userSpaceOnUse">
<stop stop-color="#F0A321"/>
<stop offset="1" stop-color="#F0582E"/>
</linearGradient>
<linearGradient id="paint8_linear_327_1393" x1="303.357" y1="163.779" x2="293.809" y2="154.014" gradientUnits="userSpaceOnUse">
<stop stop-color="#F0A321"/>
<stop offset="1" stop-color="#F0582E"/>
</linearGradient>
<linearGradient id="paint9_linear_327_1393" x1="291.213" y1="176.164" x2="300.08" y2="176.974" gradientUnits="userSpaceOnUse">
<stop stop-color="#FBB040"/>
<stop offset="0.9985" stop-color="#F9ED32"/>
</linearGradient>
<linearGradient id="paint10_linear_327_1393" x1="323.149" y1="148.359" x2="323.18" y2="148.359" gradientUnits="userSpaceOnUse">
<stop stop-color="#FBB040"/>
<stop offset="0.9985" stop-color="#F9ED32"/>
</linearGradient>
<linearGradient id="paint11_linear_327_1393" x1="300.609" y1="155.401" x2="323.149" y2="155.401" gradientUnits="userSpaceOnUse">
<stop offset="0.5015" stop-color="#FBB040"/>
<stop offset="0.9985" stop-color="#F9ED32"/>
</linearGradient>
<linearGradient id="paint12_linear_327_1393" x1="287.804" y1="159.666" x2="324.216" y2="125.682" gradientUnits="userSpaceOnUse">
<stop offset="0.7201" stop-color="#FBB040"/>
<stop offset="1" stop-color="#F9ED32"/>
</linearGradient>
<linearGradient id="paint13_linear_327_1393" x1="171.878" y1="126.21" x2="174.711" y2="113.912" gradientUnits="userSpaceOnUse">
<stop stop-color="#FBB040"/>
<stop offset="0.9985" stop-color="#F9ED32"/>
</linearGradient>
<linearGradient id="paint14_linear_327_1393" x1="172.776" y1="124.577" x2="177.119" y2="111.363" gradientUnits="userSpaceOnUse">
<stop stop-color="#FBB040"/>
<stop offset="0.9985" stop-color="#F9ED32"/>
</linearGradient>
<linearGradient id="paint15_linear_327_1393" x1="177.437" y1="123.922" x2="181.132" y2="112.681" gradientUnits="userSpaceOnUse">
<stop stop-color="#FBB040"/>
<stop offset="0.9985" stop-color="#F9ED32"/>
</linearGradient>
<linearGradient id="paint16_linear_327_1393" x1="156.148" y1="87.6171" x2="159.76" y2="71.94" gradientUnits="userSpaceOnUse">
<stop offset="0.192" stop-color="#FBB040"/>
<stop offset="0.9985" stop-color="#F9ED32"/>
</linearGradient>
<linearGradient id="paint17_linear_327_1393" x1="154.321" y1="81.6217" x2="116.698" y2="89.2289" gradientUnits="userSpaceOnUse">
<stop stop-color="#FBB040"/>
<stop offset="0.9985" stop-color="#F9ED32"/>
</linearGradient>
<linearGradient id="paint18_linear_327_1393" x1="159.324" y1="108.065" x2="162.386" y2="94.7715" gradientUnits="userSpaceOnUse">
<stop stop-color="#F0A321"/>
<stop offset="1" stop-color="#F0582E"/>
</linearGradient>
<linearGradient id="paint19_linear_327_1393" x1="148.264" y1="117.172" x2="151.515" y2="103.061" gradientUnits="userSpaceOnUse">
<stop stop-color="#F0A321"/>
<stop offset="1" stop-color="#F0582E"/>
</linearGradient>
<linearGradient id="paint20_linear_327_1393" x1="154.143" y1="115.396" x2="165.576" y2="105.004" gradientUnits="userSpaceOnUse">
<stop stop-color="#F0A321"/>
<stop offset="1" stop-color="#F0582E"/>
</linearGradient>
<linearGradient id="paint21_linear_327_1393" x1="176.204" y1="104.949" x2="164.545" y2="112.061" gradientUnits="userSpaceOnUse">
<stop stop-color="#F0A321"/>
<stop offset="1" stop-color="#F0582E"/>
</linearGradient>
<linearGradient id="paint22_linear_327_1393" x1="185.546" y1="119.566" x2="188.326" y2="111.107" gradientUnits="userSpaceOnUse">
<stop stop-color="#FBB040"/>
<stop offset="0.9985" stop-color="#F9ED32"/>
</linearGradient>
<linearGradient id="paint23_linear_327_1393" x1="165.623" y1="82.2015" x2="165.63" y2="82.1714" gradientUnits="userSpaceOnUse">
<stop stop-color="#FBB040"/>
<stop offset="0.9985" stop-color="#F9ED32"/>
</linearGradient>
<linearGradient id="paint24_linear_327_1393" x1="167.423" y1="105.745" x2="172.483" y2="83.7804" gradientUnits="userSpaceOnUse">
<stop offset="0.5015" stop-color="#FBB040"/>
<stop offset="0.9985" stop-color="#F9ED32"/>
</linearGradient>
<linearGradient id="paint25_linear_327_1393" x1="168.709" y1="119.183" x2="143.766" y2="76.071" gradientUnits="userSpaceOnUse">
<stop offset="0.7201" stop-color="#FBB040"/>
<stop offset="1" stop-color="#F9ED32"/>
</linearGradient>
<linearGradient id="paint26_linear_327_1393" x1="107.342" y1="272.143" x2="125.27" y2="272.143" gradientUnits="userSpaceOnUse">
<stop stop-color="#FBB040"/>
<stop offset="0.9985" stop-color="#F9ED32"/>
</linearGradient>
<linearGradient id="paint27_linear_327_1393" x1="109.893" y1="272.866" x2="129.571" y2="274.664" gradientUnits="userSpaceOnUse">
<stop stop-color="#FBB040"/>
<stop offset="0.9985" stop-color="#F9ED32"/>
</linearGradient>
<linearGradient id="paint28_linear_327_1393" x1="112.284" y1="279.11" x2="129.025" y2="280.64" gradientUnits="userSpaceOnUse">
<stop stop-color="#FBB040"/>
<stop offset="0.9985" stop-color="#F9ED32"/>
</linearGradient>
<linearGradient id="paint29_linear_327_1393" x1="155.753" y1="238.055" x2="178.608" y2="238.055" gradientUnits="userSpaceOnUse">
<stop offset="0.192" stop-color="#FBB040"/>
<stop offset="0.9985" stop-color="#F9ED32"/>
</linearGradient>
<linearGradient id="paint30_linear_327_1393" x1="163.471" y1="233.619" x2="140.941" y2="183.96" gradientUnits="userSpaceOnUse">
<stop stop-color="#FBB040"/>
<stop offset="0.9985" stop-color="#F9ED32"/>
</linearGradient>
<linearGradient id="paint31_linear_327_1393" x1="128.459" y1="248.972" x2="147.838" y2="248.972" gradientUnits="userSpaceOnUse">
<stop stop-color="#F0A321"/>
<stop offset="1" stop-color="#F0582E"/>
</linearGradient>
<linearGradient id="paint32_linear_327_1393" x1="112.324" y1="236.566" x2="132.896" y2="236.566" gradientUnits="userSpaceOnUse">
<stop stop-color="#F0A321"/>
<stop offset="1" stop-color="#F0582E"/>
</linearGradient>
<linearGradient id="paint33_linear_327_1393" x1="116.657" y1="244.138" x2="134.691" y2="256.653" gradientUnits="userSpaceOnUse">
<stop stop-color="#F0A321"/>
<stop offset="1" stop-color="#F0582E"/>
</linearGradient>
<linearGradient id="paint34_linear_327_1393" x1="138.156" y1="271.352" x2="124.592" y2="257.48" gradientUnits="userSpaceOnUse">
<stop stop-color="#F0A321"/>
<stop offset="1" stop-color="#F0582E"/>
</linearGradient>
<linearGradient id="paint35_linear_327_1393" x1="120.902" y1="288.946" x2="133.499" y2="290.097" gradientUnits="userSpaceOnUse">
<stop stop-color="#FBB040"/>
<stop offset="0.9985" stop-color="#F9ED32"/>
</linearGradient>
<linearGradient id="paint36_linear_327_1393" x1="166.273" y1="249.448" x2="166.318" y2="249.448" gradientUnits="userSpaceOnUse">
<stop stop-color="#FBB040"/>
<stop offset="0.9985" stop-color="#F9ED32"/>
</linearGradient>
<linearGradient id="paint37_linear_327_1393" x1="134.252" y1="259.448" x2="166.273" y2="259.448" gradientUnits="userSpaceOnUse">
<stop offset="0.5015" stop-color="#FBB040"/>
<stop offset="0.9985" stop-color="#F9ED32"/>
</linearGradient>
<linearGradient id="paint38_linear_327_1393" x1="116.061" y1="265.51" x2="167.789" y2="217.23" gradientUnits="userSpaceOnUse">
<stop offset="0.7201" stop-color="#FBB040"/>
<stop offset="1" stop-color="#F9ED32"/>
</linearGradient>
<clipPath id="clip0_327_1393">
<rect width="149.895" height="85.1561" fill="white" transform="matrix(-0.250467 0.968125 0.968125 0.250467 285.922 56.4182)"/>
</clipPath>
<clipPath id="clip1_327_1393">
<rect width="149.895" height="85.1561" fill="white" transform="matrix(0.887185 0.461414 0.461414 -0.887185 67.6676 97.839)"/>
</clipPath>
<clipPath id="clip2_327_1393">
<rect width="36.4643" height="26.385" fill="white" transform="translate(276.262 88.9434) rotate(111.757)"/>
</clipPath>
<clipPath id="clip3_327_1393">
<rect width="210.226" height="171.447" fill="white" transform="translate(45.4439 139.642) rotate(15.1379)"/>
</clipPath>
</defs>
</svg>
