<svg width="1440" height="720" viewBox="0 0 1440 720" fill="none" xmlns="http://www.w3.org/2000/svg">
<mask id="mask0_1199_154" style="mask-type:alpha" maskUnits="userSpaceOnUse" x="0" y="0" width="1440" height="720">
<rect width="1440" height="720" fill="#D9D9D9"/>
</mask>
<g mask="url(#mask0_1199_154)">
<g clip-path="url(#clip0_1199_154)">
<path d="M874.09 188.987L874.082 188.981L874.075 188.975C590.232 -33.041 224.426 -96.07 -70.3668 -103.611C-181.882 -106.464 -283.246 -101.377 -366.182 -93.948C-337.291 -98.272 -308.359 -102.646 -279.442 -107.017C-126.393 -130.151 26.2296 -153.221 170.004 -168.635C411.313 -194.507 627.536 -198.79 778.793 -145.648H778.796C829.537 -128.1 879.771 -120.119 924.23 -113.056C940.8 -110.424 956.567 -107.919 971.26 -105.094C1025.47 -94.67 1064.91 -79.915 1076.73 -38.668V-38.666C1115.33 94.288 1240.83 199.942 1356.57 272.332C1414.46 308.535 1469.93 336.437 1510.93 355.287C1531.43 364.713 1548.32 371.876 1560.08 376.683C1565.95 379.087 1570.55 380.901 1573.68 382.115C1575.25 382.722 1576.45 383.179 1577.25 383.484C1577.38 383.533 1577.5 383.577 1577.61 383.618C1577.12 383.963 1576.41 384.466 1575.45 385.104C1573.52 386.4 1570.63 388.253 1566.78 390.476C1559.08 394.922 1547.56 400.849 1532.32 406.76C1501.85 418.59 1456.46 430.37 1396.86 430.15C1277.67 429.7 1101.56 381.231 874.09 188.987ZM-440.134 -85.242C-428.992 -86.568 -417.319 -87.88 -405.147 -89.157C-461.578 -80.802 -517.746 -72.722 -573.223 -65.303C-566.993 -66.476 -558.97 -67.935 -549.285 -69.591C-523.704 -73.967 -486.524 -79.722 -440.134 -85.242Z" fill="url(#paint0_linear_1199_154)" stroke="black"/>
<path d="M794.488 120.089L794.497 120.096L794.507 120.101C808.082 128.427 824.856 141.402 844.501 157.385C853.493 164.7 863.081 172.641 873.234 181.051L876.056 183.388C887.259 192.665 899.132 202.483 911.631 212.633C961.625 253.23 1021.65 299.147 1088.94 337.08C1223.5 412.93 1387.21 456.89 1557.95 362.452C1558.61 362.364 1559.14 362.352 1559.55 362.4C1559.99 362.451 1560.24 362.563 1560.38 362.682C1560.5 362.784 1560.57 362.92 1560.57 363.138C1560.58 363.377 1560.5 363.711 1560.28 364.153C1559.86 365.037 1558.97 366.202 1557.59 367.619C1556.21 369.029 1554.37 370.663 1552.08 372.486C1542.9 379.779 1526.49 390.012 1503.46 400.899C1457.39 422.67 1384.88 447.02 1290.77 455.71C1102.57 473.07 827.938 427.74 505.669 173.599C346.174 47.844 135.15 33.659 -35.9231 50.878C-121.469 59.488 -197.051 75.953 -251.246 90.265C-278.344 97.421 -300.096 104.039 -315.075 108.869C-322.564 111.284 -328.361 113.252 -332.285 114.616C-334.248 115.298 -335.742 115.829 -336.747 116.19C-337.249 116.371 -337.628 116.509 -337.882 116.601L-337.916 116.614L-606.422 -240.604C-606.059 -240.619 -605.593 -240.638 -605.026 -240.659C-603.472 -240.718 -601.157 -240.8 -598.113 -240.889C-592.023 -241.067 -583.013 -241.277 -571.336 -241.402C-547.981 -241.654 -513.958 -241.568 -471.284 -240.22C-385.938 -237.525 -265.996 -229.783 -127.621 -209.593C149.138 -169.211 499.595 -79.042 794.488 120.089Z" fill="url(#paint1_linear_1199_154)" stroke="black"/>
<path d="M137.7 281.88C64.0431 318.914 22.7616 361.907 -0.107452 395.666C-11.5409 412.54 -18.3695 427.11 -22.341 437.46C-24.3266 442.64 -25.598 446.76 -26.3735 449.59C-26.7613 451.01 -27.0251 452.1 -27.1923 452.84C-27.2057 452.9 -27.2186 452.96 -27.2308 453.02L-333.321 120.751C-333.11 120.659 -332.848 120.544 -332.535 120.408C-331.592 119.999 -330.186 119.395 -328.336 118.619C-324.638 117.066 -319.166 114.825 -312.076 112.07C-297.897 106.561 -277.248 98.999 -251.374 90.789C-199.623 74.37 -126.976 55.363 -43.3883 45.015C123.525 24.35 333.995 38.214 508.842 176.045C508.367 176.138 507.737 176.261 506.959 176.413C505.024 176.794 502.171 177.359 498.5 178.098C491.159 179.576 480.548 181.75 467.465 184.534C441.301 190.101 405.252 198.107 365.712 207.862C286.65 227.368 193.578 253.878 137.7 281.88Z" fill="url(#paint2_linear_1199_154)" stroke="black"/>
</g>
</g>
<defs>
<linearGradient id="paint0_linear_1199_154" x1="545.003" y1="320.312" x2="719.602" y2="1299.31" gradientUnits="userSpaceOnUse">
<stop stop-color="#F0A321"/>
<stop offset="1" stop-color="#F0582E"/>
</linearGradient>
<linearGradient id="paint1_linear_1199_154" x1="661.135" y1="-340.752" x2="191.422" y2="682.98" gradientUnits="userSpaceOnUse">
<stop stop-color="#F0A321"/>
<stop offset="1" stop-color="#F0582E"/>
</linearGradient>
<linearGradient id="paint2_linear_1199_154" x1="-515.983" y1="993.85" x2="62.5946" y2="183.668" gradientUnits="userSpaceOnUse">
<stop stop-color="#F0A321"/>
<stop offset="1" stop-color="#F0582E"/>
</linearGradient>
<clipPath id="clip0_1199_154">
<rect width="1440" height="1364" fill="white" transform="translate(0 -598)"/>
</clipPath>
</defs>
</svg>
