<svg width="1920" height="1080" viewBox="0 0 1920 1080" fill="none" xmlns="http://www.w3.org/2000/svg">
<g clip-path="url(#clip0_375_316)">
<path d="M1222.16 235.615L1222.15 235.609L1222.14 235.603C834.625 -67.504 335.2 -153.56 -67.2954 -163.857C-222.36 -167.823 -363.048 -160.546 -477.423 -150.099C-435.919 -156.305 -394.347 -162.589 -352.798 -168.869C-143.82 -200.457 64.5812 -231.958 260.892 -253.005C590.376 -288.33 885.645 -294.184 1092.22 -221.61L1092.22 -221.609C1161.48 -197.655 1230.05 -186.762 1290.75 -177.119C1313.38 -173.524 1334.91 -170.103 1354.98 -166.243C1428.99 -152.013 1482.96 -131.852 1499.14 -75.4157L1499.14 -75.4141C1551.82 106.052 1723.13 250.282 1881.16 349.119C1960.18 398.547 2035.92 436.64 2091.89 462.376C2119.88 475.244 2142.93 485.024 2158.99 491.587C2167.02 494.868 2173.29 497.345 2177.57 499.002C2179.7 499.831 2181.34 500.455 2182.44 500.871C2182.75 500.988 2183.02 501.089 2183.24 501.173C2183.16 501.229 2183.08 501.289 2182.99 501.352C2182.33 501.825 2181.34 502.521 2180.02 503.406C2177.38 505.177 2173.42 507.709 2168.16 510.746C2157.64 516.821 2141.91 524.919 2121.1 532.998C2079.46 549.157 2017.47 565.246 1936.07 564.939C1773.27 564.323 1532.77 498.126 1222.16 235.615ZM-572.194 -139.14C-554.467 -141.249 -535.756 -143.334 -516.131 -145.344C-598.164 -133.175 -679.816 -121.41 -760.382 -110.683C-751.268 -112.44 -738.098 -114.885 -721.238 -117.769C-686.307 -123.743 -635.538 -131.602 -572.194 -139.14Z" fill="url(#paint0_linear_375_316)" stroke="black"/>
<path d="M-432.668 136.874L-799.577 -351.258C-799.046 -351.281 -798.293 -351.311 -797.322 -351.348C-795.201 -351.429 -792.04 -351.54 -787.882 -351.661C-779.566 -351.905 -767.262 -352.191 -751.317 -352.363C-719.427 -352.706 -672.968 -352.589 -614.699 -350.749C-498.161 -347.069 -334.385 -336.496 -145.439 -308.928C232.462 -253.789 711.007 -130.666 1113.69 141.251L1113.7 141.257L1113.71 141.262C1132.25 152.638 1155.17 170.361 1181.99 192.184C1194.26 202.169 1207.35 213.009 1221.21 224.488L1225.08 227.69C1240.37 240.357 1256.58 253.761 1273.65 267.619C1341.91 323.049 1423.85 385.737 1515.72 437.522C1699.44 541.081 1922.9 601.075 2155.96 472.147C2156.89 472.023 2157.64 472.004 2158.23 472.072C2158.84 472.144 2159.23 472.305 2159.45 472.499C2159.66 472.677 2159.78 472.915 2159.79 473.259C2159.79 473.625 2159.67 474.11 2159.37 474.727C2158.77 475.961 2157.54 477.568 2155.65 479.507C2153.77 481.44 2151.25 483.676 2148.12 486.168C2135.56 496.137 2113.15 510.117 2081.69 524.985C2018.78 554.718 1919.75 587.979 1791.23 599.835C1534.2 623.544 1159.18 561.642 719.118 214.607C501.399 42.9447 213.324 23.5737 -20.2428 47.0818C-137.036 58.8369 -240.226 81.316 -314.217 100.856C-351.213 110.626 -380.91 119.662 -401.36 126.255C-411.584 129.552 -419.498 132.239 -424.855 134.101C-427.534 135.032 -429.574 135.757 -430.944 136.25C-431.302 136.379 -431.614 136.491 -431.88 136.588C-432.124 136.676 -432.329 136.75 -432.494 136.811L-432.668 136.874Z" fill="url(#paint1_linear_375_316)" stroke="black"/>
<path d="M216.887 362.474L216.886 362.475C116.343 413.028 60.0009 471.709 28.7931 517.777C13.1903 540.809 3.87273 560.685 -1.54528 574.809C-4.2542 581.871 -5.98828 587.495 -7.04571 591.357C-7.57446 593.288 -7.93402 594.778 -8.16171 595.787C-8.20991 596.001 -8.25221 596.193 -8.28893 596.363L-426.636 142.241C-426.318 142.101 -425.881 141.91 -425.328 141.67C-424.04 141.11 -422.119 140.285 -419.594 139.225C-414.542 137.105 -407.069 134.044 -397.388 130.282C-378.024 122.759 -349.826 112.432 -314.493 101.221C-243.825 78.7993 -144.621 52.845 -30.4765 38.7132C197.551 10.482 485.136 29.4387 723.989 217.907C723.312 218.039 722.319 218.232 721.027 218.486C718.385 219.006 714.49 219.777 709.478 220.786C699.455 222.805 684.967 225.773 667.105 229.574C631.382 237.175 582.162 248.106 528.177 261.424C420.224 288.058 293.162 324.251 216.887 362.474Z" fill="url(#paint2_linear_375_316)" stroke="black"/>
<g style="mix-blend-mode:color-dodge">
<path d="M87.2999 830.735V881.084L43.6632 906.255L0.0332031 881.084V830.735L43.6632 805.563L87.2999 830.735Z" stroke="#424242" stroke-width="0.66" stroke-miterlimit="10"/>
<path d="M523.633 780.386V830.735L479.996 855.913L436.366 830.735V780.386L479.996 755.215L523.633 780.386Z" stroke="#424242" stroke-width="0.66" stroke-miterlimit="10"/>
<path d="M392.737 805.563L436.367 830.735V881.084L392.737 906.255L349.1 881.084" stroke="#424242" stroke-width="0.66" stroke-miterlimit="10"/>
<path d="M305.47 855.913L261.833 830.735V780.386L305.47 755.215L349.1 780.386" stroke="#424242" stroke-width="0.66" stroke-miterlimit="10"/>
<path d="M349.1 830.735V881.084L305.47 906.255L261.833 881.084" stroke="#424242" stroke-width="0.66" stroke-miterlimit="10"/>
<path d="M261.833 780.386V830.735L305.47 855.913L349.1 830.735" stroke="#424242" stroke-width="0.66" stroke-miterlimit="10"/>
<path d="M87.2998 881.083V830.735L130.93 805.563L174.566 830.735V881.083" stroke="#424242" stroke-width="0.66" stroke-miterlimit="10"/>
<path d="M174.566 881.083V830.735L218.203 805.563" stroke="#424242" stroke-width="0.66" stroke-miterlimit="10"/>
<path d="M349.1 780.386V830.735L392.737 855.913L436.367 830.735V780.386L392.737 755.215L349.1 780.386Z" stroke="#424242" stroke-width="0.66" stroke-miterlimit="10"/>
<path d="M174.566 730.043V780.386L218.203 805.564L261.833 780.386V730.043L218.203 704.866L174.566 730.043Z" stroke="#424242" stroke-width="0.66" stroke-miterlimit="10"/>
<path d="M43.6632 755.215L0.0332031 780.386V830.735L43.6632 855.913L87.2999 830.735" stroke="#424242" stroke-width="0.66" stroke-miterlimit="10"/>
<path d="M130.93 805.564L174.566 780.386V730.043L130.93 704.866L87.2998 730.043" stroke="#424242" stroke-width="0.66" stroke-miterlimit="10"/>
<path d="M87.2998 780.386V830.735L130.93 855.913L174.566 830.735" stroke="#424242" stroke-width="0.66" stroke-miterlimit="10"/>
<path d="M174.566 730.043V780.386L130.93 805.564L87.2998 780.386" stroke="#424242" stroke-width="0.66" stroke-miterlimit="10"/>
<path d="M349.1 830.735V780.386L305.47 755.214L261.833 780.386V830.735" stroke="#424242" stroke-width="0.66" stroke-miterlimit="10"/>
<path d="M261.833 830.735V780.386L218.203 755.214" stroke="#424242" stroke-width="0.66" stroke-miterlimit="10"/>
<path d="M305.477 704.866V755.215L349.113 780.386L392.743 755.215V704.866L349.113 679.694L305.477 704.866Z" stroke="#424242" stroke-width="0.66" stroke-miterlimit="10"/>
<path d="M261.84 780.386L305.477 755.215V704.866L261.84 679.694L218.21 704.866" stroke="#424242" stroke-width="0.66" stroke-miterlimit="10"/>
<path d="M218.21 755.214V805.563L261.84 830.735L305.477 805.563" stroke="#424242" stroke-width="0.66" stroke-miterlimit="10"/>
<path d="M305.477 704.866V755.215L261.84 780.386L218.21 755.215" stroke="#424242" stroke-width="0.66" stroke-miterlimit="10"/>
<path d="M392.743 805.564V755.215L349.113 730.043" stroke="#424242" stroke-width="0.66" stroke-miterlimit="10"/>
<path d="M261.84 881.084V931.432L218.21 956.604L174.573 931.432V881.084L218.21 855.912L261.84 881.084Z" stroke="#424242" stroke-width="0.66" stroke-miterlimit="10"/>
<path d="M1221.83 478.305V528.647L1178.2 553.825L1134.57 528.647V478.305L1178.2 453.127L1221.83 478.305Z" stroke="#424242" stroke-width="0.66" stroke-miterlimit="10"/>
<path d="M1090.94 503.476L1134.57 528.648V578.996L1090.94 604.174L1047.31 578.996" stroke="#424242" stroke-width="0.66" stroke-miterlimit="10"/>
<path d="M480.01 906.255L436.38 881.084V830.735L480.01 805.563L523.647 830.735" stroke="#424242" stroke-width="0.66" stroke-miterlimit="10"/>
<path d="M1047.31 528.648V578.996L1003.67 604.174L960.04 578.996" stroke="#424242" stroke-width="0.66" stroke-miterlimit="10"/>
<path d="M960.04 478.305V528.647L1003.67 553.825L1047.31 528.647" stroke="#424242" stroke-width="0.66" stroke-miterlimit="10"/>
<path d="M261.84 931.432V881.083L305.477 855.912L349.113 881.083V931.432" stroke="#424242" stroke-width="0.66" stroke-miterlimit="10"/>
<path d="M349.113 931.432V881.083L392.743 855.912" stroke="#424242" stroke-width="0.66" stroke-miterlimit="10"/>
<path d="M1047.31 478.299V528.647L1090.94 553.825L1134.57 528.647V478.299L1090.94 453.127L1047.31 478.299Z" stroke="#424242" stroke-width="0.66" stroke-miterlimit="10"/>
<path d="M349.113 780.386V830.735L392.743 855.913L436.38 830.735V780.386L392.743 755.215L349.113 780.386Z" stroke="#424242" stroke-width="0.66" stroke-miterlimit="10"/>
<path d="M218.21 805.563L174.573 830.735V881.084L218.21 906.255L261.84 881.084" stroke="#424242" stroke-width="0.66" stroke-miterlimit="10"/>
<path d="M305.477 855.913L349.113 830.735V780.386L305.477 755.215L261.84 780.386" stroke="#424242" stroke-width="0.66" stroke-miterlimit="10"/>
<path d="M261.84 830.735V881.084L305.477 906.255L349.113 881.084" stroke="#424242" stroke-width="0.66" stroke-miterlimit="10"/>
<path d="M349.113 780.386V830.735L305.477 855.913L261.84 830.735" stroke="#424242" stroke-width="0.66" stroke-miterlimit="10"/>
<path d="M523.626 679.694L479.99 654.517V604.174L523.626 578.996L567.263 604.174" stroke="#424242" stroke-width="0.66" stroke-miterlimit="10"/>
<path d="M567.263 654.517V704.866L523.626 730.043L479.99 704.866" stroke="#424242" stroke-width="0.66" stroke-miterlimit="10"/>
<path d="M479.99 604.174V654.517L523.626 679.694L567.263 654.517" stroke="#424242" stroke-width="0.66" stroke-miterlimit="10"/>
<path d="M305.457 704.866V654.517L349.093 629.345L392.723 654.517V704.866" stroke="#424242" stroke-width="0.66" stroke-miterlimit="10"/>
<path d="M392.723 704.866V654.517L436.36 629.345" stroke="#424242" stroke-width="0.66" stroke-miterlimit="10"/>
<path d="M392.723 553.825V604.174L436.36 629.345L479.99 604.174V553.825L436.36 528.647L392.723 553.825Z" stroke="#424242" stroke-width="0.66" stroke-miterlimit="10"/>
<path d="M305.457 604.168V654.517L349.093 679.694L392.723 654.517" stroke="#424242" stroke-width="0.66" stroke-miterlimit="10"/>
<path d="M829.137 855.913L872.773 830.735V780.386L829.137 755.215L785.5 780.386" stroke="#424242" stroke-width="0.66" stroke-miterlimit="10"/>
<path d="M872.773 780.386V830.735L829.137 855.913L785.5 830.735" stroke="#424242" stroke-width="0.66" stroke-miterlimit="10"/>
<path d="M1003.67 805.564L960.04 780.386V730.043L1003.67 704.866L1047.31 730.043" stroke="#424242" stroke-width="0.66" stroke-miterlimit="10"/>
<path d="M960.04 730.043V780.386L1003.67 805.564L1047.31 780.386" stroke="#424242" stroke-width="0.66" stroke-miterlimit="10"/>
<path d="M785.5 830.735V780.386L829.137 755.214L872.773 780.386V830.735" stroke="#424242" stroke-width="0.66" stroke-miterlimit="10"/>
<path d="M872.773 830.735V780.386L916.403 755.214" stroke="#424242" stroke-width="0.66" stroke-miterlimit="10"/>
<path d="M829.13 704.866V755.215L785.493 780.386L741.857 755.215V704.866L785.493 679.694L829.13 704.866Z" stroke="#424242" stroke-width="0.66" stroke-miterlimit="10"/>
<path d="M872.76 780.386L829.13 755.215V704.866L872.76 679.694L916.397 704.866" stroke="#424242" stroke-width="0.66" stroke-miterlimit="10"/>
<path d="M916.397 755.214V805.563L872.76 830.735L829.13 805.563" stroke="#424242" stroke-width="0.66" stroke-miterlimit="10"/>
<path d="M829.13 704.866V755.215L872.76 780.386L916.397 755.215" stroke="#424242" stroke-width="0.66" stroke-miterlimit="10"/>
<path d="M829.13 855.913L785.493 830.735V780.386L829.13 755.215L872.76 780.386" stroke="#424242" stroke-width="0.66" stroke-miterlimit="10"/>
<path d="M829.15 704.866V654.517L785.513 629.345L741.877 654.517V704.866" stroke="#424242" stroke-width="0.66" stroke-miterlimit="10"/>
<path d="M829.15 604.174V654.517L785.513 679.694L741.877 654.517" stroke="#424242" stroke-width="0.66" stroke-miterlimit="10"/>
<path d="M567.263 654.517V604.168L523.626 578.997L479.99 604.168V654.517" stroke="#424242" stroke-width="0.66" stroke-miterlimit="10"/>
<path d="M479.99 654.517V604.168L436.36 578.997" stroke="#424242" stroke-width="0.66" stroke-miterlimit="10"/>
<path d="M480.003 704.866V755.215L436.366 780.386L392.736 755.215V704.866L436.366 679.694L480.003 704.866Z" stroke="#424242" stroke-width="0.66" stroke-miterlimit="10"/>
<path d="M480.003 755.215V704.866L523.633 679.695L567.27 704.866V755.215" stroke="#424242" stroke-width="0.66" stroke-miterlimit="10"/>
<path d="M436.366 629.346L392.736 654.517V704.866L436.366 730.043L480.003 704.866" stroke="#424242" stroke-width="0.66" stroke-miterlimit="10"/>
<path d="M480.003 654.517V704.866L523.633 730.043L567.27 704.866" stroke="#424242" stroke-width="0.66" stroke-miterlimit="10"/>
<path d="M567.27 604.174V654.517L523.633 679.694L480.003 654.517" stroke="#424242" stroke-width="0.66" stroke-miterlimit="10"/>
<path d="M1047.31 528.647V478.298L1003.67 453.127L960.04 478.298V528.647" stroke="#424242" stroke-width="0.66" stroke-miterlimit="10"/>
<path d="M436.38 881.083V830.735L392.743 805.563" stroke="#424242" stroke-width="0.66" stroke-miterlimit="10"/>
<path d="M698.173 478.299V528.647L654.536 553.825L610.906 528.647V478.299L654.536 453.127L698.173 478.299Z" stroke="#424242" stroke-width="0.66" stroke-miterlimit="10"/>
<path d="M567.277 503.476L610.907 528.648V578.996L567.277 604.174L523.64 578.996" stroke="#424242" stroke-width="0.66" stroke-miterlimit="10"/>
<path d="M480.01 553.825L436.373 528.647V478.299L480.01 453.127L523.64 478.299" stroke="#424242" stroke-width="0.66" stroke-miterlimit="10"/>
<path d="M436.373 478.299V528.647L480.01 553.825L523.64 528.647" stroke="#424242" stroke-width="0.66" stroke-miterlimit="10"/>
<path d="M349.107 578.997V528.648L392.743 503.476" stroke="#424242" stroke-width="0.66" stroke-miterlimit="10"/>
<path d="M523.64 478.299V528.647L567.277 553.825L610.907 528.647V478.299L567.277 453.127L523.64 478.299Z" stroke="#424242" stroke-width="0.66" stroke-miterlimit="10"/>
<path d="M349.107 427.956V478.298L392.743 503.476L436.373 478.298V427.956L392.743 402.778L349.107 427.956Z" stroke="#424242" stroke-width="0.66" stroke-miterlimit="10"/>
<path d="M523.64 528.647V478.298L480.01 453.127L436.373 478.298V528.647" stroke="#424242" stroke-width="0.66" stroke-miterlimit="10"/>
<path d="M436.373 528.647V478.298L392.743 453.127" stroke="#424242" stroke-width="0.66" stroke-miterlimit="10"/>
<path d="M480.017 402.778V453.127L523.653 478.298L567.283 453.127V402.778L523.653 377.607L480.017 402.778Z" stroke="#424242" stroke-width="0.66" stroke-miterlimit="10"/>
<path d="M436.38 478.298L480.016 453.127V402.778L436.38 377.607L392.75 402.778" stroke="#424242" stroke-width="0.66" stroke-miterlimit="10"/>
<path d="M392.75 453.127V503.476L436.38 528.647L480.016 503.476" stroke="#424242" stroke-width="0.66" stroke-miterlimit="10"/>
<path d="M480.016 402.778V453.127L436.38 478.298L392.75 453.127" stroke="#424242" stroke-width="0.66" stroke-miterlimit="10"/>
<path d="M567.283 503.476V453.127L523.653 427.956" stroke="#424242" stroke-width="0.66" stroke-miterlimit="10"/>
<path d="M654.55 604.174L610.92 578.996V528.648L654.55 503.476L698.187 528.648" stroke="#424242" stroke-width="0.66" stroke-miterlimit="10"/>
<path d="M523.653 478.299V528.647L567.283 553.825L610.92 528.647V478.299L567.283 453.127L523.653 478.299Z" stroke="#424242" stroke-width="0.66" stroke-miterlimit="10"/>
<path d="M392.75 503.476L349.113 528.648V578.996L392.75 604.174L436.38 578.996" stroke="#424242" stroke-width="0.66" stroke-miterlimit="10"/>
<path d="M480.017 553.825L523.653 528.647V478.299L480.017 453.127L436.38 478.299" stroke="#424242" stroke-width="0.66" stroke-miterlimit="10"/>
<path d="M523.653 478.299V528.647L480.017 553.825L436.38 528.647" stroke="#424242" stroke-width="0.66" stroke-miterlimit="10"/>
<path d="M479.997 402.778V352.429L523.633 327.258L567.263 352.429V402.778" stroke="#424242" stroke-width="0.66" stroke-miterlimit="10"/>
<path d="M567.263 402.778V352.429L610.9 327.258" stroke="#424242" stroke-width="0.66" stroke-miterlimit="10"/>
<path d="M567.263 251.738V302.087L610.9 327.258L654.537 302.087V251.738L610.9 226.56L567.263 251.738Z" stroke="#424242" stroke-width="0.66" stroke-miterlimit="10"/>
<path d="M479.997 302.087V352.43L523.633 377.607L567.263 352.43" stroke="#424242" stroke-width="0.66" stroke-miterlimit="10"/>
<path d="M654.53 352.43V302.087L610.9 276.909" stroke="#424242" stroke-width="0.66" stroke-miterlimit="10"/>
<path d="M654.543 402.778V453.127L610.907 478.298L567.277 453.127V402.778L610.907 377.607L654.543 402.778Z" stroke="#424242" stroke-width="0.66" stroke-miterlimit="10"/>
<path d="M610.907 327.258L567.277 352.43V402.779L610.907 427.956L654.543 402.779" stroke="#424242" stroke-width="0.66" stroke-miterlimit="10"/>
<path d="M698.187 578.997V528.648L654.55 503.476L610.92 528.648V578.997" stroke="#424242" stroke-width="0.66" stroke-miterlimit="10"/>
<path d="M610.92 578.997V528.648L567.283 503.476" stroke="#424242" stroke-width="0.66" stroke-miterlimit="10"/>
<path d="M741.81 654.517V704.866L698.173 730.043L654.543 704.866V654.517L698.173 629.346L741.81 654.517Z" stroke="#424242" stroke-width="0.66" stroke-miterlimit="10"/>
<path d="M610.913 679.694L654.55 704.866V755.215L610.913 780.386L567.283 755.215" stroke="#424242" stroke-width="0.66" stroke-miterlimit="10"/>
<path d="M567.283 654.517V704.866L610.913 730.043L654.55 704.866V654.517L610.913 629.346L567.283 654.517Z" stroke="#424242" stroke-width="0.66" stroke-miterlimit="10"/>
<path d="M698.193 780.386L654.557 755.215V704.866L698.193 679.694L741.823 704.866" stroke="#424242" stroke-width="0.66" stroke-miterlimit="10"/>
<path d="M741.823 755.214V805.563L698.193 830.735L654.557 805.563" stroke="#424242" stroke-width="0.66" stroke-miterlimit="10"/>
<path d="M654.557 704.866V755.215L698.193 780.386L741.823 755.215" stroke="#424242" stroke-width="0.66" stroke-miterlimit="10"/>
<path d="M567.29 654.517V704.866L610.927 730.043L654.557 704.866V654.517L610.927 629.346L567.29 654.517Z" stroke="#424242" stroke-width="0.66" stroke-miterlimit="10"/>
<path d="M698.18 578.997V629.346L654.55 654.517L610.913 629.346V578.997L654.55 553.825L698.18 578.997Z" stroke="#424242" stroke-width="0.66" stroke-miterlimit="10"/>
<path d="M698.18 629.345V578.996L741.817 553.825L785.447 578.996V629.345" stroke="#424242" stroke-width="0.66" stroke-miterlimit="10"/>
<path d="M741.823 755.215V704.866L698.193 679.695L654.557 704.866V755.215" stroke="#424242" stroke-width="0.66" stroke-miterlimit="10"/>
<path d="M392.77 654.517L349.134 629.346V578.997L392.77 553.825L436.4 578.997" stroke="#424242" stroke-width="0.66" stroke-miterlimit="10"/>
<path d="M218.223 553.825V604.167L174.587 629.345L130.957 604.167V553.825L174.587 528.647L218.223 553.825Z" stroke="#424242" stroke-width="0.66" stroke-miterlimit="10"/>
<path d="M261.853 629.345L218.223 604.174V553.825L261.853 528.647L305.49 553.825" stroke="#424242" stroke-width="0.66" stroke-miterlimit="10"/>
<path d="M959.973 478.299V528.647L916.337 553.825L872.707 528.647V478.299L916.337 453.127L959.973 478.299Z" stroke="#424242" stroke-width="0.66" stroke-miterlimit="10"/>
<path d="M829.077 503.476L872.713 528.648V578.996L829.077 604.174L785.447 578.996" stroke="#424242" stroke-width="0.66" stroke-miterlimit="10"/>
<path d="M741.81 553.825L698.173 528.647V478.299L741.81 453.127L785.447 478.299" stroke="#424242" stroke-width="0.66" stroke-miterlimit="10"/>
<path d="M785.447 478.299V528.647L829.077 553.825L872.713 528.647V478.299L829.077 453.127L785.447 478.299Z" stroke="#424242" stroke-width="0.66" stroke-miterlimit="10"/>
<path d="M785.447 528.647V478.298L741.81 453.127L698.173 478.298V528.647" stroke="#424242" stroke-width="0.66" stroke-miterlimit="10"/>
<path d="M741.816 402.778V453.127L785.453 478.298L829.083 453.127V402.778L785.453 377.607L741.816 402.778Z" stroke="#424242" stroke-width="0.66" stroke-miterlimit="10"/>
<path d="M698.186 478.298L741.816 453.127V402.778L698.186 377.607L654.55 402.778" stroke="#424242" stroke-width="0.66" stroke-miterlimit="10"/>
<path d="M654.55 453.127V503.476L698.186 528.647L741.816 503.476" stroke="#424242" stroke-width="0.66" stroke-miterlimit="10"/>
<path d="M741.816 402.778V453.127L698.186 478.298L654.55 453.127" stroke="#424242" stroke-width="0.66" stroke-miterlimit="10"/>
<path d="M829.083 503.476V453.127L785.453 427.956" stroke="#424242" stroke-width="0.66" stroke-miterlimit="10"/>
<path d="M916.357 604.174L872.72 578.996V528.648L916.357 503.476L959.987 528.648" stroke="#424242" stroke-width="0.66" stroke-miterlimit="10"/>
<path d="M785.453 478.299V528.647L829.083 553.825L872.72 528.647V478.299L829.083 453.127L785.453 478.299Z" stroke="#424242" stroke-width="0.66" stroke-miterlimit="10"/>
<path d="M741.817 553.825L785.453 528.647V478.299L741.817 453.127L698.187 478.299" stroke="#424242" stroke-width="0.66" stroke-miterlimit="10"/>
<path d="M785.453 478.299V528.647L741.817 553.825L698.187 528.647" stroke="#424242" stroke-width="0.66" stroke-miterlimit="10"/>
<path d="M959.966 377.607L916.336 352.43V302.087L959.966 276.909L1003.6 302.087" stroke="#424242" stroke-width="0.66" stroke-miterlimit="10"/>
<path d="M1003.6 352.43V402.779L959.966 427.956L916.336 402.779" stroke="#424242" stroke-width="0.66" stroke-miterlimit="10"/>
<path d="M916.336 302.087V352.43L959.966 377.607L1003.6 352.43" stroke="#424242" stroke-width="0.66" stroke-miterlimit="10"/>
<path d="M741.797 402.778V352.429L785.433 327.258L829.07 352.429V402.778" stroke="#424242" stroke-width="0.66" stroke-miterlimit="10"/>
<path d="M829.07 402.778V352.429L872.7 327.258" stroke="#424242" stroke-width="0.66" stroke-miterlimit="10"/>
<path d="M829.07 251.738V302.087L872.7 327.258L916.337 302.087V251.738L872.7 226.56L829.07 251.738Z" stroke="#424242" stroke-width="0.66" stroke-miterlimit="10"/>
<path d="M741.797 302.087V352.43L785.433 377.607L829.07 352.43" stroke="#424242" stroke-width="0.66" stroke-miterlimit="10"/>
<path d="M1003.6 352.43V302.087L959.966 276.909L916.336 302.087V352.43" stroke="#424242" stroke-width="0.66" stroke-miterlimit="10"/>
<path d="M916.336 352.43V302.087L872.7 276.909" stroke="#424242" stroke-width="0.66" stroke-miterlimit="10"/>
<path d="M916.343 402.778V453.127L872.707 478.298L829.077 453.127V402.778L872.707 377.607L916.343 402.778Z" stroke="#424242" stroke-width="0.66" stroke-miterlimit="10"/>
<path d="M916.343 453.127V402.778L959.98 377.607L1003.61 402.778V453.127" stroke="#424242" stroke-width="0.66" stroke-miterlimit="10"/>
<path d="M872.707 327.258L829.077 352.43V402.779L872.707 427.956L916.343 402.779" stroke="#424242" stroke-width="0.66" stroke-miterlimit="10"/>
<path d="M916.343 352.43V402.779L959.98 427.956L1003.61 402.779" stroke="#424242" stroke-width="0.66" stroke-miterlimit="10"/>
<path d="M1003.61 302.087V352.43L959.98 377.607L916.343 352.43" stroke="#424242" stroke-width="0.66" stroke-miterlimit="10"/>
<path d="M959.987 578.997V528.648L916.357 503.476L872.72 528.648V578.997" stroke="#424242" stroke-width="0.66" stroke-miterlimit="10"/>
<path d="M872.72 578.997V528.648L829.083 503.476" stroke="#424242" stroke-width="0.66" stroke-miterlimit="10"/>
<path d="M1003.62 201.389L1047.25 226.56V276.909L1003.62 302.087L959.987 276.909" stroke="#424242" stroke-width="0.66" stroke-miterlimit="10"/>
<path d="M916.35 251.738L872.713 226.56V176.218L916.35 151.04L959.986 176.218" stroke="#424242" stroke-width="0.66" stroke-miterlimit="10"/>
<path d="M872.713 176.218V226.56L916.35 251.738L959.986 226.56" stroke="#424242" stroke-width="0.66" stroke-miterlimit="10"/>
<path d="M785.447 276.909V226.56L829.083 201.389" stroke="#424242" stroke-width="0.66" stroke-miterlimit="10"/>
<path d="M959.987 176.218V226.56L1003.62 251.738L1047.25 226.56V176.218L1003.62 151.04L959.987 176.218Z" stroke="#424242" stroke-width="0.66" stroke-miterlimit="10"/>
<path d="M785.447 125.869V176.218L829.083 201.389L872.713 176.218V125.869L829.083 100.691L785.447 125.869Z" stroke="#424242" stroke-width="0.66" stroke-miterlimit="10"/>
<path d="M959.986 226.56V176.218L916.35 151.04L872.713 176.218V226.56" stroke="#424242" stroke-width="0.66" stroke-miterlimit="10"/>
<path d="M872.713 226.56V176.218L829.083 151.04" stroke="#424242" stroke-width="0.66" stroke-miterlimit="10"/>
<path d="M916.357 100.691V151.04L959.993 176.218L1003.62 151.04V100.691L959.993 75.52L916.357 100.691Z" stroke="#424242" stroke-width="0.66" stroke-miterlimit="10"/>
<path d="M872.727 176.218L916.357 151.04V100.691L872.727 75.52L829.09 100.691" stroke="#424242" stroke-width="0.66" stroke-miterlimit="10"/>
<path d="M829.09 151.04V201.389L872.727 226.56L916.357 201.389" stroke="#424242" stroke-width="0.66" stroke-miterlimit="10"/>
<path d="M916.357 100.691V151.04L872.727 176.218L829.09 151.04" stroke="#424242" stroke-width="0.66" stroke-miterlimit="10"/>
<path d="M1003.62 201.389V151.04L959.993 125.869" stroke="#424242" stroke-width="0.66" stroke-miterlimit="10"/>
<path d="M959.993 176.218V226.56L1003.62 251.738L1047.26 226.56V176.218L1003.62 151.04L959.993 176.218Z" stroke="#424242" stroke-width="0.66" stroke-miterlimit="10"/>
<path d="M829.09 201.389L785.46 226.56V276.909L829.09 302.087L872.727 276.909" stroke="#424242" stroke-width="0.66" stroke-miterlimit="10"/>
<path d="M916.357 251.738L959.993 226.56V176.218L916.357 151.04L872.727 176.218" stroke="#424242" stroke-width="0.66" stroke-miterlimit="10"/>
<path d="M959.993 176.218V226.56L916.357 251.738L872.727 226.56" stroke="#424242" stroke-width="0.66" stroke-miterlimit="10"/>
<path d="M916.336 100.691V50.349L959.973 25.1713L1003.61 50.349V100.691" stroke="#424242" stroke-width="0.66" stroke-miterlimit="10"/>
<path d="M916.336 0.000141763V50.3491L959.973 75.5203L1003.61 50.3491" stroke="#424242" stroke-width="0.66" stroke-miterlimit="10"/>
<path d="M785.473 276.909V327.258L741.843 352.43L698.207 327.258V276.909L741.843 251.738L785.473 276.909Z" stroke="#424242" stroke-width="0.66" stroke-miterlimit="10"/>
<path d="M829.11 352.43L785.473 327.258V276.909L829.11 251.738L872.74 276.909" stroke="#424242" stroke-width="0.66" stroke-miterlimit="10"/>
<path d="M698.2 327.258L654.563 302.087V251.738L698.2 226.56L741.83 251.738" stroke="#424242" stroke-width="0.66" stroke-miterlimit="10"/>
<path d="M654.563 251.738V302.087L698.2 327.258L741.83 302.087" stroke="#424242" stroke-width="0.66" stroke-miterlimit="10"/>
<path d="M1789.05 352.43V402.779L1745.41 427.956L1701.78 402.779V352.43L1745.41 327.258L1789.05 352.43Z" stroke="#424242" stroke-width="0.66" stroke-miterlimit="10"/>
<path d="M1658.15 377.607L1701.79 402.778V453.127L1658.15 478.298L1614.52 453.127" stroke="#424242" stroke-width="0.66" stroke-miterlimit="10"/>
<path d="M1570.89 427.956L1527.25 402.779V352.43L1570.89 327.258L1614.52 352.43" stroke="#424242" stroke-width="0.66" stroke-miterlimit="10"/>
<path d="M1527.25 352.43V402.779L1570.89 427.956L1614.52 402.779" stroke="#424242" stroke-width="0.66" stroke-miterlimit="10"/>
<path d="M1439.98 453.127V402.778L1483.62 377.607" stroke="#424242" stroke-width="0.66" stroke-miterlimit="10"/>
<path d="M1614.52 352.43V402.779L1658.15 427.956L1701.79 402.779V352.43L1658.15 327.258L1614.52 352.43Z" stroke="#424242" stroke-width="0.66" stroke-miterlimit="10"/>
<path d="M1439.98 302.087V352.43L1483.62 377.607L1527.25 352.43V302.087L1483.62 276.909L1439.98 302.087Z" stroke="#424242" stroke-width="0.66" stroke-miterlimit="10"/>
<path d="M1614.52 402.778V352.429L1570.89 327.258L1527.25 352.429V402.778" stroke="#424242" stroke-width="0.66" stroke-miterlimit="10"/>
<path d="M1527.25 402.778V352.429L1483.62 327.258" stroke="#424242" stroke-width="0.66" stroke-miterlimit="10"/>
<path d="M1570.89 276.909V327.258L1614.53 352.43L1658.16 327.258V276.909L1614.53 251.738L1570.89 276.909Z" stroke="#424242" stroke-width="0.66" stroke-miterlimit="10"/>
<path d="M1527.26 352.43L1570.89 327.258V276.909L1527.26 251.738L1483.63 276.909" stroke="#424242" stroke-width="0.66" stroke-miterlimit="10"/>
<path d="M1483.63 327.258V377.607L1527.26 402.778L1570.89 377.607" stroke="#424242" stroke-width="0.66" stroke-miterlimit="10"/>
<path d="M1570.89 276.909V327.258L1527.26 352.43L1483.63 327.258" stroke="#424242" stroke-width="0.66" stroke-miterlimit="10"/>
<path d="M1658.16 377.607V327.258L1614.53 302.087" stroke="#424242" stroke-width="0.66" stroke-miterlimit="10"/>
<path d="M1745.43 478.298L1701.8 453.127V402.778L1745.43 377.607L1789.06 402.778" stroke="#424242" stroke-width="0.66" stroke-miterlimit="10"/>
<path d="M1614.53 352.43V402.779L1658.16 427.956L1701.8 402.779V352.43L1658.16 327.258L1614.53 352.43Z" stroke="#424242" stroke-width="0.66" stroke-miterlimit="10"/>
<path d="M1483.63 377.607L1439.99 402.778V453.127L1483.63 478.298L1527.26 453.127" stroke="#424242" stroke-width="0.66" stroke-miterlimit="10"/>
<path d="M1570.89 427.956L1614.53 402.779V352.43L1570.89 327.258L1527.26 352.43" stroke="#424242" stroke-width="0.66" stroke-miterlimit="10"/>
<path d="M1614.53 352.43V402.779L1570.89 427.956L1527.26 402.779" stroke="#424242" stroke-width="0.66" stroke-miterlimit="10"/>
<path d="M1570.87 276.909V226.56L1614.51 201.389L1658.14 226.56V276.909" stroke="#424242" stroke-width="0.66" stroke-miterlimit="10"/>
<path d="M1658.14 276.909V226.56L1701.78 201.389" stroke="#424242" stroke-width="0.66" stroke-miterlimit="10"/>
<path d="M1658.14 125.869V176.218L1701.78 201.389L1745.41 176.218V125.869L1701.78 100.691L1658.14 125.869Z" stroke="#424242" stroke-width="0.66" stroke-miterlimit="10"/>
<path d="M1570.87 176.218V226.56L1614.51 251.738L1658.14 226.56" stroke="#424242" stroke-width="0.66" stroke-miterlimit="10"/>
<path d="M1745.41 226.56V176.218L1701.78 151.04" stroke="#424242" stroke-width="0.66" stroke-miterlimit="10"/>
<path d="M1745.42 276.909V327.258L1701.78 352.43L1658.15 327.258V276.909L1701.78 251.738L1745.42 276.909Z" stroke="#424242" stroke-width="0.66" stroke-miterlimit="10"/>
<path d="M1701.78 201.389L1658.15 226.56V276.909L1701.78 302.087L1745.42 276.909" stroke="#424242" stroke-width="0.66" stroke-miterlimit="10"/>
<path d="M1789.06 453.127V402.778L1745.43 377.607L1701.8 402.778V453.127" stroke="#424242" stroke-width="0.66" stroke-miterlimit="10"/>
<path d="M1701.8 453.127V402.778L1658.16 377.607" stroke="#424242" stroke-width="0.66" stroke-miterlimit="10"/>
<path d="M1789.06 352.43L1832.69 327.258V276.909L1789.06 251.738L1745.43 276.909" stroke="#424242" stroke-width="0.66" stroke-miterlimit="10"/>
<path d="M1745.43 327.258V377.607L1789.06 402.778L1832.69 377.607" stroke="#424242" stroke-width="0.66" stroke-miterlimit="10"/>
<path d="M1832.69 276.909V327.258L1789.06 352.43L1745.43 327.258" stroke="#424242" stroke-width="0.66" stroke-miterlimit="10"/>
<path d="M1789.08 201.389L1745.44 176.218V125.869L1789.08 100.691L1832.71 125.869" stroke="#424242" stroke-width="0.66" stroke-miterlimit="10"/>
<path d="M1745.44 125.869V176.218L1789.08 201.389L1832.71 176.218" stroke="#424242" stroke-width="0.66" stroke-miterlimit="10"/>
<path d="M1396.42 780.386V830.735L1440.06 855.913L1483.69 830.735" stroke="#424242" stroke-width="0.66" stroke-miterlimit="10"/>
<path d="M1483.69 830.735V780.386L1440.06 755.214L1396.42 780.386V830.735" stroke="#424242" stroke-width="0.66" stroke-miterlimit="10"/>
<path d="M1134.55 780.386V830.735L1090.92 855.913L1047.29 830.735V780.386L1090.92 755.215L1134.55 780.386Z" stroke="#424242" stroke-width="0.66" stroke-miterlimit="10"/>
<path d="M1090.94 906.255L1047.3 881.084V830.735L1090.94 805.563L1134.57 830.735" stroke="#424242" stroke-width="0.66" stroke-miterlimit="10"/>
<path d="M1134.57 881.083V830.735L1090.94 805.563L1047.3 830.735V881.083" stroke="#424242" stroke-width="0.66" stroke-miterlimit="10"/>
<path d="M1396.35 780.386V830.735L1352.72 855.913L1309.09 830.735V780.386L1352.72 755.215L1396.35 780.386Z" stroke="#424242" stroke-width="0.66" stroke-miterlimit="10"/>
<path d="M1265.46 805.563L1309.09 830.735V881.084L1265.46 906.255L1221.83 881.084" stroke="#424242" stroke-width="0.66" stroke-miterlimit="10"/>
<path d="M1178.19 855.913L1134.56 830.735V780.386L1178.19 755.215L1221.83 780.386" stroke="#424242" stroke-width="0.66" stroke-miterlimit="10"/>
<path d="M1221.83 780.386V830.735L1265.46 855.913L1309.09 830.735V780.386L1265.46 755.215L1221.83 780.386Z" stroke="#424242" stroke-width="0.66" stroke-miterlimit="10"/>
<path d="M1221.83 830.735V780.386L1178.19 755.214L1134.56 780.386V830.735" stroke="#424242" stroke-width="0.66" stroke-miterlimit="10"/>
<path d="M1178.2 704.866V755.215L1221.83 780.386L1265.47 755.215V704.866L1221.83 679.694L1178.2 704.866Z" stroke="#424242" stroke-width="0.66" stroke-miterlimit="10"/>
<path d="M1134.57 780.386L1178.2 755.215V704.866L1134.57 679.694L1090.93 704.866" stroke="#424242" stroke-width="0.66" stroke-miterlimit="10"/>
<path d="M1090.93 755.214V805.563L1134.57 830.735L1178.2 805.563" stroke="#424242" stroke-width="0.66" stroke-miterlimit="10"/>
<path d="M1178.2 704.866V755.215L1134.57 780.386L1090.93 755.215" stroke="#424242" stroke-width="0.66" stroke-miterlimit="10"/>
<path d="M1265.47 805.564V755.215L1221.83 730.037" stroke="#424242" stroke-width="0.66" stroke-miterlimit="10"/>
<path d="M1221.83 780.386V830.735L1265.47 855.913L1309.1 830.735V780.386L1265.47 755.215L1221.83 780.386Z" stroke="#424242" stroke-width="0.66" stroke-miterlimit="10"/>
<path d="M1178.2 855.913L1221.83 830.735V780.386L1178.2 755.215L1134.57 780.386" stroke="#424242" stroke-width="0.66" stroke-miterlimit="10"/>
<path d="M1221.83 780.386V830.735L1178.2 855.913L1134.57 830.735" stroke="#424242" stroke-width="0.66" stroke-miterlimit="10"/>
<path d="M1396.35 679.694L1352.72 654.517V604.168L1396.35 578.996L1439.98 604.168" stroke="#424242" stroke-width="0.66" stroke-miterlimit="10"/>
<path d="M1439.98 654.517V704.866L1396.35 730.037L1352.72 704.866" stroke="#424242" stroke-width="0.66" stroke-miterlimit="10"/>
<path d="M1352.72 604.168V654.517L1396.35 679.694L1439.98 654.517" stroke="#424242" stroke-width="0.66" stroke-miterlimit="10"/>
<path d="M1178.18 704.866V654.517L1221.81 629.345L1265.45 654.517V704.866" stroke="#424242" stroke-width="0.66" stroke-miterlimit="10"/>
<path d="M1265.45 704.866V654.517L1309.08 629.345" stroke="#424242" stroke-width="0.66" stroke-miterlimit="10"/>
<path d="M1265.45 553.825V604.167L1309.08 629.345L1352.72 604.167V553.825L1309.08 528.647L1265.45 553.825Z" stroke="#424242" stroke-width="0.66" stroke-miterlimit="10"/>
<path d="M1178.18 604.168V654.517L1221.81 679.694L1265.45 654.517" stroke="#424242" stroke-width="0.66" stroke-miterlimit="10"/>
<path d="M1439.98 654.517V604.168L1396.35 578.997L1352.72 604.168V654.517" stroke="#424242" stroke-width="0.66" stroke-miterlimit="10"/>
<path d="M1352.72 654.517V604.168L1309.08 578.997" stroke="#424242" stroke-width="0.66" stroke-miterlimit="10"/>
<path d="M1352.72 704.866V755.215L1309.09 780.386L1265.46 755.215V704.866L1309.09 679.694L1352.72 704.866Z" stroke="#424242" stroke-width="0.66" stroke-miterlimit="10"/>
<path d="M1352.72 755.215V704.866L1396.36 679.695L1439.99 704.866V755.215" stroke="#424242" stroke-width="0.66" stroke-miterlimit="10"/>
<path d="M1309.09 629.346L1265.46 654.517V704.866L1309.09 730.043L1352.72 704.866" stroke="#424242" stroke-width="0.66" stroke-miterlimit="10"/>
<path d="M1352.72 654.517V704.866L1396.36 730.037L1439.99 704.866" stroke="#424242" stroke-width="0.66" stroke-miterlimit="10"/>
<path d="M1439.99 604.168V654.517L1396.36 679.694L1352.72 654.517" stroke="#424242" stroke-width="0.66" stroke-miterlimit="10"/>
<path d="M1396.37 881.083V830.735L1352.74 805.563L1309.1 830.735V881.083" stroke="#424242" stroke-width="0.66" stroke-miterlimit="10"/>
<path d="M1309.1 881.083V830.735L1265.47 805.563" stroke="#424242" stroke-width="0.66" stroke-miterlimit="10"/>
<path d="M1440 503.477L1483.63 528.648V578.997L1440 604.168L1396.37 578.997" stroke="#424242" stroke-width="0.66" stroke-miterlimit="10"/>
<path d="M1352.73 553.825L1309.1 528.647V478.299L1352.73 453.127L1396.37 478.299" stroke="#424242" stroke-width="0.66" stroke-miterlimit="10"/>
<path d="M1309.1 478.299V528.647L1352.73 553.825L1396.37 528.647" stroke="#424242" stroke-width="0.66" stroke-miterlimit="10"/>
<path d="M1221.83 578.997V528.648L1265.46 503.476" stroke="#424242" stroke-width="0.66" stroke-miterlimit="10"/>
<path d="M1396.37 478.299V528.647L1440 553.825L1483.63 528.647V478.299L1440 453.127L1396.37 478.299Z" stroke="#424242" stroke-width="0.66" stroke-miterlimit="10"/>
<path d="M1221.83 427.956V478.298L1265.46 503.476L1309.1 478.298V427.956L1265.46 402.778L1221.83 427.956Z" stroke="#424242" stroke-width="0.66" stroke-miterlimit="10"/>
<path d="M1396.37 528.647V478.298L1352.73 453.127L1309.1 478.298V528.647" stroke="#424242" stroke-width="0.66" stroke-miterlimit="10"/>
<path d="M1309.1 528.647V478.298L1265.46 453.127" stroke="#424242" stroke-width="0.66" stroke-miterlimit="10"/>
<path d="M1352.74 402.778V453.127L1396.37 478.298L1440.01 453.127V402.778L1396.37 377.607L1352.74 402.778Z" stroke="#424242" stroke-width="0.66" stroke-miterlimit="10"/>
<path d="M1309.11 478.298L1352.74 453.127V402.778L1309.11 377.607L1265.47 402.778" stroke="#424242" stroke-width="0.66" stroke-miterlimit="10"/>
<path d="M1265.47 453.127V503.476L1309.11 528.647L1352.74 503.476" stroke="#424242" stroke-width="0.66" stroke-miterlimit="10"/>
<path d="M1352.74 402.778V453.127L1309.11 478.298L1265.47 453.127" stroke="#424242" stroke-width="0.66" stroke-miterlimit="10"/>
<path d="M1440.01 503.476V453.127L1396.37 427.956" stroke="#424242" stroke-width="0.66" stroke-miterlimit="10"/>
<path d="M1396.37 478.299V528.647L1440.01 553.825L1483.64 528.647V478.299L1440.01 453.127L1396.37 478.299Z" stroke="#424242" stroke-width="0.66" stroke-miterlimit="10"/>
<path d="M1265.47 503.477L1221.84 528.648V578.997L1265.47 604.168L1309.11 578.997" stroke="#424242" stroke-width="0.66" stroke-miterlimit="10"/>
<path d="M1352.74 553.825L1396.37 528.647V478.299L1352.74 453.127L1309.11 478.299" stroke="#424242" stroke-width="0.66" stroke-miterlimit="10"/>
<path d="M1396.37 478.299V528.647L1352.74 553.825L1309.11 528.647" stroke="#424242" stroke-width="0.66" stroke-miterlimit="10"/>
<path d="M1352.72 402.778V352.429L1396.35 327.258L1439.99 352.429V402.778" stroke="#424242" stroke-width="0.66" stroke-miterlimit="10"/>
<path d="M1352.72 302.087V352.43L1396.35 377.607L1439.99 352.43" stroke="#424242" stroke-width="0.66" stroke-miterlimit="10"/>
<path d="M1221.85 578.997V629.346L1178.22 654.517L1134.59 629.346V578.997L1178.22 553.825L1221.85 578.997Z" stroke="#424242" stroke-width="0.66" stroke-miterlimit="10"/>
<path d="M1265.49 654.517L1221.85 629.346V578.997L1265.49 553.825L1309.13 578.997" stroke="#424242" stroke-width="0.66" stroke-miterlimit="10"/>
<path d="M1134.58 629.345L1090.94 604.167V553.825L1134.58 528.647L1178.22 553.825" stroke="#424242" stroke-width="0.66" stroke-miterlimit="10"/>
<path d="M1090.94 553.825V604.167L1134.58 629.345L1178.22 604.167" stroke="#424242" stroke-width="0.66" stroke-miterlimit="10"/>
<path d="M1265.45 402.778V453.127L1221.82 478.298L1178.18 453.127V402.778L1221.82 377.607L1265.45 402.778Z" stroke="#424242" stroke-width="0.66" stroke-miterlimit="10"/>
<path d="M1047.29 478.305L1003.66 453.127V402.778L1047.29 377.607L1090.92 402.778" stroke="#424242" stroke-width="0.66" stroke-miterlimit="10"/>
<path d="M1090.92 402.778V453.127L1134.55 478.298L1178.19 453.127V402.778L1134.55 377.607L1090.92 402.778Z" stroke="#424242" stroke-width="0.66" stroke-miterlimit="10"/>
<path d="M1090.92 453.127V402.778L1047.29 377.607L1003.66 402.778V453.127" stroke="#424242" stroke-width="0.66" stroke-miterlimit="10"/>
<path d="M1047.3 327.258V377.607L1090.93 402.778L1134.57 377.607V327.258L1090.93 302.087L1047.3 327.258Z" stroke="#424242" stroke-width="0.66" stroke-miterlimit="10"/>
<path d="M1134.57 427.956V377.607L1090.93 352.43" stroke="#424242" stroke-width="0.66" stroke-miterlimit="10"/>
<path d="M1090.93 402.778V453.127L1134.57 478.305L1178.2 453.127V402.778L1134.57 377.607L1090.93 402.778Z" stroke="#424242" stroke-width="0.66" stroke-miterlimit="10"/>
<path d="M1047.3 478.305L1090.93 453.127V402.778L1047.3 377.607L1003.66 402.778" stroke="#424242" stroke-width="0.66" stroke-miterlimit="10"/>
<path d="M1090.93 402.778V453.127L1047.3 478.305L1003.66 453.127" stroke="#424242" stroke-width="0.66" stroke-miterlimit="10"/>
<path d="M1047.28 327.258V276.909L1090.91 251.738L1134.55 276.909V327.258" stroke="#424242" stroke-width="0.66" stroke-miterlimit="10"/>
<path d="M1134.55 327.258V276.909L1178.18 251.738" stroke="#424242" stroke-width="0.66" stroke-miterlimit="10"/>
<path d="M1134.55 176.218V226.56L1178.18 251.738L1221.81 226.56V176.218L1178.18 151.04L1134.55 176.218Z" stroke="#424242" stroke-width="0.66" stroke-miterlimit="10"/>
<path d="M1047.28 226.56V276.909L1090.91 302.087L1134.55 276.909" stroke="#424242" stroke-width="0.66" stroke-miterlimit="10"/>
<path d="M1221.81 276.909V226.56L1178.18 201.389" stroke="#424242" stroke-width="0.66" stroke-miterlimit="10"/>
<path d="M1221.82 327.258V377.607L1178.19 402.778L1134.55 377.607V327.258L1178.19 302.087L1221.82 327.258Z" stroke="#424242" stroke-width="0.66" stroke-miterlimit="10"/>
<path d="M1178.19 251.738L1134.55 276.909V327.258L1178.19 352.43L1221.82 327.258" stroke="#424242" stroke-width="0.66" stroke-miterlimit="10"/>
<path d="M1309.09 478.305L1265.46 453.127V402.778L1309.09 377.607L1352.72 402.778" stroke="#424242" stroke-width="0.66" stroke-miterlimit="10"/>
<path d="M1352.72 453.127V402.778L1309.09 377.607L1265.46 402.778V453.127" stroke="#424242" stroke-width="0.66" stroke-miterlimit="10"/>
<path d="M1309.1 327.258V377.607L1352.73 402.778L1396.37 377.607V327.258L1352.73 302.087L1309.1 327.258Z" stroke="#424242" stroke-width="0.66" stroke-miterlimit="10"/>
<path d="M1265.46 402.778L1309.1 377.607V327.258L1265.46 302.087L1221.83 327.258" stroke="#424242" stroke-width="0.66" stroke-miterlimit="10"/>
<path d="M1221.83 377.607V427.956L1265.46 453.127L1309.1 427.956" stroke="#424242" stroke-width="0.66" stroke-miterlimit="10"/>
<path d="M1309.1 327.258V377.607L1265.46 402.778L1221.83 377.607" stroke="#424242" stroke-width="0.66" stroke-miterlimit="10"/>
<path d="M1309.1 478.305L1352.73 453.127V402.778L1309.1 377.607L1265.46 402.778" stroke="#424242" stroke-width="0.66" stroke-miterlimit="10"/>
<path d="M1309.08 327.258V276.909L1352.71 251.738L1396.35 276.909V327.258" stroke="#424242" stroke-width="0.66" stroke-miterlimit="10"/>
<path d="M1309.08 226.56V276.909L1352.71 302.087L1396.35 276.909" stroke="#424242" stroke-width="0.66" stroke-miterlimit="10"/>
<path d="M1352.76 201.389V251.738L1309.12 276.909L1265.49 251.738V201.389L1309.12 176.218L1352.76 201.389Z" stroke="#424242" stroke-width="0.66" stroke-miterlimit="10"/>
<path d="M1265.48 251.738L1221.85 226.56V176.218L1265.48 151.04L1309.11 176.218" stroke="#424242" stroke-width="0.66" stroke-miterlimit="10"/>
<path d="M1221.85 176.218V226.56L1265.48 251.738L1309.11 226.56" stroke="#424242" stroke-width="0.66" stroke-miterlimit="10"/>
<path d="M436.3 327.258V377.607L479.937 402.778L523.567 377.607V327.258L479.937 302.087L436.3 327.258Z" stroke="#424242" stroke-width="0.66" stroke-miterlimit="10"/>
<path d="M349.04 427.956V377.607L392.67 352.43L436.307 377.607V427.956" stroke="#424242" stroke-width="0.66" stroke-miterlimit="10"/>
<path d="M349.04 327.258V377.607L392.67 402.778L436.307 377.607" stroke="#424242" stroke-width="0.66" stroke-miterlimit="10"/>
<path d="M130.863 352.43V302.087L174.493 276.909" stroke="#424242" stroke-width="0.66" stroke-miterlimit="10"/>
<path d="M130.863 201.389V251.738L174.493 276.909L218.13 251.738V201.389L174.493 176.218L130.863 201.389Z" stroke="#424242" stroke-width="0.66" stroke-miterlimit="10"/>
<path d="M218.13 302.087V251.738L174.493 226.56" stroke="#424242" stroke-width="0.66" stroke-miterlimit="10"/>
<path d="M174.507 276.909L130.87 302.087V352.43L174.507 377.607L218.137 352.43" stroke="#424242" stroke-width="0.66" stroke-miterlimit="10"/>
<path d="M305.417 352.43V402.779L349.047 427.956L392.683 402.779V352.43L349.047 327.258L305.417 352.43Z" stroke="#424242" stroke-width="0.66" stroke-miterlimit="10"/>
<path d="M261.78 427.956L305.417 402.779V352.43L261.78 327.258L218.15 352.43" stroke="#424242" stroke-width="0.66" stroke-miterlimit="10"/>
<path d="M305.396 352.43V302.087L349.026 276.909L392.663 302.087V352.43" stroke="#424242" stroke-width="0.66" stroke-miterlimit="10"/>
<path d="M305.396 251.738V302.087L349.026 327.258L392.663 302.087" stroke="#424242" stroke-width="0.66" stroke-miterlimit="10"/>
<path d="M349.073 226.56V276.909L305.436 302.087L261.806 276.909V226.56L305.436 201.389L349.073 226.56Z" stroke="#424242" stroke-width="0.66" stroke-miterlimit="10"/>
<path d="M261.793 276.909L218.163 251.738V201.389L261.793 176.218L305.43 201.389" stroke="#424242" stroke-width="0.66" stroke-miterlimit="10"/>
<path d="M218.163 201.389V251.738L261.793 276.909L305.43 251.738" stroke="#424242" stroke-width="0.66" stroke-miterlimit="10"/>
<path d="M218.243 553.825V503.476L174.607 478.299L130.977 503.476V553.825" stroke="#424242" stroke-width="0.66" stroke-miterlimit="10"/>
<path d="M87.2667 327.258V377.607L43.63 402.778L0 377.607V327.258L43.63 302.087L87.2667 327.258Z" stroke="#424242" stroke-width="0.66" stroke-miterlimit="10"/>
<path d="M43.6499 453.127L0.0131836 427.956V377.607L43.6499 352.429L87.2799 377.607" stroke="#424242" stroke-width="0.66" stroke-miterlimit="10"/>
<path d="M87.2799 427.956V377.607L43.6499 352.43L0.0131836 377.607V427.956" stroke="#424242" stroke-width="0.66" stroke-miterlimit="10"/>
<path d="M130.903 503.476V553.825L87.2731 578.997L43.6365 553.825V503.476L87.2731 478.299L130.903 503.476Z" stroke="#424242" stroke-width="0.66" stroke-miterlimit="10"/>
<path d="M87.2866 629.345L43.6499 604.167V553.825L87.2866 528.647L130.923 553.825" stroke="#424242" stroke-width="0.66" stroke-miterlimit="10"/>
<path d="M87.273 427.956V478.298L43.643 503.476L0.00634766 478.298V427.956L43.643 402.778L87.273 427.956Z" stroke="#424242" stroke-width="0.66" stroke-miterlimit="10"/>
<path d="M130.923 604.168V553.826L87.2866 528.648L43.6499 553.826V604.168" stroke="#424242" stroke-width="0.66" stroke-miterlimit="10"/>
<path d="M1527.28 704.866V755.215L1483.64 780.386L1440.01 755.215V704.866L1483.64 679.694L1527.28 704.866Z" stroke="#424242" stroke-width="0.66" stroke-miterlimit="10"/>
<path d="M1570.89 730.037V679.695L1527.26 654.517" stroke="#424242" stroke-width="0.66" stroke-miterlimit="10"/>
<path d="M1570.89 578.997V629.346L1527.26 654.517L1483.63 629.346V578.997L1527.26 553.825L1570.89 578.997Z" stroke="#424242" stroke-width="0.66" stroke-miterlimit="10"/>
<path d="M1483.63 679.694V629.345L1527.26 604.168" stroke="#424242" stroke-width="0.66" stroke-miterlimit="10"/>
<path d="M1483.62 629.345L1439.98 604.167V553.825L1483.62 528.647L1527.25 553.825" stroke="#424242" stroke-width="0.66" stroke-miterlimit="10"/>
<path d="M1527.25 604.168V654.517L1483.62 679.694L1439.98 654.517" stroke="#424242" stroke-width="0.66" stroke-miterlimit="10"/>
<path d="M1439.98 553.825V604.167L1483.62 629.345L1527.25 604.167" stroke="#424242" stroke-width="0.66" stroke-miterlimit="10"/>
<path d="M1527.25 654.517L1570.89 679.695V730.044L1527.25 755.215L1483.62 730.044" stroke="#424242" stroke-width="0.66" stroke-miterlimit="10"/>
<path d="M1570.87 730.037V780.386L1614.5 805.564L1658.13 780.386V730.037L1614.5 704.866L1570.87 730.037Z" stroke="#424242" stroke-width="0.66" stroke-miterlimit="10"/>
<path d="M1527.24 805.564L1570.87 780.386V730.037L1527.24 704.866L1483.6 730.037" stroke="#424242" stroke-width="0.66" stroke-miterlimit="10"/>
<path d="M1701.78 704.866V755.215L1745.41 780.386L1789.04 755.215V704.866L1745.41 679.694L1701.78 704.866Z" stroke="#424242" stroke-width="0.66" stroke-miterlimit="10"/>
<path d="M1658.15 780.386L1701.78 755.215V704.866L1658.15 679.694L1614.51 704.866" stroke="#424242" stroke-width="0.66" stroke-miterlimit="10"/>
<path d="M1701.78 704.866V755.215L1658.15 780.386L1614.51 755.215" stroke="#424242" stroke-width="0.66" stroke-miterlimit="10"/>
<path d="M1701.76 704.866V654.517L1745.39 629.345L1789.03 654.517V704.866" stroke="#424242" stroke-width="0.66" stroke-miterlimit="10"/>
<path d="M1701.76 604.168V654.517L1745.39 679.694L1789.03 654.517" stroke="#424242" stroke-width="0.66" stroke-miterlimit="10"/>
<path d="M1832.73 478.299V528.647L1876.37 553.825L1920 528.647V478.299L1876.37 453.127L1832.73 478.299Z" stroke="#424242" stroke-width="0.66" stroke-miterlimit="10"/>
<path d="M1876.35 604.168L1919.99 578.997V528.648L1876.35 503.477L1832.72 528.648" stroke="#424242" stroke-width="0.66" stroke-miterlimit="10"/>
<path d="M1832.72 578.997V528.648L1876.35 503.476L1919.99 528.648V578.997" stroke="#424242" stroke-width="0.66" stroke-miterlimit="10"/>
<path d="M1789.1 654.517V704.866L1832.73 730.037L1876.36 704.866V654.517L1832.73 629.346L1789.1 654.517Z" stroke="#424242" stroke-width="0.66" stroke-miterlimit="10"/>
<path d="M1832.71 780.386L1876.35 755.215V704.866L1832.71 679.694L1789.08 704.866" stroke="#424242" stroke-width="0.66" stroke-miterlimit="10"/>
<path d="M1832.73 578.997V629.346L1876.36 654.517L1919.99 629.346V578.997L1876.36 553.825L1832.73 578.997Z" stroke="#424242" stroke-width="0.66" stroke-miterlimit="10"/>
<path d="M654.557 755.215V704.866L610.927 679.695" stroke="#424242" stroke-width="0.66" stroke-miterlimit="10"/>
</g>
</g>
<defs>
<linearGradient id="paint0_linear_375_316" x1="772.938" y1="414.787" x2="1011.34" y2="1751.51" gradientUnits="userSpaceOnUse">
<stop stop-color="#F0A321"/>
<stop offset="1" stop-color="#F0582E"/>
</linearGradient>
<linearGradient id="paint1_linear_375_316" x1="931.505" y1="-487.833" x2="290.156" y2="909.972" gradientUnits="userSpaceOnUse">
<stop stop-color="#F0A321"/>
<stop offset="1" stop-color="#F0582E"/>
</linearGradient>
<linearGradient id="paint2_linear_375_316" x1="-675.737" y1="1334.44" x2="114.256" y2="228.213" gradientUnits="userSpaceOnUse">
<stop stop-color="#F0A321"/>
<stop offset="1" stop-color="#F0582E"/>
</linearGradient>
<clipPath id="clip0_375_316">
<rect width="1920" height="1080" fill="white"/>
</clipPath>
</defs>
</svg>
