<svg width="112" height="64" viewBox="0 0 112 64" fill="none" xmlns="http://www.w3.org/2000/svg">
<path d="M65.3798 30.3165C66.736 30.3165 67.7955 31.3831 67.7885 32.7535C67.7814 34.1167 66.7219 35.1621 65.3445 35.155C63.9742 35.148 62.9005 34.0885 62.9005 32.7393C62.9005 31.3902 64.0942 30.2035 65.3798 30.3165Z" fill="url(#paint0_linear_39_1375)"/>
<path d="M16.4792 54.3607H11.9232V38.1712H16.4792C17.9484 38.1712 19.0715 38.482 19.8343 39.0894C20.5972 39.704 20.9786 40.5586 20.9786 41.6535V50.8714C20.9786 51.9874 20.6043 52.8421 19.8485 53.4495C19.0927 54.0641 17.9696 54.3607 16.4792 54.3607ZM18.9938 50.8784V41.6605C18.9938 41.1308 18.7748 40.6646 18.3298 40.262C17.8848 39.8664 17.2703 39.6616 16.4721 39.6616H13.8939V52.8633H16.4721C17.2632 52.8633 17.8848 52.6655 18.3298 52.277C18.7748 51.8956 18.9938 51.4223 18.9938 50.8784Z" fill="white"/>
<path d="M34.9926 54.3607H34.145L33.4104 52.7644C33.0148 53.3648 32.4921 53.838 31.8564 54.1983C31.2136 54.5585 30.5073 54.7351 29.7303 54.7351C27.0109 54.7351 25.6547 53.5696 25.6547 51.2457V48.7523C25.6547 46.4284 27.0109 45.2629 29.7303 45.2629H33.0148V41.1802C33.0148 40.5798 32.7959 40.1207 32.365 39.7817C31.9271 39.4497 31.2913 39.2801 30.4367 39.2801C28.7555 39.2801 27.915 39.9088 27.915 41.1732V42.6424H25.9372V41.2721C25.9372 40.156 26.3116 39.3013 27.0532 38.6939C27.802 38.0864 28.9251 37.7827 30.4367 37.7827C31.9482 37.7827 33.0855 38.0864 33.8483 38.6939C34.6112 39.3013 34.9926 40.1631 34.9926 41.2721V54.3607ZM33.0148 46.7675H29.7303C28.9392 46.7675 28.3882 46.9441 28.0845 47.2902C27.7808 47.6363 27.6324 48.1307 27.6324 48.7594V51.2528C27.6324 51.8814 27.7808 52.3759 28.0845 52.722C28.3882 53.0681 28.9321 53.2447 29.7303 53.2447C30.5214 53.2447 31.256 52.9763 31.9412 52.4324C32.6193 51.8956 32.9795 51.3587 33.0148 50.829V46.7675Z" fill="white"/>
<path d="M45.2206 54.3607H43.2357V49.7765C40.6717 49.5293 39.3861 48.3779 39.3861 46.3366V38.1712H41.371V46.3436C41.371 47.6716 42.3175 48.3356 44.2034 48.3356C46.0894 48.3356 47.0359 47.6716 47.0359 46.3436V38.1712H49.0207V46.3436C49.0207 48.385 47.7564 49.5293 45.2276 49.7836V54.3607H45.2206Z" fill="white"/>
<path d="M53.6826 54.3607V38.1712H55.6675V52.8703H60.8521V54.3678H53.6826V54.3607Z" fill="white"/>
<path d="M66.2274 54.3607H64.2426V38.1712H66.2274V54.3607Z" fill="white"/>
<path d="M75.6572 47.6363V46.1388H80.8135V51.2457C80.8135 52.3617 80.4251 53.2164 79.6551 53.8239C78.8781 54.4314 77.7197 54.7351 76.1728 54.7351C74.6259 54.7351 73.4534 54.4314 72.6623 53.8239C71.8711 53.2164 71.4756 52.3617 71.4756 51.2457V41.2791C71.4756 40.1631 71.8641 39.3084 72.634 38.7009C73.411 38.0935 74.5694 37.7897 76.1163 37.7897C77.6632 37.7897 78.8358 38.0935 79.6269 38.7009C80.418 39.3084 80.8135 40.1701 80.8135 41.2791V42.6494H78.8287V41.2791C78.8287 39.9512 77.9316 39.2872 76.1375 39.2872C74.3434 39.2872 73.4463 39.9512 73.4463 41.2791V51.2457C73.4463 52.5737 74.3434 53.2376 76.1375 53.2376C77.9316 53.2376 78.8287 52.5737 78.8287 51.2457V47.6363H75.6572Z" fill="white"/>
<path d="M88.0325 54.3607H86.0476V38.1712H88.0325V45.3971H93.6126V38.1712H95.5975V54.3678H93.6126V46.8946H88.0325V54.3607Z" fill="white"/>
<path d="M11.027 36.0521C11.0124 36.0594 10.9979 36.0594 10.9979 36.0666C11.0052 36.0594 11.0124 36.0594 11.027 36.0521Z" fill="url(#paint1_linear_39_1375)"/>
<path d="M76.2011 63.4303H75.4877V57.5887H77.0275C77.5573 57.5887 77.9599 57.7018 78.2354 57.9207C78.5108 58.1397 78.6521 58.4505 78.6521 58.8461V60.3718C78.6521 60.7744 78.5179 61.0852 78.2424 61.3041C77.967 61.5231 77.5643 61.6291 77.0275 61.6291H76.2011V63.4303V63.4303ZM77.9387 60.3718V58.8461C77.9387 58.62 77.861 58.4434 77.7056 58.3163C77.5502 58.1891 77.3242 58.1256 77.0346 58.1256H76.2081V61.0922H77.0346C77.635 61.0922 77.9387 60.8521 77.9387 60.3718Z" fill="white"/>
<path d="M81.0043 63.4303H80.2908V57.5888H80.5946L80.8912 58.2527C81.1102 57.7159 81.4563 57.4545 81.9366 57.4545C82.7489 57.4545 83.1516 57.843 83.1516 58.62V59.2063H82.4664V58.5847C82.4664 58.1891 82.2757 57.9914 81.9013 57.9914C81.6753 57.9914 81.4704 58.1044 81.2797 58.3304C81.089 58.5565 80.9972 58.8884 80.9972 59.3193V63.4303H81.0043Z" fill="white"/>
<path d="M87.7005 58.7119V62.3072C87.7005 62.7098 87.5521 63.0206 87.2696 63.2396C86.98 63.4585 86.5491 63.5645 85.9699 63.5645C85.3907 63.5645 84.9598 63.4585 84.6702 63.2396C84.3806 63.0206 84.2323 62.7098 84.2323 62.3072V58.7119C84.2323 58.3092 84.3736 57.9984 84.6632 57.7795C84.9528 57.5605 85.3837 57.4545 85.9629 57.4545C86.535 57.4545 86.9729 57.5605 87.2625 57.7795C87.5521 57.9984 87.7005 58.3092 87.7005 58.7119ZM86.9871 62.3072V58.7119C86.9871 58.2315 86.648 57.9914 85.9629 57.9914C85.2848 57.9914 84.9387 58.2315 84.9387 58.7119V62.3072C84.9387 62.7875 85.2777 63.0277 85.9629 63.0277C86.648 63.0277 86.9871 62.7875 86.9871 62.3072Z" fill="white"/>
<path d="M89.4381 57.5887H91.6843V58.1256H90.1515V62.4343C90.1515 62.6038 90.201 62.7451 90.2999 62.8581C90.3987 62.9711 90.54 63.0276 90.7166 63.0276C90.9003 63.0276 91.0345 62.9711 91.1334 62.8581C91.2252 62.7451 91.2746 62.6038 91.2746 62.4343V61.3607H91.988V62.3919C91.988 62.7663 91.875 63.0559 91.649 63.2607C91.423 63.4585 91.1122 63.5645 90.7237 63.5645C90.3352 63.5645 90.0244 63.4656 89.7913 63.2607C89.5582 63.0559 89.4381 62.7734 89.4381 62.3919V57.5887V57.5887Z" fill="white"/>
<path d="M96.7417 58.7119V62.3072C96.7417 62.7098 96.5934 63.0206 96.3109 63.2396C96.0213 63.4585 95.5904 63.5645 95.0112 63.5645C94.432 63.5645 94.0011 63.4585 93.7115 63.2396C93.4219 63.0206 93.2736 62.7098 93.2736 62.3072V58.7119C93.2736 58.3092 93.4148 57.9984 93.7044 57.7795C93.994 57.5605 94.4249 57.4545 95.0041 57.4545C95.5763 57.4545 96.0142 57.5605 96.3038 57.7795C96.6005 57.9984 96.7417 58.3092 96.7417 58.7119ZM96.0283 62.3072V58.7119C96.0283 58.2315 95.6893 57.9914 95.0041 57.9914C94.326 57.9914 93.9799 58.2315 93.9799 58.7119V62.3072C93.9799 62.7875 94.319 63.0277 95.0041 63.0277C95.6893 63.0277 96.0283 62.7875 96.0283 62.3072Z" fill="white"/>
<path d="M101.142 62.3072V61.8127H101.856V62.3072C101.856 62.7098 101.714 63.0206 101.439 63.2396C101.156 63.4585 100.74 63.5645 100.182 63.5645C99.6237 63.5645 99.1999 63.4585 98.9173 63.2396C98.6277 63.0206 98.4865 62.7098 98.4865 62.3072V58.7119C98.4865 58.3092 98.6277 57.9984 98.9032 57.7795C99.1857 57.5605 99.6025 57.4545 100.16 57.4545C100.719 57.4545 101.142 57.5605 101.425 57.7795C101.714 57.9984 101.856 58.3092 101.856 58.7119V59.5665H101.142V58.7119C101.142 58.2315 100.817 57.9914 100.175 57.9914C99.5248 57.9914 99.2069 58.2315 99.2069 58.7119V62.3072C99.2069 62.7875 99.5318 63.0277 100.175 63.0277C100.817 63.0277 101.142 62.7875 101.142 62.3072Z" fill="white"/>
<path d="M106.963 58.7119V62.3072C106.963 62.7098 106.814 63.0206 106.532 63.2396C106.242 63.4585 105.811 63.5645 105.232 63.5645C104.653 63.5645 104.222 63.4585 103.932 63.2396C103.643 63.0206 103.494 62.7098 103.494 62.3072V58.7119C103.494 58.3092 103.636 57.9984 103.925 57.7795C104.215 57.5605 104.646 57.4545 105.225 57.4545C105.797 57.4545 106.235 57.5605 106.525 57.7795C106.814 57.9984 106.963 58.3092 106.963 58.7119ZM106.249 62.3072V58.7119C106.249 58.2315 105.91 57.9914 105.225 57.9914C104.547 57.9914 104.201 58.2315 104.201 58.7119V62.3072C104.201 62.7875 104.54 63.0277 105.225 63.0277C105.91 63.0277 106.249 62.7875 106.249 62.3072Z" fill="white"/>
<path d="M108.856 63.4303V57.5887H109.569V62.8934H111.441V63.4303H108.856V63.4303Z" fill="white"/>
<path d="M100.832 38.1712V39.6687H105.077V51.5C105.077 52.5454 105.402 53.3507 106.051 53.9016C106.341 54.1488 106.68 54.3466 107.054 54.4808V51.5989V47.1207V39.6616H111.3V38.1641H100.832V38.1712Z" fill="white"/>
<path d="M0 37.0693L0.713412 39.0894L7.32485 35.2681L0 37.0693Z" fill="url(#paint2_linear_39_1375)"/>
<path d="M1.50449 41.4063L0.868774 39.3508L7.32482 35.2681L9.42975 34.3569L1.50449 41.4063Z" fill="url(#paint3_linear_39_1375)"/>
<path d="M4.40053 46.5909L1.85767 41.7524L4.87379 38.2913L9.42975 34.3569L4.40053 46.5909Z" fill="url(#paint4_linear_39_1375)"/>
<path d="M27.7101 18.464C26.5941 20.0957 25.5346 20.8515 24.6234 21.1552C23.585 23.2884 21.9887 25.7253 19.5588 28.0704C21.3106 27.7596 24.4327 27.0885 24.913 26.2551C26.0219 25.9443 28.1763 17.7859 27.7101 18.464Z" fill="url(#paint5_linear_39_1375)"/>
<path d="M18.1462 23.6062C19.8838 21.2612 21.3742 18.57 22.4055 15.5044C22.356 13.3712 21.7274 6.0393 21.7274 6.0393C21.7274 6.0393 15.5185 1.2573 9.8183 0C13.7315 4.49945 19.2905 14.3601 18.1462 23.6062Z" fill="url(#paint6_linear_39_1375)"/>
<path d="M2.81836 35.7343C2.81836 35.7343 3.78606 28.7767 8.05948 24.9483C11.7113 21.9181 10.567 19.6931 10.567 19.6931C10.567 19.6931 8.74464 22.801 6.55495 23.0341C5.86979 23.1047 5.21995 23.7404 4.64781 24.7647C3.39051 26.9897 3.00201 31.701 2.81836 35.7343Z" fill="url(#paint7_linear_39_1375)"/>
<path d="M4.52067 24.8847C5.09281 23.8676 5.86273 23.3096 6.54789 23.2389C8.74464 23.0058 10.4399 19.8131 10.4399 19.8131C10.4399 19.8131 8.67401 23.5921 3.81431 23.2884C3.41876 23.3802 2.28153 23.7192 2.04137 25.3933C1.85772 25.7182 4.52067 24.8847 4.52067 24.8847Z" fill="url(#paint8_linear_39_1375)"/>
<path d="M5.99692 34.2086L2.81128 35.819C2.81128 35.819 3.65184 29.3983 7.60034 25.3297C7.54383 25.2026 11.57 22.6244 10.567 19.686C10.5811 19.3116 12.5095 23.3308 7.62152 27.6748C5.20581 29.8221 5.99692 34.2086 5.99692 34.2086Z" fill="url(#paint9_linear_39_1375)"/>
<path d="M5.9969 34.2086C5.9969 34.2086 4.95151 30.027 7.61445 27.6678C7.61445 27.6678 7.6427 29.7797 7.92524 30.7333C8.29961 31.9906 9.04128 32.2661 9.04128 32.2661L5.9969 34.2086Z" fill="url(#paint10_linear_39_1375)"/>
<path d="M9.77585 54.4737L5.16339 48.1449L5.74966 42.9037L9.42975 34.3569L9.77585 54.4737Z" fill="url(#paint11_linear_39_1375)"/>
<path d="M24.094 27.8867C24.0867 27.894 24.0867 27.9012 24.0795 27.9085C24.0867 27.9012 24.094 27.894 24.094 27.8867Z" fill="url(#paint12_linear_39_1375)"/>
<path d="M18.916 28.6778C18.0755 29.4407 17.1431 30.1823 16.1048 30.9028C16.3308 31.8493 15.9564 33.7565 10.9908 36.0733C10.9908 36.0733 19.5659 34.9502 24.0795 27.915C23.8534 28.1198 20.9998 28.9745 18.916 28.6778Z" fill="url(#paint13_linear_39_1375)"/>
<path opacity="0.13" d="M21.7273 6.04636L27.7101 18.464C27.7101 18.464 25.6476 32.7323 0.0282261 37.0339C-0.141298 37.0339 21.2046 28.0774 21.7273 6.04636Z" fill="#141413"/>
<path d="M23.8888 6.94342L26.5729 14.8263C26.5729 14.8263 25.3156 32.6899 0.0282562 37.0269C-0.141268 37.034 23.3661 28.9816 23.8888 6.94342Z" fill="url(#paint14_linear_39_1375)"/>
<path d="M58.1538 28.9886C58.7825 26.58 61.3324 24.1007 64.8076 24.1784C68.1911 24.2561 71.0235 26.7848 71.4473 30.1259C71.9065 33.7918 69.519 36.4124 67.4847 37.2106C70.748 35.5012 71.6169 32.0118 70.9176 29.5043C70.1688 26.7989 67.8237 24.8282 65.0478 24.5881C62.0811 24.3338 59.2345 26.0643 58.1538 28.9886Z" fill="url(#paint15_linear_39_1375)"/>
<path d="M69.2436 27.1592C66.5665 25.7253 63.9954 25.5982 61.6362 27.5759C59.4677 29.3913 58.945 31.7575 59.7219 34.4558C58.7966 32.5133 58.952 29.1511 61.7209 27.0674C64.179 25.2167 67.4141 25.6264 69.2436 27.1592Z" fill="url(#paint16_linear_39_1375)"/>
<defs>
<linearGradient id="paint0_linear_39_1375" x1="62.8986" y1="32.7311" x2="67.788" y2="32.7311" gradientUnits="userSpaceOnUse">
<stop stop-color="#F0A321"/>
<stop offset="1" stop-color="#F0582E"/>
</linearGradient>
<linearGradient id="paint1_linear_39_1375" x1="10.9941" y1="36.0602" x2="11.0243" y2="36.0602" gradientUnits="userSpaceOnUse">
<stop stop-color="#F0A321"/>
<stop offset="1" stop-color="#F0582E"/>
</linearGradient>
<linearGradient id="paint2_linear_39_1375" x1="-0.00348231" y1="37.1786" x2="7.32345" y2="37.1786" gradientUnits="userSpaceOnUse">
<stop stop-color="#FBB040"/>
<stop offset="0.9985" stop-color="#F9ED32"/>
</linearGradient>
<linearGradient id="paint3_linear_39_1375" x1="1.03895" y1="37.4742" x2="9.08114" y2="38.2089" gradientUnits="userSpaceOnUse">
<stop stop-color="#FBB040"/>
<stop offset="0.9985" stop-color="#F9ED32"/>
</linearGradient>
<linearGradient id="paint4_linear_39_1375" x1="2.01633" y1="40.0259" x2="8.85804" y2="40.6509" gradientUnits="userSpaceOnUse">
<stop stop-color="#FBB040"/>
<stop offset="0.9985" stop-color="#F9ED32"/>
</linearGradient>
<linearGradient id="paint5_linear_39_1375" x1="19.7811" y1="23.2477" x2="29.1215" y2="23.2477" gradientUnits="userSpaceOnUse">
<stop offset="0.192" stop-color="#FBB040"/>
<stop offset="0.9985" stop-color="#F9ED32"/>
</linearGradient>
<linearGradient id="paint6_linear_39_1375" x1="22.9354" y1="21.4347" x2="13.7277" y2="1.14012" gradientUnits="userSpaceOnUse">
<stop stop-color="#FBB040"/>
<stop offset="0.9985" stop-color="#F9ED32"/>
</linearGradient>
<linearGradient id="paint7_linear_39_1375" x1="8.62644" y1="27.7091" x2="16.5465" y2="27.7091" gradientUnits="userSpaceOnUse">
<stop stop-color="#F0A321"/>
<stop offset="1" stop-color="#F0582E"/>
</linearGradient>
<linearGradient id="paint8_linear_39_1375" x1="2.03261" y1="22.6389" x2="10.4398" y2="22.6389" gradientUnits="userSpaceOnUse">
<stop stop-color="#F0A321"/>
<stop offset="1" stop-color="#F0582E"/>
</linearGradient>
<linearGradient id="paint9_linear_39_1375" x1="3.80347" y1="25.7337" x2="11.1733" y2="30.848" gradientUnits="userSpaceOnUse">
<stop stop-color="#F0A321"/>
<stop offset="1" stop-color="#F0582E"/>
</linearGradient>
<linearGradient id="paint10_linear_39_1375" x1="12.5897" y1="36.8553" x2="7.04637" y2="31.186" gradientUnits="userSpaceOnUse">
<stop stop-color="#F0A321"/>
<stop offset="1" stop-color="#F0582E"/>
</linearGradient>
<linearGradient id="paint11_linear_39_1375" x1="5.53829" y1="44.0457" x2="10.6864" y2="44.516" gradientUnits="userSpaceOnUse">
<stop stop-color="#FBB040"/>
<stop offset="0.9985" stop-color="#F9ED32"/>
</linearGradient>
<linearGradient id="paint12_linear_39_1375" x1="24.0802" y1="27.9013" x2="24.096" y2="27.9013" gradientUnits="userSpaceOnUse">
<stop stop-color="#FBB040"/>
<stop offset="0.9985" stop-color="#F9ED32"/>
</linearGradient>
<linearGradient id="paint13_linear_39_1375" x1="10.9941" y1="31.9902" x2="24.0802" y2="31.9902" gradientUnits="userSpaceOnUse">
<stop offset="0.5015" stop-color="#FBB040"/>
<stop offset="0.9985" stop-color="#F9ED32"/>
</linearGradient>
<linearGradient id="paint14_linear_39_1375" x1="3.55992" y1="34.4678" x2="24.7001" y2="14.737" gradientUnits="userSpaceOnUse">
<stop offset="0.7201" stop-color="#FBB040"/>
<stop offset="1" stop-color="#F9ED32"/>
</linearGradient>
<linearGradient id="paint15_linear_39_1375" x1="58.1532" y1="30.6932" x2="71.4991" y2="30.6932" gradientUnits="userSpaceOnUse">
<stop stop-color="#FBB040"/>
<stop offset="0.9985" stop-color="#F9ED32"/>
</linearGradient>
<linearGradient id="paint16_linear_39_1375" x1="59.2199" y1="30.1427" x2="69.2462" y2="30.1427" gradientUnits="userSpaceOnUse">
<stop stop-color="#FBB040"/>
<stop offset="0.9985" stop-color="#F9ED32"/>
</linearGradient>
</defs>
</svg>
