<svg width="507" height="461" viewBox="0 0 507 461" fill="none" xmlns="http://www.w3.org/2000/svg">
<path d="M216.307 239.804L216.524 239.81L216.684 239.959C217.79 240.985 219.811 241.77 222.511 242.325C225.185 242.875 228.426 243.181 231.875 243.319C238.141 243.571 245.034 243.267 250.335 242.894C230.96 231.98 215.92 219.296 204.682 207.589C198.694 207.062 190.891 204.013 180.794 196.006C181.324 196.986 182.198 198.424 183.34 200.198C185.955 204.261 189.936 210.022 194.283 215.905C198.63 221.788 203.335 227.781 207.397 232.31C209.429 234.576 211.289 236.463 212.855 237.785C213.639 238.446 214.336 238.955 214.934 239.299C215.543 239.648 215.996 239.795 216.307 239.804Z" fill="url(#paint0_linear_43_362)" stroke="black"/>
<path d="M183.517 105.34C183.445 105.46 183.387 105.558 183.344 105.632L183.455 105.981C183.567 106.336 183.733 106.858 183.946 107.528C184.372 108.868 184.987 110.797 185.74 113.155C187.248 117.872 189.312 124.303 191.538 131.164C195.977 144.845 201.056 160.216 203.658 167.115C216.955 184.377 231.816 198.735 247.215 210.655C232.702 182.328 227.035 150.609 226.333 121.584C225.633 92.6305 229.872 66.3237 235.229 48.6821C220.921 57.3487 208.084 71.3445 198.735 83.334C193.935 89.4906 190.061 95.1084 187.388 99.1867C186.052 101.226 185.016 102.879 184.314 104.023C183.963 104.595 183.696 105.039 183.517 105.34Z" fill="url(#paint1_linear_43_362)" stroke="black"/>
<mask id="path-3-inside-1_43_362" fill="white">
<path d="M225.265 249.422C225.327 249.457 225.346 249.504 225.408 249.54C225.346 249.504 225.284 249.469 225.265 249.422Z"/>
</mask>
<path d="M225.265 249.422C225.327 249.457 225.346 249.504 225.408 249.54C225.346 249.504 225.284 249.469 225.265 249.422Z" fill="url(#paint2_linear_43_362)"/>
<path d="M225.265 249.422L224.302 249.692L223.313 247.223L225.744 248.608L225.265 249.422ZM225.744 248.608C225.932 248.715 226.052 248.844 226.069 248.861C226.092 248.885 226.013 248.797 225.887 248.725L224.929 250.354C224.741 250.247 224.621 250.118 224.604 250.1C224.581 250.077 224.66 250.165 224.786 250.236L225.744 248.608ZM224.929 250.354C224.913 250.345 224.815 250.291 224.72 250.22C224.63 250.153 224.419 249.981 224.302 249.692L226.228 249.153C226.131 248.91 225.96 248.78 225.921 248.75C225.877 248.718 225.84 248.699 225.887 248.725L224.929 250.354Z" fill="black" mask="url(#path-3-inside-1_43_362)"/>
<path d="M227.191 250.447C248.788 268.381 272.203 275.86 290.368 278.838C299.652 280.36 307.56 280.706 313.144 280.671C315.406 280.657 317.286 280.58 318.721 280.494C303.29 277.155 293.701 272.823 287.776 268.493C281.609 263.986 279.423 259.489 278.764 256.165C271.094 253.283 263.954 250.108 257.268 246.66C251.569 249.258 244.115 250.34 237.861 250.662C234.684 250.826 231.802 250.794 229.593 250.661C228.669 250.605 227.858 250.532 227.191 250.447Z" fill="url(#paint3_linear_43_362)" stroke="black"/>
<path opacity="0.13" d="M224.6 236.805C256.115 256.764 306.999 275.082 384.725 268.903C383.894 268.723 382.907 268.505 381.774 268.245C377.736 267.316 371.85 265.848 364.573 263.655C350.021 259.27 329.904 251.984 307.889 240.311C264.307 217.203 213.276 176.898 183.255 107.883L180.653 194.792C180.673 194.826 180.697 194.868 180.726 194.918C180.821 195.08 180.965 195.323 181.16 195.641C181.55 196.275 182.145 197.208 182.96 198.391C184.589 200.758 187.097 204.129 190.603 208.135C197.617 216.145 208.627 226.69 224.6 236.805Z" fill="#141413" stroke="black"/>
<path d="M223.942 223.955C256.185 249.853 307.332 274.208 383.435 268.933C382.807 268.841 382.115 268.738 381.365 268.621C377.05 267.952 370.767 266.852 363.015 265.098C347.51 261.592 326.121 255.472 302.831 244.963C256.891 224.233 203.54 186.414 173.392 117.879L177.865 169.624C177.89 169.676 177.929 169.755 177.98 169.859C178.084 170.068 178.241 170.38 178.454 170.787C178.878 171.602 179.523 172.797 180.4 174.315C182.154 177.351 184.837 181.679 188.548 186.833C195.971 197.141 207.505 210.752 223.942 223.955Z" fill="url(#paint4_linear_43_362)" stroke="black"/>
<path d="M410.282 220.204L410.272 220.207L410.263 220.209C388.044 227.32 369.388 242.97 356.303 256.809C349.756 263.733 344.595 270.213 341.069 274.963C340.669 275.503 340.289 276.021 339.931 276.514C346.381 263.936 353.425 250.938 360.642 239.461C369.163 225.91 377.89 214.535 386.128 208.458L386.13 208.456C389.908 205.639 393.489 203.616 396.76 202.51C400.031 201.405 402.963 201.227 405.476 202.054L405.477 202.055C414.134 204.873 424.451 201.949 432.519 198.399C436.568 196.617 440.083 194.663 442.584 193.154C443.836 192.4 444.835 191.756 445.522 191.301C445.608 191.244 445.689 191.189 445.765 191.138C445.72 191.682 445.62 192.443 445.405 193.374C444.942 195.375 443.947 198.164 441.812 201.278C437.545 207.5 428.687 215.074 410.282 220.204Z" fill="url(#paint5_linear_43_362)" stroke="black"/>
<path d="M427.983 199.859C428.046 199.84 428.109 199.821 428.171 199.802C420.87 202.914 412.361 204.973 405.058 202.593C399.593 200.794 391.964 202.423 384.358 208.002L384.304 207.995C384.141 207.975 383.902 207.946 383.598 207.908C382.991 207.833 382.127 207.723 381.097 207.585C379.036 207.309 376.315 206.923 373.672 206.482C371.024 206.039 368.473 205.544 366.742 205.052C365.862 204.803 365.25 204.568 364.938 204.368C364.933 204.365 364.929 204.362 364.925 204.359L364.93 204.351C368.52 198.666 372.626 196.167 376.198 195.149C379.731 194.142 382.787 194.569 384.388 194.877C401.933 204.061 417.148 203.116 427.983 199.859Z" fill="url(#paint6_linear_43_362)" stroke="black"/>
<path d="M405.95 222.449L406.264 222.324L406.264 222.228C406.296 222.215 406.334 222.199 406.378 222.182C406.637 222.08 407.032 221.954 407.557 221.797C407.99 221.668 408.502 221.522 409.083 221.355C409.203 221.321 409.325 221.286 409.449 221.25C410.184 221.039 411.014 220.799 411.923 220.527C415.556 219.437 420.437 217.825 425.396 215.459C433.894 211.404 442.741 205.075 445.806 195.259C445.21 198.401 443.884 202.714 441.231 207.51C435.397 218.054 423.132 230.968 398.021 238.894L398.162 239.341L398.021 238.894C385.369 242.889 376.89 253.748 371.588 263.523C368.932 268.42 367.061 273.067 365.854 276.489C365.25 278.201 364.812 279.607 364.525 280.587C364.381 281.078 364.275 281.461 364.204 281.723C364.2 281.737 364.197 281.752 364.193 281.766L336.677 283.067C336.87 282.768 337.117 282.389 337.417 281.938C338.247 280.69 339.48 278.886 341.094 276.667C344.322 272.229 349.07 266.134 355.145 259.509C367.302 246.254 384.748 230.907 405.95 222.449Z" fill="url(#paint7_linear_43_362)" stroke="black"/>
<path d="M389.812 262.893L389.812 262.893C389.106 268.238 389.91 272.075 390.909 274.592C391.408 275.849 391.954 276.772 392.381 277.385C392.434 277.462 392.485 277.533 392.534 277.6L365.214 281.649C365.259 281.435 365.317 281.173 365.387 280.868C365.605 279.922 365.948 278.557 366.445 276.892C367.44 273.56 369.05 269.029 371.511 264.233C376.311 254.879 384.317 244.573 397.254 240.115C397.08 240.529 396.86 241.059 396.606 241.682C395.953 243.281 395.071 245.497 394.156 247.963C392.331 252.878 390.353 258.843 389.812 262.893Z" fill="url(#paint8_linear_43_362)" stroke="black"/>
<path d="M314.478 267.438L372.218 276.53L312.489 285.333L314.478 267.438Z" fill="url(#paint9_linear_43_362)" stroke="black"/>
<path d="M375.589 277.045L391.675 276.654L309.907 306.928L312.562 289.025L375.589 277.045Z" fill="url(#paint10_linear_43_362)" stroke="black"/>
<path d="M346.22 293.738L392.783 277.276L312.299 358.984L311.162 312.029L346.22 293.738Z" fill="url(#paint11_linear_43_362)" stroke="black"/>
<path d="M335.944 334.58L393.199 278.223L323.181 441.462L312.323 375.648L335.944 334.58Z" fill="url(#paint12_linear_43_362)" stroke="black"/>
<path d="M154.998 263.83L155.22 263.813L155.415 263.934C157.214 265.053 160.191 265.726 163.989 266.024C167.761 266.321 172.235 266.241 176.941 265.929C185.691 265.35 195.181 263.973 202.323 262.763C173.144 252.192 149.455 238.817 131.223 226.112C122.915 226.324 111.404 223.658 95.3552 215.052C95.3768 215.078 95.3989 215.106 95.4216 215.133C96.332 216.242 98.0306 218.046 100.314 220.333C104.871 224.898 111.703 231.333 119.058 237.863C126.415 244.394 134.285 251.009 140.921 255.941C144.24 258.408 147.237 260.443 149.698 261.834C150.928 262.53 152.01 263.056 152.92 263.395C153.842 263.738 154.527 263.867 154.998 263.83Z" fill="url(#paint13_linear_43_362)" stroke="black"/>
<path d="M76.7926 105.16C76.7127 105.346 76.6518 105.49 76.6099 105.589L76.8769 106.048C77.1182 106.463 77.4735 107.073 77.9293 107.856C78.841 109.421 80.1552 111.675 81.765 114.43C84.9845 119.939 89.3863 127.45 94.1153 135.46C103.551 151.442 114.28 169.392 119.525 177.39C142.058 196.663 166.007 212.125 190.066 224.504C163.098 192.082 147.38 154.218 139.128 118.949C130.894 83.7527 130.088 51.1084 132.982 28.9799C115.607 41.4911 101.607 60.4051 91.8891 76.3502C86.9307 84.4856 83.0928 91.8385 80.4946 97.1572C79.1956 99.8163 78.2067 101.967 77.5428 103.452C77.2108 104.194 76.9601 104.77 76.7926 105.16Z" fill="url(#paint14_linear_43_362)" stroke="black"/>
<mask id="path-18-inside-2_43_362" fill="white">
<path d="M169.493 274.111C169.585 274.145 169.622 274.199 169.714 274.233C169.622 274.199 169.531 274.165 169.493 274.111Z"/>
</mask>
<path d="M169.493 274.111C169.585 274.145 169.622 274.199 169.714 274.233C169.622 274.199 169.531 274.165 169.493 274.111Z" fill="url(#paint15_linear_43_362)"/>
<path d="M169.493 274.111L168.556 274.46L167.064 272.283L169.821 273.303L169.493 274.111ZM169.821 273.303C170.046 273.387 170.203 273.499 170.232 273.519C170.267 273.543 170.175 273.475 170.041 273.425L169.387 275.041C169.161 274.958 169.004 274.845 168.975 274.825C168.94 274.801 169.032 274.87 169.166 274.919L169.821 273.303ZM169.387 275.041C169.359 275.031 169.236 274.987 169.115 274.927C169 274.869 168.739 274.726 168.556 274.46L170.43 273.762C170.285 273.55 170.088 273.451 170.051 273.433C170.009 273.411 169.977 273.402 170.041 273.425L169.387 275.041Z" fill="black" mask="url(#path-18-inside-2_43_362)"/>
<path d="M171.807 274.94C205.709 293.907 239.492 299.775 264.957 300.868C277.914 301.424 288.712 300.743 296.269 299.923C299.934 299.526 302.835 299.096 304.85 298.759C282.513 296.895 268.157 292.921 258.933 288.434C249.437 283.815 245.393 278.658 243.704 274.743C232.541 272.305 222.031 269.432 212.072 266.162C205.031 270.113 195.202 272.469 186.799 273.731C182.548 274.37 178.646 274.731 175.631 274.877C174.125 274.95 172.833 274.969 171.826 274.94C171.82 274.94 171.813 274.94 171.807 274.94Z" fill="url(#paint16_linear_43_362)" stroke="black"/>
<path opacity="0.13" d="M165.368 259.026C213.203 278.927 287.006 294.102 391.208 275.527C389.853 275.412 388.106 275.258 385.998 275.049C380.305 274.485 371.977 273.523 361.586 271.877C340.806 268.583 311.774 262.547 279.077 251.458C214.188 229.452 134.855 187.542 76.9545 107.683L95.2926 214.114C95.3324 214.158 95.3853 214.216 95.4512 214.288C95.621 214.473 95.8775 214.748 96.2218 215.107C96.9105 215.824 97.9507 216.874 99.351 218.197C102.152 220.845 106.393 224.588 112.147 228.962C123.653 237.708 141.204 248.973 165.368 259.026Z" fill="#141413" stroke="black"/>
<path d="M161.297 243.627C211.673 270.69 287.487 293.205 389.904 275.788C388.682 275.76 387.235 275.72 385.577 275.662C379.574 275.45 370.802 274.989 359.877 273.941C338.028 271.845 307.567 267.399 273.436 257.898C205.891 239.094 123.957 200.478 66.0098 121.074L85.2802 184.087L85.2954 184.107C85.3433 184.167 85.4156 184.258 85.5125 184.378C85.7062 184.618 85.9978 184.976 86.3877 185.441C87.1675 186.371 88.3403 187.732 89.9084 189.453C93.0446 192.894 97.7615 197.772 104.077 203.509C116.71 214.984 135.734 229.895 161.297 243.627Z" fill="url(#paint17_linear_43_362)" stroke="black"/>
<defs>
<linearGradient id="paint0_linear_43_362" x1="238.281" y1="212.705" x2="186.532" y2="233.457" gradientUnits="userSpaceOnUse">
<stop offset="0.192" stop-color="#FBB040"/>
<stop offset="0.9985" stop-color="#F9ED32"/>
</linearGradient>
<linearGradient id="paint1_linear_43_362" x1="215.38" y1="206.186" x2="241.447" y2="65.8314" gradientUnits="userSpaceOnUse">
<stop stop-color="#FBB040"/>
<stop offset="0.9985" stop-color="#F9ED32"/>
</linearGradient>
<linearGradient id="paint2_linear_43_362" x1="225.385" y1="249.494" x2="225.296" y2="249.53" gradientUnits="userSpaceOnUse">
<stop stop-color="#FBB040"/>
<stop offset="0.9985" stop-color="#F9ED32"/>
</linearGradient>
<linearGradient id="paint3_linear_43_362" x1="311.566" y1="254.532" x2="239.064" y2="283.606" gradientUnits="userSpaceOnUse">
<stop offset="0.5015" stop-color="#FBB040"/>
<stop offset="0.9985" stop-color="#F9ED32"/>
</linearGradient>
<linearGradient id="paint4_linear_43_362" x1="360.922" y1="258.387" x2="178.283" y2="193.218" gradientUnits="userSpaceOnUse">
<stop offset="0.7201" stop-color="#FBB040"/>
<stop offset="1" stop-color="#F9ED32"/>
</linearGradient>
<linearGradient id="paint5_linear_43_362" x1="405.479" y1="242.945" x2="463.961" y2="269.118" gradientUnits="userSpaceOnUse">
<stop stop-color="#F0A321"/>
<stop offset="1" stop-color="#F0582E"/>
</linearGradient>
<linearGradient id="paint6_linear_43_362" x1="373.545" y1="183.716" x2="435.624" y2="211.499" gradientUnits="userSpaceOnUse">
<stop stop-color="#F0A321"/>
<stop offset="1" stop-color="#F0582E"/>
</linearGradient>
<linearGradient id="paint7_linear_43_362" x1="376.394" y1="212.42" x2="413.912" y2="274.539" gradientUnits="userSpaceOnUse">
<stop stop-color="#F0A321"/>
<stop offset="1" stop-color="#F0582E"/>
</linearGradient>
<linearGradient id="paint8_linear_43_362" x1="404.519" y1="323.578" x2="382.322" y2="263.397" gradientUnits="userSpaceOnUse">
<stop stop-color="#F0A321"/>
<stop offset="1" stop-color="#F0582E"/>
</linearGradient>
<linearGradient id="paint9_linear_43_362" x1="313.609" y1="267.754" x2="368.47" y2="292.306" gradientUnits="userSpaceOnUse">
<stop stop-color="#FBB040"/>
<stop offset="0.9985" stop-color="#F9ED32"/>
</linearGradient>
<linearGradient id="paint10_linear_43_362" x1="320.323" y1="273.686" x2="378.39" y2="305.674" gradientUnits="userSpaceOnUse">
<stop stop-color="#FBB040"/>
<stop offset="0.9985" stop-color="#F9ED32"/>
</linearGradient>
<linearGradient id="paint11_linear_43_362" x1="318.219" y1="298.016" x2="367.618" y2="325.229" gradientUnits="userSpaceOnUse">
<stop stop-color="#FBB040"/>
<stop offset="0.9985" stop-color="#F9ED32"/>
</linearGradient>
<linearGradient id="paint12_linear_43_362" x1="329.745" y1="342.986" x2="366.916" y2="363.463" gradientUnits="userSpaceOnUse">
<stop stop-color="#FBB040"/>
<stop offset="0.9985" stop-color="#F9ED32"/>
</linearGradient>
<linearGradient id="paint13_linear_43_362" x1="177.921" y1="227.784" x2="118.719" y2="268.359" gradientUnits="userSpaceOnUse">
<stop offset="0.192" stop-color="#FBB040"/>
<stop offset="0.9985" stop-color="#F9ED32"/>
</linearGradient>
<linearGradient id="paint14_linear_43_362" x1="145.3" y1="223.062" x2="155.966" y2="49.9085" gradientUnits="userSpaceOnUse">
<stop stop-color="#FBB040"/>
<stop offset="0.9985" stop-color="#F9ED32"/>
</linearGradient>
<linearGradient id="paint15_linear_43_362" x1="169.672" y1="274.182" x2="169.57" y2="274.251" gradientUnits="userSpaceOnUse">
<stop stop-color="#FBB040"/>
<stop offset="0.9985" stop-color="#F9ED32"/>
</linearGradient>
<linearGradient id="paint16_linear_43_362" x1="287.555" y1="268.315" x2="204.612" y2="325.162" gradientUnits="userSpaceOnUse">
<stop offset="0.5015" stop-color="#FBB040"/>
<stop offset="0.9985" stop-color="#F9ED32"/>
</linearGradient>
<linearGradient id="paint17_linear_43_362" x1="355.363" y1="266.23" x2="91.0068" y2="217.484" gradientUnits="userSpaceOnUse">
<stop offset="0.7201" stop-color="#FBB040"/>
<stop offset="1" stop-color="#F9ED32"/>
</linearGradient>
</defs>
</svg>
