<svg width="260" height="260" viewBox="0 0 260 260" fill="none" xmlns="http://www.w3.org/2000/svg">
<path d="M130 258C200.692 258 258 200.692 258 130C258 59.3076 200.692 2 130 2C59.3076 2 2 59.3076 2 130C2 200.692 59.3076 258 130 258Z" fill="black" fill-opacity="0.9" stroke="url(#paint0_linear_85_63)" stroke-width="4" stroke-miterlimit="10"/>
<path d="M135.569 63.1733C143.669 63.6796 149.576 70.4297 149.027 78.6143C148.479 86.7145 141.771 92.5787 133.544 92.0303C125.402 91.4818 119.369 84.7738 119.875 76.758C120.381 68.6156 127.975 61.992 135.569 63.1733Z" fill="url(#paint1_linear_85_63)"/>
<path d="M93.001 52.584C97.6417 38.4508 113.758 24.613 134.43 26.3427C154.596 28.0302 170.501 44.1885 171.809 64.2702C173.201 86.2926 157.971 101.016 145.568 105.024C165.65 96.0382 172.104 75.5767 168.898 60.3467C165.439 43.9353 152.191 31.321 135.738 28.874C118.145 26.3005 100.511 35.5398 93.001 52.584Z" fill="url(#paint2_linear_85_63)"/>
<path d="M159.785 45.7916C144.386 36.257 129.072 34.5695 114.306 45.4541C100.721 55.4528 96.7131 69.375 100.341 85.7441C95.574 73.8048 97.7256 53.8496 114.981 42.4587C130.295 32.2913 149.449 35.9617 159.785 45.7916Z" fill="url(#paint3_linear_85_63)"/>
<path d="M93.2539 165.776L94.6883 174.973L125.866 163.962L93.2539 165.776Z" fill="url(#paint4_linear_85_63)"/>
<path d="M96.2071 185.436L95.1523 176.196L125.866 163.962L135.569 161.768L96.2071 185.436Z" fill="url(#paint5_linear_85_63)"/>
<path d="M104.392 209.821L97.4307 187.25L113.04 174.888L135.569 161.768L104.392 209.821Z" fill="url(#paint6_linear_85_63)"/>
<path d="M226.021 108.695C219.988 114.728 214.883 117.132 210.749 117.723C204.632 125.992 195.899 135.105 183.706 143.121C191.427 143.163 205.222 142.825 207.922 139.661C212.858 139.155 228.51 106.163 226.021 108.695Z" fill="url(#paint7_linear_85_63)"/>
<path d="M181.217 122.954C190.456 114.348 198.978 104.096 205.77 91.8614C207.247 82.7487 210.411 51.0229 210.411 51.0229C210.411 51.0229 187.798 25.752 164.552 15.8377C177.631 38.1132 193.409 84.5206 181.217 122.954Z" fill="url(#paint8_linear_85_63)"/>
<path d="M106.333 162.358C106.333 162.358 115.994 133.502 137.215 120.634C155.187 110.635 152.065 100.257 152.065 100.257C152.065 100.257 141.855 112.028 132.321 111.268C129.325 111.015 126.077 113.209 122.828 117.09C115.698 125.612 110.298 145.357 106.333 162.358Z" fill="url(#paint9_linear_85_63)"/>
<path d="M122.195 117.554C125.444 113.673 129.156 111.943 132.152 112.154C141.686 112.914 151.432 100.679 151.432 100.679C151.432 100.679 140.885 115.36 120.466 110.213C118.736 110.298 113.589 110.846 111.226 117.765C110.214 118.989 122.195 117.554 122.195 117.554Z" fill="url(#paint10_linear_85_63)"/>
<path d="M121.056 158.435L106.206 162.738C106.206 162.738 114.896 136.075 134.936 121.9C134.809 121.309 153.963 113.546 152.064 100.215C152.444 98.6116 157.422 117.259 133.164 131.856C121.182 139.113 121.056 158.435 121.056 158.435Z" fill="url(#paint11_linear_85_63)"/>
<path d="M121.056 158.435C121.056 158.435 119.959 139.788 133.164 131.898C133.164 131.898 131.603 140.927 132.067 145.188C132.658 150.841 135.611 152.571 135.611 152.571L121.056 158.435Z" fill="url(#paint12_linear_85_63)"/>
<path d="M121.014 247.664L106.417 217.035L113.082 195.223L135.569 161.768L121.014 247.664Z" fill="url(#paint13_linear_85_63)"/>
<path d="M203.116 145.905C203.072 145.948 203.072 145.948 203.029 145.992C203.072 145.992 203.116 145.948 203.116 145.905Z" fill="url(#paint14_linear_85_63)"/>
<path d="M180.458 145.146C176.281 147.719 171.725 150.124 166.704 152.36C166.915 156.536 163.793 164.384 140.843 170.29C140.843 170.29 178.222 172.357 203.029 145.989C201.932 146.707 189.106 148.099 180.458 145.146Z" fill="url(#paint15_linear_85_63)"/>
<path opacity="0.13" d="M210.411 51.0651L225.979 108.695C225.979 108.695 205.855 167.759 93.3804 165.691C92.7054 165.523 190.667 144.428 210.411 51.0651Z" fill="#141413"/>
<path d="M218.892 56.634L224.039 92.3255C224.039 92.3255 204.463 167.337 93.3806 165.691C92.7056 165.523 199.147 149.955 218.892 56.634Z" fill="url(#paint16_linear_85_63)"/>
<defs>
<linearGradient id="paint0_linear_85_63" x1="2" y1="130" x2="258" y2="130" gradientUnits="userSpaceOnUse">
<stop stop-color="#DA4A52"/>
<stop offset="1" stop-color="#DF775A"/>
</linearGradient>
<linearGradient id="paint1_linear_85_63" x1="119.894" y1="76.6469" x2="149.041" y2="78.4576" gradientUnits="userSpaceOnUse">
<stop stop-color="#F0A321"/>
<stop offset="1" stop-color="#F0582E"/>
</linearGradient>
<linearGradient id="paint2_linear_85_63" x1="92.3594" y1="62.7405" x2="171.92" y2="67.6828" gradientUnits="userSpaceOnUse">
<stop stop-color="#FBB040"/>
<stop offset="0.9985" stop-color="#F9ED32"/>
</linearGradient>
<linearGradient id="paint3_linear_85_63" x1="98.9219" y1="59.8536" x2="158.692" y2="63.5666" gradientUnits="userSpaceOnUse">
<stop stop-color="#FBB040"/>
<stop offset="0.9985" stop-color="#F9ED32"/>
</linearGradient>
<linearGradient id="paint4_linear_85_63" x1="93.1678" y1="166.287" x2="124.35" y2="172.117" gradientUnits="userSpaceOnUse">
<stop stop-color="#FBB040"/>
<stop offset="0.9985" stop-color="#F9ED32"/>
</linearGradient>
<linearGradient id="paint5_linear_85_63" x1="97.3295" y1="168.349" x2="130.97" y2="177.877" gradientUnits="userSpaceOnUse">
<stop stop-color="#FBB040"/>
<stop offset="0.9985" stop-color="#F9ED32"/>
</linearGradient>
<linearGradient id="paint6_linear_85_63" x1="99.458" y1="179.986" x2="128.077" y2="188.092" gradientUnits="userSpaceOnUse">
<stop stop-color="#FBB040"/>
<stop offset="0.9985" stop-color="#F9ED32"/>
</linearGradient>
<linearGradient id="paint7_linear_85_63" x1="188.455" y1="122.742" x2="228.206" y2="130.175" gradientUnits="userSpaceOnUse">
<stop offset="0.192" stop-color="#FBB040"/>
<stop offset="0.9985" stop-color="#F9ED32"/>
</linearGradient>
<linearGradient id="paint8_linear_85_63" x1="203.322" y1="117.536" x2="180.284" y2="23.837" gradientUnits="userSpaceOnUse">
<stop stop-color="#FBB040"/>
<stop offset="0.9985" stop-color="#F9ED32"/>
</linearGradient>
<linearGradient id="paint9_linear_85_63" x1="137.431" y1="132.853" x2="171.138" y2="139.155" gradientUnits="userSpaceOnUse">
<stop stop-color="#F0A321"/>
<stop offset="1" stop-color="#F0582E"/>
</linearGradient>
<linearGradient id="paint10_linear_85_63" x1="113.403" y1="106.027" x2="149.184" y2="112.717" gradientUnits="userSpaceOnUse">
<stop stop-color="#F0A321"/>
<stop offset="1" stop-color="#F0582E"/>
</linearGradient>
<linearGradient id="paint11_linear_85_63" x1="118.477" y1="120.607" x2="145.772" y2="148.238" gradientUnits="userSpaceOnUse">
<stop stop-color="#F0A321"/>
<stop offset="1" stop-color="#F0582E"/>
</linearGradient>
<linearGradient id="paint12_linear_85_63" x1="147.02" y1="174.932" x2="127.94" y2="146.393" gradientUnits="userSpaceOnUse">
<stop stop-color="#F0A321"/>
<stop offset="1" stop-color="#F0582E"/>
</linearGradient>
<linearGradient id="paint13_linear_85_63" x1="111.288" y1="199.922" x2="132.824" y2="206.02" gradientUnits="userSpaceOnUse">
<stop stop-color="#FBB040"/>
<stop offset="0.9985" stop-color="#F9ED32"/>
</linearGradient>
<linearGradient id="paint14_linear_85_63" x1="203.05" y1="145.969" x2="203.117" y2="145.981" gradientUnits="userSpaceOnUse">
<stop stop-color="#FBB040"/>
<stop offset="0.9985" stop-color="#F9ED32"/>
</linearGradient>
<linearGradient id="paint15_linear_85_63" x1="144.101" y1="152.957" x2="199.795" y2="163.37" gradientUnits="userSpaceOnUse">
<stop offset="0.5015" stop-color="#FBB040"/>
<stop offset="0.9985" stop-color="#F9ED32"/>
</linearGradient>
<linearGradient id="paint16_linear_85_63" x1="110.491" y1="157.585" x2="216.162" y2="90.4354" gradientUnits="userSpaceOnUse">
<stop offset="0.7201" stop-color="#FBB040"/>
<stop offset="1" stop-color="#F9ED32"/>
</linearGradient>
</defs>
</svg>
